<svg xmlns="http://www.w3.org/2000/svg" viewBox="0 0 300 300"><g fill="none" stroke-width="2"><path stroke="#ebca38" d="M216.48 202.34a.33.33 0 0 0 .24-.29l15.5-174.94a.33.33 0 0 0-.33-.36h-81.31a.33.33 0 0 0-.33.33v192.95a.33.33 0 0 0 .42.32l65.81-18.01" vector-effect="non-scaling-stroke"/><path stroke="#e1d38f" d="M122.5 157.53a.41.41 0 0 1-.52.4l-37.78-10.5a.41.41 0 0 0-.52.4v22.6a.41.41 0 0 0 .3.39l57.5 16.02a.41.41 0 0 0 .52-.4V53.38a.41.41 0 0 0-.41-.41l-18.68-.01a.41.41 0 0 0-.41.41v104.16" vector-effect="non-scaling-stroke"/><path stroke="#ffed9f" d="M178.23 112.31a.42.42 0 0 1-.47-.41l-.02-34.98a.42.42 0 0 1 .42-.42h41.54a.42.42 0 0 0 .42-.38l1.91-22.7a.42.42 0 0 0-.42-.45l-62.94-.07a.42.42 0 0 0-.42.42l-.01 86.2a.42.42 0 0 0 .49.41l38.71-6.86a.42.42 0 0 1 .49.43l-.81 19.24a.42.42 0 0 1-.31.39l-38.25 10.23a.42.42 0 0 0-.31.4v22.63a.42.42 0 0 0 .53.4l53.36-13.97a.42.42 0 0 0 .31-.38l5.04-64.46a.42.42 0 0 0-.47-.45l-38.79 4.78" vector-effect="non-scaling-stroke"/></g><path fill="#d6ba32" d="M68.41 213.8a.81.81 0 0 1-.59-.71Q59.29 117.58 50.74 22q-.55-6.16-1.5-12.33a.8.79-4.6 0 1 .79-.92h199.99a.47.47 0 0 1 .47.52l-18.14 203.27a1.59 1.58-5.6 0 1-1.15 1.39l-80.89 22.73a1.6 1.6 0 0 1-.86 0L68.41 213.8Zm148.07-11.46a.33.33 0 0 0 .24-.29l15.5-174.94a.33.33 0 0 0-.33-.36h-81.31a.33.33 0 0 0-.33.33v192.95a.33.33 0 0 0 .42.32l65.81-18.01Zm-93.98-44.81a.41.41 0 0 1-.52.4l-37.78-10.5a.41.41 0 0 0-.52.4v22.6a.41.41 0 0 0 .3.39l57.5 16.02a.41.41 0 0 0 .52-.4V53.38a.41.41 0 0 0-.41-.41l-18.68-.01a.41.41 0 0 0-.41.41v104.16Z"/><path fill="#ffda3e" d="m216.48 202.34-65.81 18.01a.33.33 0 0 1-.42-.32V27.08a.33.33 0 0 1 .33-.33h81.31a.33.33 0 0 1 .33.36l-15.5 174.94a.33.33 0 0 1-.24.29Zm-38.25-90.03a.42.42 0 0 1-.47-.41l-.02-34.98a.42.42 0 0 1 .42-.42h41.54a.42.42 0 0 0 .42-.38l1.91-22.7a.42.42 0 0 0-.42-.45l-62.94-.07a.42.42 0 0 0-.42.42l-.01 86.2a.42.42 0 0 0 .49.41l38.71-6.86a.42.42 0 0 1 .49.43l-.81 19.24a.42.42 0 0 1-.31.39l-38.25 10.23a.42.42 0 0 0-.31.4v22.63a.42.42 0 0 0 .53.4l53.36-13.97a.42.42 0 0 0 .31-.38l5.04-64.46a.42.42 0 0 0-.47-.45l-38.79 4.78Z"/><path fill="#ebebeb" d="M122.5 157.53V53.37a.41.41 0 0 1 .41-.41l18.68.01a.41.41 0 0 1 .41.41v133.06a.41.41 0 0 1-.52.4l-57.5-16.02a.41.41 0 0 1-.3-.39v-22.6a.41.41 0 0 1 .52-.4l37.78 10.5a.41.41 0 0 0 .52-.4Z"/><path fill="#fff" d="m178.23 112.31 38.79-4.78a.42.42 0 0 1 .47.45l-5.04 64.46a.42.42 0 0 1-.31.38l-53.36 13.97a.42.42 0 0 1-.53-.4v-22.63a.42.42 0 0 1 .31-.4l38.25-10.23a.42.42 0 0 0 .31-.39l.81-19.24a.42.42 0 0 0-.49-.43l-38.71 6.86a.42.42 0 0 1-.49-.41l.01-86.2a.42.42 0 0 1 .42-.42l62.94.07a.42.42 0 0 1 .42.45l-1.91 22.7a.42.42 0 0 1-.42.38h-41.54a.42.42 0 0 0-.42.42l.02 34.98a.42.42 0 0 0 .47.41Z"/><path d="M143.98 278.85c3.29 1.79 7.56.35 8.33-3.49 1.4-7.03-9.57-7.9-12.44-13.25-2.18-4.09-.51-9.06 3.63-10.99 2.89-1.35 6.64-1.04 9.79-.31a1.23 1.22 3.5 0 1 .93 1.04l.59 5.11a.84.83 73.6 0 1-.46.85l-.26.13a.19.19 0 0 1-.26-.1c-1.55-3.56-3.3-7.25-8.1-5.61-3 1.03-4 4.52-2.53 7.15 3.15 5.66 16.29 6.2 12.53 15.99-2.46 6.41-10.26 7.26-15.88 4.54a1.33 1.32 4.5 0 1-.67-.78q-1.01-3.19-.87-6.54.03-.91.58-.17c1.65 2.25 2.74 5.15 5.09 6.43Zm-79.79-26.79q-.5-.06-.71-.61a.51.51 0 0 1 .48-.7h11.18a.47.47 0 0 1 .46.55l-.06.35a.6.59 5.4 0 1-.61.5c-2.08-.09-3.23.95-3.2 3.11q.15 9.45-.1 18.86c-.18 6.84-1.52 11.2-7.73 13.96a.57.56 69.3 0 1-.77-.35l-.09-.28a.74.74 0 0 1 .29-.83q3.99-2.72 4.15-6.88.49-12.58.2-25.2-.04-2.06-3.49-2.48Z"/><circle cx="201.38" cy="253.68" r="2.37"/><path d="M234.39 260.03q.06-3.41 2.78-5.48 1.12-.85 1.09.55l-.08 4.86a.53.53 0 0 0 .53.54h4.33a.75.75 0 0 1 .72.97c-.51 1.67-3.67.96-4.91.93a.51.51 0 0 0-.52.49q-.28 8.36.01 12.77c.26 3.9 2.76 2.53 5.04 2.33a.58.57-89.2 0 1 .62.64l-.03.3a1.88 1.87 83.1 0 1-1.23 1.58c-4.96 1.83-7.96.39-8.13-4.52q-.23-6.43-.09-12.88a.52.52 0 0 0-.44-.51l-2.19-.31q-.99-.14-.37-.92.88-1.1 2.28-.85a.51.5-84.6 0 0 .59-.49Zm-19.63 21.24-.02 6.56q0 2.18 2.18 2.22 1.13.02 1.81.77.44.51-.22.6c-1.74.23-10.81.99-11.02-.44a.49.49 0 0 1 .44-.56c1.99-.16 3.06-1 3.07-3.15q.01-11.57-.01-23.09a.88.87 7.9 0 0-.64-.84l-1.91-.55a.65.64 9.2 0 1-.47-.64c.04-.86 5.2-2.07 5.97-2.32a.62.61-6.5 0 1 .8.63l-.14 1.75q-.07.99.78.48c1.8-1.07 3.85-2.58 5.92-2.66 4.66-.17 7.82 3.84 8.04 8.23.35 6.84-4.99 11.89-11.53 13q-.5.09-.99-.04l-1.53-.38a.44.43-83.3 0 0-.53.43Zm1.11-3.18c11.18 4.49 12.45-14.33 4.07-15.22q-2.64-.29-4.81 1.71a1.2 1.17 69.7 0 0-.38.85l-.01 10.99a1.81 1.8 11.2 0 0 1.13 1.67ZM85.28 262.2q-2.35-1.41-3.43 1.1l-1.31 3.05a1.28 1.27 24.8 0 1-1.74.64c-5.01-2.46 7.28-10.31 11.37-5.13 2.69 3.39-.45 18.43 4.33 16.04a.5.49 63.9 0 1 .67.24c.53 1.16-2.59 2.45-3.43 2.97a1.16 1.13-50.8 0 1-.96.11q-1.79-.61-2.58-2.34a.57.57 0 0 0-.94-.15c-6.89 7.69-14.9-4.4-6.6-7.57q3.4-1.3 6.7-2.74a.87.86 82.7 0 0 .51-.67q.52-3.69-2.59-5.55Zm-3.9 11.77c-1.66 4.02 3.62 5.73 6.28 2.93a1.3 1.29 67 0 0 .34-.85v-5.52a.44.44 0 0 0-.61-.41c-2.09.83-5.15 1.78-6.01 3.85Zm45.18-11.39c-2.81-2.07-4.71 1.33-5.31 3.58q-.53 2.01-2.19.76-1.02-.77-1.06-2.1a1.06 1.05 68.2 0 1 .35-.83c4.39-3.93 13-7.35 13.72 2.26q.39 5.23.15 10.5a.86.85 8.3 0 0 .65.86l2.56.64q1 .24.12.78l-3.73 2.24a.88.88 0 0 1-1.09-.16l-1.87-2.04a.62.61 57.2 0 0-.68-.15c-1.72.73-3.42 2.25-5.15 2.27-3.66.04-6.4-4.23-4.91-7.47 2.15-4.64 11.09-2.61 10.29-8.05q-.29-1.93-1.85-3.09Zm-4.77 11.79c-1.05 3.38 3.74 5.34 6.33 2.67a1.45 1.45 0 0 0 .41-.96l.1-4.78a1.04 1.04 0 0 0-1.45-.98c-1.98.85-4.72 1.91-5.39 4.05Zm40.04 2.56c-5.36-8.02 2.47-17.26 11.13-16.88 5.32.23 3.5 6.12 1.16 4.11-6.31-5.44-11.42 1.62-9.97 7.65 2.59 10.8 12.28 3.6 12.83 4.18a.63.62-49.3 0 1 .05.8c-4.17 5.72-11.2 6.13-15.2.14Zm24.92-13.65c2.83-1.21 2.43-4.26 6.66-2.98q1.83.55 1.19 2.34c-1.66 4.62-4.99-1.69-7.6 3.08-1.38 2.53-.79 8.59-.74 11.59a1.95 1.94-88.2 0 0 1.79 1.91l1.54.13a.64.64 0 0 1 .56.84q-.17.5-.72.51c-2.92.07-9.69.33-10.05-.43a.49.49 0 0 1 .26-.67l2.29-.89a.83.81-11.2 0 0 .52-.76q.09-6.78.04-13.45-.01-1.63-2.35-1.53a.37.37 0 0 1-.39-.38v-.38a.39.37 82.5 0 1 .26-.35l5.6-1.72a.56.55-7.9 0 1 .72.54l-.07 2.26a.36.35-10.2 0 0 .49.34Zm12.97 14.82.04-13.54a1.2 1.19 19.2 0 0-.46-.94c-.68-.52-2.28-.39-2.33-1.3a.57.56-10.2 0 1 .41-.58l5.58-1.67a.39.39 0 0 1 .5.38q.06 8.09.11 16.05.01 2.95 3.04 2.93a.36.35 13.3 0 1 .32.51l-.2.39a.74.72 13.2 0 1-.65.39c-1.21.02-9.21.37-9.48-.48a.6.6 0 0 1 .41-.77l2.13-.6a.81.8-8.2 0 0 .58-.77Zm-92.78-3.16q1.78-4.95 3.49-9.98.96-2.82-1.9-3.36a.41.41 0 0 1-.31-.54l.12-.33a.33.33 0 0 1 .31-.22l7.65-.02q1.78 0 .25.9l-2.45 1.42a1.67 1.62 87.9 0 0-.67.74q-3.76 8.39-7.03 16.94c-.36.94-1.4 1.13-1.78.14q-3.34-8.8-6.98-17.49a1.24 1.21-1.5 0 0-.73-.68l-2.13-.73a.43.43 0 0 1-.29-.47l.04-.28a.57.56 4.1 0 1 .56-.48h8.65q1.48 0 .39 1-.56.52-1.34.5a.96.96 0 0 0-.93 1.3l4.4 11.65q.34.91.68-.01Z"/></svg>