<svg xmlns="http://www.w3.org/2000/svg" viewBox="0 0 325 260"><g fill="none" stroke-width="2"><path stroke="#9a9a9a" d="M194.29 75.2a.33.33 0 0 0-.27.17l-36.7 63.94a.33.33 0 0 0 .01.33l4.87 8.39a.33.33 0 0 0 .58 0l42.24-72.63a.33.33 0 0 0-.29-.49l-10.44.29" vector-effect="non-scaling-stroke"/><path stroke="#8ec3ea" d="M171.64 84.5a.42.42 0 0 1 .36.63l-10.87 18.75a.42.42 0 0 1-.36.21l-6.8-.07a.42.42 0 0 0-.37.63l8.56 14.73a.42.42 0 0 0 .72 0l25.11-43.5a.42.42 0 0 0-.37-.63h-66.68a.42.42 0 0 0-.37.62l4.56 8.41a.42.42 0 0 0 .37.22h46.14" vector-effect="non-scaling-stroke"/><path stroke="#8ec3ea" d="M159.4 125.43a.4.4 0 0 0 0-.4l-14.57-25.36a.4.4 0 0 1 .34-.6l13-.37a.4.4 0 0 0 .34-.21l4.71-8.45a.4.4 0 0 0-.35-.6l-33.76.19a.4.4 0 0 0-.35.6l25.11 43.46a.4.4 0 0 0 .69.01l4.84-8.27" vector-effect="non-scaling-stroke"/><path stroke="#9a9a9a" d="m116.52 170.2 2.83 4.68q.36.6 1.06.6l1.79.03a.61.6 74.6 0 0 .52-.92l-2.38-3.98a.76.75-40.1 0 1 .08-.87c2.9-3.38 3.25-7.55-1.84-9.14q-1.52-.48-5.97.05-.61.08-.61.69v13.53q0 .63.62.63h2.03q.4 0 .42-.4l.24-4.6a.65.65 0 0 1 1.21-.3M140.75 173.01a.48.48 0 0 0-.47-.48l-5.56-.12a.48.48 0 0 1-.47-.48v-1.96a.48.48 0 0 1 .48-.48l4.79.03a.48.48 0 0 0 .48-.48v-2.06a.48.48 0 0 0-.48-.48h-4.79a.48.48 0 0 1-.48-.48v-1.88a.48.48 0 0 1 .47-.48l5.56-.17a.48.48 0 0 0 .47-.48v-2.03a.48.48 0 0 0-.48-.48h-8.86a.48.48 0 0 0-.48.49l.24 14.04a.48.48 0 0 0 .48.47h8.62a.48.48 0 0 0 .48-.48v-2.01M152.85 166.5a.6.6 0 0 1-.6-.6v-1.81a.6.6 0 0 1 .6-.6l5.31.02a.6.6 0 0 0 .6-.61l-.03-1.81a.6.6 0 0 0-.6-.59h-8.56a.6.6 0 0 0-.6.6l.08 13.8a.6.6 0 0 0 .6.6h2a.6.6 0 0 0 .6-.6v-4.8a.6.6 0 0 1 .6-.6h4.56a.6.6 0 0 0 .6-.61l-.03-1.8a.6.6 0 0 0-.6-.59h-4.53M170.25 172.5a.5.5 0 0 1-.5-.5v-11a.5.5 0 0 0-.5-.5h-2.07a.5.5 0 0 0-.5.5l.1 14a.5.5 0 0 0 .5.5h7.19a.5.5 0 0 0 .49-.41l.38-2a.5.5 0 0 0-.49-.59h-4.6M192.48 161.18a.68.68 0 0 0-.68-.68h-8.38a.68.68 0 0 0-.68.68v1.64a.68.68 0 0 0 .68.68h8.38a.68.68 0 0 0 .68-.68v-1.64M206.49 171.21c1.7 1.84 2 5.19 5.54 4.2q.62-.17.28-.72l-3.84-6.26a.71.71 0 0 1 0-.76l4.02-6.46q.28-.44-.22-.6c-3.4-1.07-4.41 2.11-5.65 4.34q-.31.56-.68.04c-1.31-1.83-3.05-5.66-5.89-4.26q-.39.19-.16.56l3.87 6.45q.22.35 0 .71l-3.9 6.4q-.22.37.19.51c2.98 1.01 4.3-1.62 5.57-4.04q.35-.66.87-.11M186.6 172.5a.6.6 0 0 1-.6-.6v-1.8a.6.6 0 0 1 .6-.6h4.56a.6.6 0 0 0 .6-.61l-.03-1.8a.6.6 0 0 0-.6-.59h-7.78a.6.6 0 0 0-.6.6v7.8a.6.6 0 0 0 .6.6h8.59a.6.6 0 0 0 .6-.68l-.24-1.8a.6.6 0 0 0-.6-.52h-5.1M132.53 182.6l-.09-2.69a.47.46-43.6 0 0-.93-.02l-.35 3.94q-.06.73.67.79l1.69.14a.51.51 0 0 0 .28-.97l-.78-.41q-.47-.25-.49-.78M141.69 182.1a2.5 2.5 0 0 0-2.5-2.5 2.5 2.5 0 0 0-2.5 2.5 2.5 2.5 0 0 0 2.5 2.5 2.5 2.5 0 0 0 2.5-2.5M153.75 183.57v-1.03q0-.65-.61-.42-1.04.4-.87-1.04.05-.47.46-.23l.33.2q.43.26.65-.19l.18-.39q.27-.56-.35-.66l-1.64-.24a.79.78 4.2 0 0-.9.77v3.41a1.56 1.31 57.9 0 0 2.71.88q.07-.25.05-.74-.01-.16-.01-.32" vector-effect="non-scaling-stroke"/><path stroke="#9a9a9a" d="M167.17 184.73a2.61.65 90 0 0 .65-2.61 2.61.65 90 0 0-.65-2.61 2.61.65 90 0 0-.65 2.61 2.61.65 90 0 0 .65 2.61M174.04 180.37q-1.36-1.23-3.01-.44-.56.27-.55.89l.07 3.49a.45.45 0 0 0 .89.06q.24-1.52 1.86-1.71a1.32 1.32 0 0 0 .74-2.29M183.38 182.68l-.2-2.81q-.01-.12-.13-.12h-.26q-.33 0-.42.32-.58 2.14.46 3.94a1.57 1.57 0 0 0 2.85-.28q.65-1.94.1-3.89a.36.36 0 0 0-.71.09l-.11 2.72a.79.79 0 0 1-1.58.03M146.42 183.39l.74 1.25q.11.19.31.12.14-.05.26-.1a.43.43 0 0 0 .2-.63q-.86-1.34.01-2.62a.79.78 36.4 0 0-.16-1.04q-1.15-.93-2.7-.6-.51.11-.53.64l-.15 3.63a.46.45 56.4 0 0 .88.18l.28-.76q.35-.95.86-.07M178.02 182.53q-.21.75-1.01.72a.49.48-21.7 0 0-.36.83q1.52 1.47 2.78-.18a1.12 1.12 0 0 0-.42-1.7q-1.36-.63-.16-1.66.58-.5-.16-.69-1.62-.43-1.93.92-.23 1.03.93 1.22.46.08.33.54M190.27 181.53l-.52-1.03q-.73-1.41-.79.18l-.14 3.57a.48.48 0 0 0 .93.16q.5-1.54 2.05-.98.4.14.7.44l.62.63a.31.3 21.9 0 0 .52-.22l-.06-3.61a.37.37 0 0 0-.66-.22l-.94 1.23a1.01 1.01 0 0 1-1.71-.15M160.89 183.62l-.04.26q-.05.37.09.54.1.13.26.17.42.1.42-.33l.01-3.57a.33.33 0 0 0-.57-.22l-1.42 1.55a.52.51-42.4 0 1-.79-.03l-1.13-1.45a.37.37 0 0 0-.66.2l-.23 3.48a.43.42-29.4 0 0 .8.22q.91-1.74 3.13-1.03.16.05.13.21M119.364 164.865a.96.96 0 0 0-.903-1.014l-2.376-.137a.96.96 0 0 0-1.014.903l-.075 1.298a.96.96 0 0 0 .903 1.014l2.376.137a.96.96 0 0 0 1.014-.903l.075-1.298M140.67 182.09a1.48 1.48 0 0 0-1.48-1.48 1.48 1.48 0 0 0-1.48 1.48 1.48 1.48 0 0 0 1.48 1.48 1.48 1.48 0 0 0 1.48-1.48M151.99 183.5q.01.17.01.35-.01.45.37.2l.68-.45a.5.5 0 0 0-.36-.91q-.31.06-.43.23a.9.19-53.3 0 0-.27.58" vector-effect="non-scaling-stroke"/><path stroke="#9a9a9a" d="M172.254 182.1a.79.54 89.7 0 0 .536-.793.79.54 89.7 0 0-.544-.787.79.54 89.7 0 0-.536.793.79.54 89.7 0 0 .544.787M145.73 181.12q-.07.32.02.59a.51.51 0 0 0 1-.17v-.31a.52.51-38.6 0 0-1.02-.11" vector-effect="non-scaling-stroke"/></g><path fill="#fff" d="M0 0h325v260H0V0Zm194.29 75.2a.33.33 0 0 0-.27.17l-36.7 63.94a.33.33 0 0 0 .01.33l4.87 8.39a.33.33 0 0 0 .58 0l42.24-72.63a.33.33 0 0 0-.29-.49l-10.44.29Zm-22.65 9.3a.42.42 0 0 1 .36.63l-10.87 18.75a.42.42 0 0 1-.36.21l-6.8-.07a.42.42 0 0 0-.37.63l8.56 14.73a.42.42 0 0 0 .72 0l25.11-43.5a.42.42 0 0 0-.37-.63h-66.68a.42.42 0 0 0-.37.62l4.56 8.41a.42.42 0 0 0 .37.22h46.14Zm-12.24 40.93a.4.4 0 0 0 0-.4l-14.57-25.36a.4.4 0 0 1 .34-.6l13-.37a.4.4 0 0 0 .34-.21l4.71-8.45a.4.4 0 0 0-.35-.6l-33.76.19a.4.4 0 0 0-.35.6l25.11 43.46a.4.4 0 0 0 .69.01l4.84-8.27Zm-42.88 44.77 2.83 4.68q.36.6 1.06.6l1.79.03a.61.6 74.6 0 0 .52-.92l-2.38-3.98a.76.75-40.1 0 1 .08-.87c2.9-3.38 3.25-7.55-1.84-9.14q-1.52-.48-5.97.05-.61.08-.61.69v13.53q0 .63.62.63h2.03q.4 0 .42-.4l.24-4.6a.65.65 0 0 1 1.21-.3Zm24.23 2.81a.48.48 0 0 0-.47-.48l-5.56-.12a.48.48 0 0 1-.47-.48v-1.96a.48.48 0 0 1 .48-.48l4.79.03a.48.48 0 0 0 .48-.48v-2.06a.48.48 0 0 0-.48-.48h-4.79a.48.48 0 0 1-.48-.48v-1.88a.48.48 0 0 1 .47-.48l5.56-.17a.48.48 0 0 0 .47-.48v-2.03a.48.48 0 0 0-.48-.48h-8.86a.48.48 0 0 0-.48.49l.24 14.04a.48.48 0 0 0 .48.47h8.62a.48.48 0 0 0 .48-.48v-2.01Zm12.1-6.51a.6.6 0 0 1-.6-.6v-1.81a.6.6 0 0 1 .6-.6l5.31.02a.6.6 0 0 0 .6-.61l-.03-1.81a.6.6 0 0 0-.6-.59h-8.56a.6.6 0 0 0-.6.6l.08 13.8a.6.6 0 0 0 .6.6h2a.6.6 0 0 0 .6-.6v-4.8a.6.6 0 0 1 .6-.6h4.56a.6.6 0 0 0 .6-.61l-.03-1.8a.6.6 0 0 0-.6-.59h-4.53Zm17.4 6a.5.5 0 0 1-.5-.5v-11a.5.5 0 0 0-.5-.5h-2.07a.5.5 0 0 0-.5.5l.1 14a.5.5 0 0 0 .5.5h7.19a.5.5 0 0 0 .49-.41l.38-2a.5.5 0 0 0-.49-.59h-4.6Zm22.23-11.32a.68.68 0 0 0-.68-.68h-8.38a.68.68 0 0 0-.68.68v1.64a.68.68 0 0 0 .68.68h8.38a.68.68 0 0 0 .68-.68v-1.64Zm14.01 10.03c1.7 1.84 2 5.19 5.54 4.2q.62-.17.28-.72l-3.84-6.26a.71.71 0 0 1 0-.76l4.02-6.46q.28-.44-.22-.6c-3.4-1.07-4.41 2.11-5.65 4.34q-.31.56-.68.04c-1.31-1.83-3.05-5.66-5.89-4.26q-.39.19-.16.56l3.87 6.45q.22.35 0 .71l-3.9 6.4q-.22.37.19.51c2.98 1.01 4.3-1.62 5.57-4.04q.35-.66.87-.11Zm-19.89 1.29a.6.6 0 0 1-.6-.6v-1.8a.6.6 0 0 1 .6-.6h4.56a.6.6 0 0 0 .6-.61l-.03-1.8a.6.6 0 0 0-.6-.59h-7.78a.6.6 0 0 0-.6.6v7.8a.6.6 0 0 0 .6.6h8.59a.6.6 0 0 0 .6-.68l-.24-1.8a.6.6 0 0 0-.6-.52h-5.1Zm-54.07 10.1-.09-2.69a.47.46-43.6 0 0-.93-.02l-.35 3.94q-.06.73.67.79l1.69.14a.51.51 0 0 0 .28-.97l-.78-.41q-.47-.25-.49-.78Zm9.16-.5a2.5 2.5 0 0 0-2.5-2.5 2.5 2.5 0 0 0-2.5 2.5 2.5 2.5 0 0 0 2.5 2.5 2.5 2.5 0 0 0 2.5-2.5Zm12.06 1.47v-1.03q0-.65-.61-.42-1.04.4-.87-1.04.05-.47.46-.23l.33.2q.43.26.65-.19l.18-.39q.27-.56-.35-.66l-1.64-.24a.79.78 4.2 0 0-.9.77v3.41a1.56 1.31 57.9 0 0 2.71.88q.07-.25.05-.74-.01-.16-.01-.32Zm13.42 1.16a2.61.65 90 0 0 .65-2.61 2.61.65 90 0 0-.65-2.61 2.61.65 90 0 0-.65 2.61 2.61.65 90 0 0 .65 2.61Zm6.87-4.36q-1.36-1.23-3.01-.44-.56.27-.55.89l.07 3.49a.45.45 0 0 0 .89.06q.24-1.52 1.86-1.71a1.32 1.32 0 0 0 .74-2.29Zm9.34 2.31-.2-2.81q-.01-.12-.13-.12h-.26q-.33 0-.42.32-.58 2.14.46 3.94a1.57 1.57 0 0 0 2.85-.28q.65-1.94.1-3.89a.36.36 0 0 0-.71.09l-.11 2.72a.79.79 0 0 1-1.58.03Zm-36.96.71.74 1.25q.11.19.31.12.14-.05.26-.1a.43.43 0 0 0 .2-.63q-.86-1.34.01-2.62a.79.78 36.4 0 0-.16-1.04q-1.15-.93-2.7-.6-.51.11-.53.64l-.15 3.63a.46.45 56.4 0 0 .88.18l.28-.76q.35-.95.86-.07Zm31.6-.86q-.21.75-1.01.72a.49.48-21.7 0 0-.36.83q1.52 1.47 2.78-.18a1.12 1.12 0 0 0-.42-1.7q-1.36-.63-.16-1.66.58-.5-.16-.69-1.62-.43-1.93.92-.23 1.03.93 1.22.46.08.33.54Zm12.25-1-.52-1.03q-.73-1.41-.79.18l-.14 3.57a.48.48 0 0 0 .93.16q.5-1.54 2.05-.98.4.14.7.44l.62.63a.31.3 21.9 0 0 .52-.22l-.06-3.61a.37.37 0 0 0-.66-.22l-.94 1.23a1.01 1.01 0 0 1-1.71-.15Zm-29.38 2.09-.04.26q-.05.37.09.54.1.13.26.17.42.1.42-.33l.01-3.57a.33.33 0 0 0-.57-.22l-1.42 1.55a.52.51-42.4 0 1-.79-.03l-1.13-1.45a.37.37 0 0 0-.66.2l-.23 3.48a.43.42-29.4 0 0 .8.22q.91-1.74 3.13-1.03.16.05.13.21Z"/><path fill="#343434" d="m194.29 75.2 10.44-.29a.33.33 0 0 1 .29.49l-42.24 72.63a.33.33 0 0 1-.58 0l-4.87-8.39a.33.33 0 0 1-.01-.33l36.7-63.94a.33.33 0 0 1 .27-.17Z"/><path fill="#1d87d4" d="M171.64 84.5H125.5a.42.42 0 0 1-.37-.22l-4.56-8.41a.42.42 0 0 1 .37-.62h66.68a.42.42 0 0 1 .37.63l-25.11 43.5a.42.42 0 0 1-.72 0l-8.56-14.73a.42.42 0 0 1 .37-.63l6.8.07a.42.42 0 0 0 .36-.21L172 85.13a.42.42 0 0 0-.36-.63Z"/><path fill="#1d87d4" d="m159.4 125.43-4.84 8.27a.4.4 0 0 1-.69-.01l-25.11-43.46a.4.4 0 0 1 .35-.6l33.76-.19a.4.4 0 0 1 .35.6l-4.71 8.45a.4.4 0 0 1-.34.21l-13 .37a.4.4 0 0 0-.34.6l14.57 25.36a.4.4 0 0 1 0 .4Z"/><path fill="#343434" d="m115.31 170.5-.24 4.6q-.02.4-.42.4h-2.03q-.62 0-.62-.63v-13.53q0-.61.61-.69 4.45-.53 5.97-.05c5.09 1.59 4.74 5.76 1.84 9.14a.76.75-40.1 0 0-.08.87l2.38 3.98a.61.6 74.6 0 1-.52.92l-1.79-.03q-.7 0-1.06-.6l-2.83-4.68a.65.65 0 0 0-1.21.3Zm4.054-5.635a.96.96 0 0 0-.903-1.014l-2.376-.137a.96.96 0 0 0-1.014.903l-.075 1.298a.96.96 0 0 0 .903 1.014l2.376.137a.96.96 0 0 0 1.014-.903l.075-1.298ZM140.75 173.01v2.01a.48.48 0 0 1-.48.48h-8.62a.48.48 0 0 1-.48-.47l-.24-14.04a.48.48 0 0 1 .48-.49h8.86a.48.48 0 0 1 .48.48v2.03a.48.48 0 0 1-.47.48l-5.56.17a.48.48 0 0 0-.47.48v1.88a.48.48 0 0 0 .48.48h4.79a.48.48 0 0 1 .48.48v2.06a.48.48 0 0 1-.48.48l-4.79-.03a.48.48 0 0 0-.48.48v1.96a.48.48 0 0 0 .47.48l5.56.12a.48.48 0 0 1 .47.48ZM152.85 166.5h4.53a.6.6 0 0 1 .6.59l.03 1.8a.6.6 0 0 1-.6.61h-4.56a.6.6 0 0 0-.6.6v4.8a.6.6 0 0 1-.6.6h-2a.6.6 0 0 1-.6-.6l-.08-13.8a.6.6 0 0 1 .6-.6h8.56a.6.6 0 0 1 .6.59l.03 1.81a.6.6 0 0 1-.6.61l-5.31-.02a.6.6 0 0 0-.6.6v1.81a.6.6 0 0 0 .6.6ZM170.25 172.5h4.6a.5.5 0 0 1 .49.59l-.38 2a.5.5 0 0 1-.49.41h-7.19a.5.5 0 0 1-.5-.5l-.1-14a.5.5 0 0 1 .5-.5h2.07a.5.5 0 0 1 .5.5v11a.5.5 0 0 0 .5.5Z"/><rect width="9.74" height="3" x="182.74" y="160.5" fill="#343434" rx=".68"/><path fill="#343434" d="M205.62 171.32c-1.27 2.42-2.59 5.05-5.57 4.04q-.41-.14-.19-.51l3.9-6.4q.22-.36 0-.71l-3.87-6.45q-.23-.37.16-.56c2.84-1.4 4.58 2.43 5.89 4.26q.37.52.68-.04c1.24-2.23 2.25-5.41 5.65-4.34q.5.16.22.6l-4.02 6.46a.71.71 0 0 0 0 .76l3.84 6.26q.34.55-.28.72c-3.54.99-3.84-2.36-5.54-4.2q-.52-.55-.87.11Z"/><rect width="4.3" height="3.22" x="-2.15" y="-1.61" fill="#fff" rx=".96" transform="rotate(3.3 -2812.176 2116.654)"/><path fill="#343434" d="M186.6 172.5h5.1a.6.6 0 0 1 .6.52l.24 1.8a.6.6 0 0 1-.6.68h-8.59a.6.6 0 0 1-.6-.6v-7.8a.6.6 0 0 1 .6-.6h7.78a.6.6 0 0 1 .6.59l.03 1.8a.6.6 0 0 1-.6.61h-4.56a.6.6 0 0 0-.6.6v1.8a.6.6 0 0 0 .6.6ZM133.02 183.38l.78.41a.51.51 0 0 1-.28.97l-1.69-.14q-.73-.06-.67-.79l.35-3.94a.47.46-43.6 0 1 .93.02l.09 2.69q.02.53.49.78ZM141.69 182.1a2.5 2.5 0 0 1-2.5 2.5 2.5 2.5 0 0 1-2.5-2.5 2.5 2.5 0 0 1 2.5-2.5 2.5 2.5 0 0 1 2.5 2.5Zm-1.02-.01a1.48 1.48 0 0 0-1.48-1.48 1.48 1.48 0 0 0-1.48 1.48 1.48 1.48 0 0 0 1.48 1.48 1.48 1.48 0 0 0 1.48-1.48ZM153.76 183.89q.02.49-.05.74a1.56 1.31 57.9 0 1-2.71-.88v-3.41a.79.78 4.2 0 1 .9-.77l1.64.24q.62.1.35.66l-.18.39q-.22.45-.65.19l-.33-.2q-.41-.24-.46.23-.17 1.44.87 1.04.61-.23.61.42v1.03q0 .16.01.32Zm-1.77-.39q.01.17.01.35-.01.45.37.2l.68-.45a.5.5 0 0 0-.36-.91q-.31.06-.43.23a.9.19-53.3 0 0-.27.58Z"/><ellipse fill="#343434" rx="2.61" ry=".65" transform="rotate(90 -7.475 174.645)"/><path fill="#343434" d="M174.04 180.37a1.32 1.32 0 0 1-.74 2.29q-1.62.19-1.86 1.71a.45.45 0 0 1-.89-.06l-.07-3.49q-.01-.62.55-.89 1.65-.79 3.01.44Zm-1.786 1.73a.79.54 89.7 0 0 .536-.793.79.54 89.7 0 0-.544-.787.79.54 89.7 0 0-.536.793.79.54 89.7 0 0 .544.787ZM183.38 182.68a.79.79 0 0 0 1.58-.03l.11-2.72a.36.36 0 0 1 .71-.09q.55 1.95-.1 3.89a1.57 1.57 0 0 1-2.85.28q-1.04-1.8-.46-3.94.09-.32.42-.32h.26q.12 0 .13.12l.2 2.81ZM145.56 183.46l-.28.76a.46.45 56.4 0 1-.88-.18l.15-3.63q.02-.53.53-.64 1.55-.33 2.7.6a.79.78 36.4 0 1 .16 1.04q-.87 1.28-.01 2.62a.43.43 0 0 1-.2.63q-.12.05-.26.1-.2.07-.31-.12l-.74-1.25q-.51-.88-.86.07Zm.17-2.34q-.07.32.02.59a.51.51 0 0 0 1-.17v-.31a.52.51-38.6 0 0-1.02-.11ZM177.69 181.99q-1.16-.19-.93-1.22.31-1.35 1.93-.92.74.19.16.69-1.2 1.03.16 1.66a1.12 1.12 0 0 1 .42 1.7q-1.26 1.65-2.78.18a.49.48-21.7 0 1 .36-.83q.8.03 1.01-.72.13-.46-.33-.54ZM190.27 181.53a1.01 1.01 0 0 0 1.71.15l.94-1.23a.37.37 0 0 1 .66.22l.06 3.61a.31.3 21.9 0 1-.52.22l-.62-.63q-.3-.3-.7-.44-1.55-.56-2.05.98a.48.48 0 0 1-.93-.16l.14-3.57q.06-1.59.79-.18l.52 1.03ZM160.76 183.41q-2.22-.71-3.13 1.03a.43.42-29.4 0 1-.8-.22l.23-3.48a.37.37 0 0 1 .66-.2l1.13 1.45a.52.51-42.4 0 0 .79.03l1.42-1.55a.33.33 0 0 1 .57.22l-.01 3.57q0 .43-.42.33-.16-.04-.26-.17-.14-.17-.09-.54l.04-.26q.03-.16-.13-.21Z"/><circle cx="139.19" cy="182.09" r="1.48" fill="#fff"/><ellipse fill="#fff" rx=".79" ry=".54" transform="rotate(89.7 -5.006 177.232)"/><path fill="#fff" d="M145.73 181.12a.52.51-38.6 0 1 1.02.11v.31a.51.51 0 0 1-1 .17q-.09-.27-.02-.59ZM152.26 182.92q.12-.17.43-.23a.5.5 0 0 1 .36.91l-.68.45q-.38.25-.37-.2 0-.18-.01-.35a.9.19-53.3 0 1 .27-.58Z"/></svg>