<svg xmlns="http://www.w3.org/2000/svg" viewBox="0 0 298 240"><g fill="none" stroke-width="2"><path stroke="#b9b8b9" d="M0 149.94q1.8.9 3-.77.55-.77-.39-.66-1.08.13-1.58-.85-.3-.59-.57.01L0 148.69" vector-effect="non-scaling-stroke"/><path stroke="#a5a4a4" d="m45.79 76.25.28 2.23" vector-effect="non-scaling-stroke"/><path stroke="#ececec" d="M46.07 78.48q-.76 13.66-.05 26.83" vector-effect="non-scaling-stroke"/><path stroke="#a5a4a4" d="m46.02 105.31.27 1.94" vector-effect="non-scaling-stroke"/><path stroke="#ececec" d="M46.29 107.25c-1.59 2.93-.62 18.34-.83 22.75" vector-effect="non-scaling-stroke"/><path stroke="#dadadb" d="M45.46 130q-2.22 1.31-2 4" vector-effect="non-scaling-stroke"/><path stroke="#ececec" d="M43.46 134c-.6 1.97-.75 8.42 1.83 9.24a1.28 1.24 82.3 0 1 .7.55c1.57 2.59 3.93 2.86 5.86 4.46q1.33 1.11 2.68 2.28a1.25 1.23-26.4 0 0 .91.3q2.77-.19 4.74 1.58a1.67 1.59-20.6 0 0 .92.39c2.75.21 4.98 1.79 7.43 2.21 3.47.6 6.46 2.05 10.01 2.02 3.69-.03 7.6.67 11.03.69 3.46.02 7.08.52 10.24.46 3.69-.07 16.64-.06 19.33-1.86a1.67 1.64-61.4 0 1 .92-.28c4.88 0 8.69-.27 13.48-2.3q3.31-1.41 6.96-1.78" vector-effect="non-scaling-stroke"/><path stroke="#d3d3d4" d="M140.5 151.96c14.72 10.71 35.25 13.61 52.75 14" vector-effect="non-scaling-stroke"/><path stroke="#e2e2e2" d="m193.25 165.96.35-.14a1.02 1.01-85.5 0 0 .52-.45q4.47-8.02 7.67-16.62" vector-effect="non-scaling-stroke"/><path stroke="#ececec" d="M201.79 148.75q8.96-23.73 5.69-49.09a.58.58 0 0 0-.78-.47l-2.04.77a.55.54-13.4 0 0-.35.56l.82 8.77a.49.48-77 0 1-.73.46c-1.42-.84-10.76-7.42-11.68-5.96a.61.6 33.4 0 0 .17.82q5.35 3.64 11.29 6.27a.66.66 0 0 1 .05 1.19l-15.61 8.27a.47.47 0 0 1-.67-.55q2.14-7.08 2.31-14.48a.78.77 16.9 0 0-.38-.7q-.56-.33-.88-.82" vector-effect="non-scaling-stroke"/><path stroke="#f18f91" d="M189 103.79q21.05-7.5 42.75-12.83" vector-effect="non-scaling-stroke"/><path stroke="#d18e90" d="m231.75 90.96 23.74-4.76a.4.4 0 0 0 .26-.61q-9.93-15.47-27.25-21.63" vector-effect="non-scaling-stroke"/><path stroke="#f18f91" d="M228.5 63.96c-11.43-4.53-22.99-6.51-35-8.75" vector-effect="non-scaling-stroke"/><path stroke="#ececec" d="M193.5 55.21c.01-.5.04-1.04-.2-1.5q-5.71-10.49-9.87-21.68" vector-effect="non-scaling-stroke"/><path stroke="#d3d3d4" d="M183.43 32.03c-6.56 2.43-25.77 8.86-28.64 14.47" vector-effect="non-scaling-stroke"/><path stroke="#f18f91" d="M154.79 46.5q-.34 1.59.91 2.81c4.61 4.52 10.44 9.43 13.6 14.32 12.74 19.65-2.13 40.9-17.01 53.37" vector-effect="non-scaling-stroke"/><path stroke="#ececec" d="M152.29 117q.29-5.05-.58-10" vector-effect="non-scaling-stroke"/><path stroke="#a5a4a4" d="m151.71 107 .25-1.75" vector-effect="non-scaling-stroke"/><path stroke="#ececec" d="M151.96 105.25q.75-13.38-.04-26.77" vector-effect="non-scaling-stroke"/><path stroke="#a5a4a4" d="m151.92 78.48.08-1.89" vector-effect="non-scaling-stroke"/><path stroke="#ececec" d="M152 76.59q.65-13.98-.04-28.34" vector-effect="non-scaling-stroke"/><path stroke="#d3d3d4" d="M151.96 48.25c1.42-6.15-3.51-10.8-8.8-12.57" vector-effect="non-scaling-stroke"/><path stroke="#dadadb" d="M143.16 35.68q-4.58-2.72-9.43-3.76" vector-effect="non-scaling-stroke"/><path stroke="#e2e2e2" d="M133.73 31.92q-5.34-1.79-10.96-2.43" vector-effect="non-scaling-stroke"/><path stroke="#ececec" d="M122.77 29.49q-23.91-4.5-50.75.6c-8.82 1.68-26.24 5.79-26.27 16.65q-.03 14.77.04 29.51" vector-effect="non-scaling-stroke"/><path stroke="#cececf" d="M122.77 29.49q-8.3 5.43-17.31 9.52-7.1 3.22-10.26 4.85c-4.32 2.23-8.73 4.7-13.27 6.44q-1.61.62-3.08 1.54c-3.12 1.95-6.06 2.8-9.08 4.64a.58.58 0 0 0 .22 1.07l10.67 1.5" vector-effect="non-scaling-stroke"/><path stroke="#c7c7c8" d="m80.66 59.05 7.34.91" vector-effect="non-scaling-stroke"/><path stroke="#ececec" d="M88 59.96q-3.12-.6-3.79 2.29" vector-effect="non-scaling-stroke"/><path stroke="#c7c7c8" d="m84.21 62.25-4.11-.57a1.22 1.21-86.1 0 0-1.38 1.21l.03 23.33a.66.66 0 0 0 .59.66l2.87.31q.86.09.23.69-.76.74-1.94.41" vector-effect="non-scaling-stroke"/><path stroke="#919191" d="M80.5 88.29c-12.69-1.62-24.28-4.77-34.71-12.04m106.13 2.23q-1.29.94-1.76 2.27" vector-effect="non-scaling-stroke"/><path stroke="#5e5d5e" d="M150.16 80.75q-1.39-.4-2.41.25-6.84 4.36-15.5 6.96" vector-effect="non-scaling-stroke"/><path stroke="#878787" d="M132.25 87.96 115 91.21" vector-effect="non-scaling-stroke"/><path stroke="#a5a4a4" d="M115 91.21q-13.74 1.2-27.5.33" vector-effect="non-scaling-stroke"/><path stroke="#807f80" d="m87.5 91.54-15.75-2.08" vector-effect="non-scaling-stroke"/><path stroke="#5e5d5e" d="M71.75 89.46q-10.89-2.15-20.44-7.77-.73-.43-2.31.1" vector-effect="non-scaling-stroke"/><path stroke="#919191" d="m49 81.79-2.93-3.31" vector-effect="non-scaling-stroke"/><path stroke="#dadadb" d="m119 61.21-11.88 1.52" vector-effect="non-scaling-stroke"/><path stroke="#d3d3d4" d="m107.12 62.73-14.77.25" vector-effect="non-scaling-stroke"/><path stroke="#dadadb" d="m92.35 62.98-8.14-.73" vector-effect="non-scaling-stroke"/><path stroke="#bdbdbe" d="M133.73 31.92q-8.37 5.3-17.5 9.1-.96.4-2.28 1.28c-1.77 1.19-4.61 2.11-5.95 2.82q-3.99 2.12-8.06 4-.45.21-.95.17-1.38-.12-2.29 1.01-.31.38-.77.57-7.96 3.48-15.27 8.18" vector-effect="non-scaling-stroke"/><path stroke="#aeaeb0" d="M143.16 35.68q-11.97 6.98-24.6 12.6c-2.45 1.09-5.74 3.32-9.1 4.19-1.4.37-3.34 2.55-5.21 3.28q-3.63 1.42-6.81 3.77-.38.28.09.37l1.72.32" vector-effect="non-scaling-stroke"/><path stroke="#dadadb" d="M99.25 60.21 88 59.96" vector-effect="non-scaling-stroke"/><path stroke="#807f80" d="M122.19 87.77q-20.71 3.29-41.69.52" vector-effect="non-scaling-stroke"/><path stroke="#aeaeb0" d="M92.35 62.98q1.64 11.77.49 23.51-.04.36-.19.71a.91.91 0 0 0 .82 1.27l11.49.17a1.51 1.51 0 0 0 1.53-1.56q-.4-12.23.63-24.35" vector-effect="non-scaling-stroke"/><path stroke="#949395" d="M71.75 89.46q-1.78-.4-2.29 1.04" vector-effect="non-scaling-stroke"/><path stroke="#dadadb" d="M87.5 91.54q-1.35-.07-2.62.55-.48.24.05.35c7.96 1.8 18.33 1.35 25.78.56" vector-effect="non-scaling-stroke"/><path stroke="#807f80" d="M110 117.71q-11.76 1.3-23.5-.17" vector-effect="non-scaling-stroke"/><path stroke="#bdbdbe" d="M86.5 117.54q.31-.23.4-.46a.46.46 0 0 0-.39-.61l-4.71-.46a1.71 1.71 0 0 1-1.54-1.7l-.01-19.82a1.07 1.07 0 0 0-.36-.8c-2.2-1.97-6.23-2.34-9.14-2.65" vector-effect="non-scaling-stroke"/><path stroke="#a5a5a6" d="M49 81.79q9.1 6.89 20.46 8.71" vector-effect="non-scaling-stroke"/><path stroke="#c7c7c8" d="m69.46 90.5 1.29.54" vector-effect="non-scaling-stroke"/><path stroke="#cececf" d="M70.75 91.04c-.19 1.6-1.03 2.85-1 4.43q.13 8.99-.23 17.98a.59.58 6.2 0 0 .49.6l8.55 1.41a.34.34 0 0 1 .18.57q-.42.44-.99.51" vector-effect="non-scaling-stroke"/><path stroke="#919191" d="M77.75 116.54c-11.28-1.62-22.05-5.08-31.73-11.23" vector-effect="non-scaling-stroke"/><path stroke="#9b9b9c" d="m134.5 88.79-2.25-.83" vector-effect="non-scaling-stroke"/><path stroke="#878787" d="M120.25 116.54 110 117.71" vector-effect="non-scaling-stroke"/><path stroke="#bdbdbe" d="M110 117.71q-.13-1.4 1.07-1.71a.58.57 82.9 0 0 .43-.56V94.09a.94.93-70.8 0 0-.35-.73l-.44-.36" vector-effect="non-scaling-stroke"/><path stroke="#e2e2e2" d="m110.71 93 5.21-.77a.43.42 81.3 0 0 .35-.49c-.08-.49-.81-.57-1.27-.53" vector-effect="non-scaling-stroke"/><path stroke="#919191" d="M152 76.59q-8.25 5.52-18.24 8.43-6.41 1.87-11.57 2.75" vector-effect="non-scaling-stroke"/><path stroke="#c7c7c8" d="M122.19 87.77q.19-11.99.07-23.85c-.02-2.18-1.05-3.19-3.26-2.71" vector-effect="non-scaling-stroke"/><path stroke="#ececec" d="m119 61.21 8.3-2.78q1.01-.34-.05-.29l-1.5.07" vector-effect="non-scaling-stroke"/><path stroke="#919191" d="M151.96 105.25q-14.53 9.27-31.71 11.29" vector-effect="non-scaling-stroke"/><path stroke="#cececf" d="m120.25 116.54-.81-.05a.54.54 0 0 1-.5-.56c.08-1.83 5.69.96 5.32-4.45q-.27-3.96.16-19.31a.66.65 82.9 0 1 .48-.62l9.6-2.76" vector-effect="non-scaling-stroke"/><path stroke="#a5a5a6" d="M134.5 88.79q8.97-1.88 15.66-8.04" vector-effect="non-scaling-stroke"/><path stroke="#bfbfc1" d="m151.96 48.25-4.59 4.37a.54.53 24.3 0 1-.35.13h-.28a.23.23 0 0 1-.23-.23v-1.18a.42.42 0 0 0-.6-.38q-9.69 4.71-20.16 7.25" vector-effect="non-scaling-stroke"/><path stroke="#d3d3d4" d="M125.75 58.21q-13.16 2.18-26.5 2" vector-effect="non-scaling-stroke"/><path stroke="#919191" d="m151.71 107-2.71 3.29" vector-effect="non-scaling-stroke"/><path stroke="#5e5d5e" d="M149 110.29c-1.17-.11-2.07-.22-3.13.46-6.18 3.92-12.17 5.51-20.12 7.46" vector-effect="non-scaling-stroke"/><path stroke="#878787" d="m125.75 118.21-7 1.25" vector-effect="non-scaling-stroke"/><path stroke="#a5a4a4" d="M118.75 119.46q-14.34 1.62-28.75.83" vector-effect="non-scaling-stroke"/><path stroke="#878787" d="m90 120.29-17.5-2" vector-effect="non-scaling-stroke"/><path stroke="#5e5d5e" d="M72.5 118.29q-10.59-2.15-20.17-7.12a1.11 1.1 46.6 0 0-.93-.03l-.9.4" vector-effect="non-scaling-stroke"/><path stroke="#919191" d="M50.5 111.54q-2.47-1.78-4.21-4.29" vector-effect="non-scaling-stroke"/><path stroke="#878787" d="m86.5 117.54-8.75-1" vector-effect="non-scaling-stroke"/><path stroke="#a5a5a6" d="M50.5 111.54q9.62 6.57 21.25 7.92" vector-effect="non-scaling-stroke"/><path stroke="#cececf" d="M71.75 119.46q.45 1.36-.52 2.45a1.4 1.4 0 0 0-.34.86c-.16 5.42.34 18.42-.6 19.51a.37.37 0 0 0 .11.57q2.76 1.46 5.95 1.38c.18-.01.41.1.51.22a.39.38 58.7 0 1-.14.59q-.69.3-1.47.25" vector-effect="non-scaling-stroke"/><path stroke="#919191" d="M75.25 145.29c-9.25-1.48-22.2-4.67-28.5-11.83" vector-effect="non-scaling-stroke"/><path stroke="#c7c7c8" d="m46.75 133.46.09-.56q.15-.9-.54-.3l-.74.63q-.48.42-.41-.22l.31-3.01" vector-effect="non-scaling-stroke"/><path stroke="#bfbfc1" d="M144.21 124.25c-6.04 4.73-11.17 10.65-10.75 18.75" vector-effect="non-scaling-stroke"/><path stroke="#919191" d="m133.46 143-8.96 2.04" vector-effect="non-scaling-stroke"/><path stroke="#cececf" d="M124.5 145.04q-1.56.34-2.86-.37-.65-.36.08-.46l2.5-.34a.64.64 0 0 0 .55-.7q-.98-10.34-.36-20.74.05-.84-.21-1.62a.47.46-18.6 0 1 .29-.58l2.01-.69" vector-effect="non-scaling-stroke"/><path stroke="#a5a5a6" d="M126.5 119.54c7.49-1.19 16.82-4.02 22.5-9.25" vector-effect="non-scaling-stroke"/><path stroke="#e2e2e2" d="M90 120.29q-1.94-.28-2.5 1.17" vector-effect="non-scaling-stroke"/><path stroke="#bdbdbe" d="m87.5 121.46-3.65-.16a.78.77-88.2 0 0-.81.77l-.13 22.43a.46.46 0 0 0 .35.46l1.14.29a.48.47-83 0 1 .35.46v.32a.49.48-3.3 0 1-.43.48l-.32.03" vector-effect="non-scaling-stroke"/><path stroke="#878787" d="m84 146.54-8.75-1.25" vector-effect="non-scaling-stroke"/><path stroke="#9b9b9c" d="m72.5 118.29-.75 1.17" vector-effect="non-scaling-stroke"/><path stroke="#878787" d="m124.5 145.04-10.75 1.5" vector-effect="non-scaling-stroke"/><path stroke="#bdbdbe" d="M113.75 146.54q-.75.22-1.25-.17a.51.51 0 0 1 .02-.83l.79-.55a1 .99 71.8 0 0 .43-.86c-.28-6.72-1.41-16.63.97-22.88" vector-effect="non-scaling-stroke"/><path stroke="#e2e2e2" d="m114.71 121.25 3.87-.8a.79.79 0 0 0 .53-.41l.13-.27a.17.17 0 0 0-.13-.25l-.36-.06" vector-effect="non-scaling-stroke"/><path stroke="#9b9b9c" d="m126.5 119.54-.75-1.33" vector-effect="non-scaling-stroke"/><path stroke="#dadadb" d="m114.71 121.25-10.04.97" vector-effect="non-scaling-stroke"/><path stroke="#d3d3d4" d="m104.67 122.22-10.42-.01" vector-effect="non-scaling-stroke"/><path stroke="#dadadb" d="m94.25 122.21-6.75-.75" vector-effect="non-scaling-stroke"/><path stroke="#5e5d5e" d="M135.5 147.54q-4.36.05-8.54 1.2c-3.22.89-6.23 1.02-9.4 1.61-16.08 3.01-34.35 1.13-50.46-2.39-7.13-1.55-14.53-4.02-19.31-10.46" vector-effect="non-scaling-stroke"/><path stroke="#807f80" d="M46.75 133.46q-.59 2.27 1.04 4.04" vector-effect="non-scaling-stroke"/><path stroke="#949395" d="M47.79 137.5c.87 11.05 28.06 14.24 38.46 15.46" vector-effect="non-scaling-stroke"/><path stroke="#c7c7c8" d="m94 154.96 8.69.18q.9.02 0 .04-6.43.17-18.69-.19-4.18-.12-7.38-1.38c-2.04-.81-4.19-.13-6.47-.78q-6.5-1.86-13.01-3.65-3.03-.83-5.17-2.47c-4.03-3.08-7.76-5.94-7.55-11.64q.03-.55-.17-.04-.43 1.14-.36 2.41.02.46-.03.01l-.4-3.45" vector-effect="non-scaling-stroke"/><path stroke="#d3d3d4" d="m154.25 138.04.25-.08m1.75 1.33-9.3 12.01a.45.45 0 0 0 .51.7l14.79-5.04m1 2-13.92 3.93a.32.32 0 0 0-.08.59q6.66 3.88 14.08 5.95a.77.76 25.7 0 0 .82-.28l1.39-1.9m2.25.5q-.87.87-1.31 1.97-.2.51.33.38l5.69-1.39m0 1.5-2.28.58q-.66.17 0 .32 11.27 2.58 22.78 3.6" vector-effect="non-scaling-stroke"/><path stroke="#bfbfc1" d="m140.5 151.96-3.27-2.51a.88.87-37.7 0 0-.89-.11q-5.14 2.23-10.74 2.71a1.26 1.25-69.3 0 0-.76.35c-1.03 1.01-12.27 1.86-13.18 1.97-5.38.61-11.76.23-17.66.59" vector-effect="non-scaling-stroke"/><path stroke="#aeaeb0" d="M94 154.96q-.41.02-.78-.17-.57-.29.07-.25 2.2.11 4.41-.24 1.41-.22-.02-.28l-12.92-.52q-.62-.02-.09-.35.67-.43 1.58-.19" vector-effect="non-scaling-stroke"/><path stroke="#8c8c8e" d="M86.25 152.96c9.02.68 19.62.79 29.45-.66 7-1.04 13.26-1.74 19.8-4.76" vector-effect="non-scaling-stroke"/><path stroke="#787879" d="m135.5 147.54-2.04-4.54" vector-effect="non-scaling-stroke"/><path stroke="#f18f91" d="m180 53.21 11.25 1.75" vector-effect="non-scaling-stroke"/><path stroke="#c31d22" d="M228.5 63.96q-2.17.63-1.5 3" vector-effect="non-scaling-stroke"/><path stroke="#f18f91" d="m227 66.96-14.57-4.64a.52.51-76.8 0 0-.67.42q-.99 7.19-4.17 13.68a.27.27 0 0 0 .33.38l13.83-4.84" vector-effect="non-scaling-stroke"/><path stroke="#c31d22" d="M221.75 71.96q1.41.6 1 2" vector-effect="non-scaling-stroke"/><path stroke="#f18f91" d="m222.75 73.96-14.62 5.74a.32.32 0 0 0-.08.55q5.65 4.47 9.76 10.38a.43.42-42.9 0 0 .68.02l9.8-12.15" vector-effect="non-scaling-stroke"/><path stroke="#c31d22" d="M228.29 78.5q.72 1.32 2 1.75" vector-effect="non-scaling-stroke"/><path stroke="#f18f91" d="M230.29 80.25q-3.81 5.27-8.77 9.64a.36.36 0 0 0 .32.62l9.91-2.22" vector-effect="non-scaling-stroke"/><path stroke="#c31d22" d="M231.75 88.29v2.67" vector-effect="non-scaling-stroke"/><path stroke="#de7b7e" d="m189 103.79-1.5.5" vector-effect="non-scaling-stroke"/><path stroke="#f18f91" d="m187.5 104.29-11.39 4.44" vector-effect="non-scaling-stroke"/><path stroke="#de7b7e" d="M176.11 108.73q-.92.32-1.4.77" vector-effect="non-scaling-stroke"/><path stroke="#f18f91" d="M174.71 109.5q-8.46 3.03-16.25 7.5" vector-effect="non-scaling-stroke"/><path stroke="#d47174" d="m158.46 117-3.46 1.71" vector-effect="non-scaling-stroke"/><path stroke="#f18f91" d="m155 118.71-3.04 1.79" vector-effect="non-scaling-stroke"/><path stroke="#de7b7e" d="M151.96 120.5q-3.86 1.71-7.21 4.29" vector-effect="non-scaling-stroke"/><path stroke="#c56266" d="m144.75 124.79-.54-.54" vector-effect="non-scaling-stroke"/><path stroke="#de7b7e" d="m144.21 124.25 8.08-7.25" vector-effect="non-scaling-stroke"/><path stroke="#aeaeb0" d="M94.25 122.21q-1.53-.23-1.47.7.81 13.41.23 22.59a.46.45 6.4 0 0 .38.47q5.21.88 10.37-.06a.54.54 0 0 0 .44-.52l.47-23.17" vector-effect="non-scaling-stroke"/><path stroke="#807f80" d="M113.75 146.54q-14.87 1.64-29.75 0" vector-effect="non-scaling-stroke"/><path stroke="#bfbfc1" d="m152.75 132.46-14.58 4.21a.55.55 0 0 1-.67-.73q2.48-6.4 7.25-11.15" vector-effect="non-scaling-stroke"/><path stroke="#e2e2e2" d="m176.75 127.96-13.43 4.19a.48.47 60.4 0 0-.21.77q4.82 5.42 11.06 9.15a.8.8 0 0 0 .91-.07q.33-.26.46-.75m2.96 2.73q8.94 4.62 19.06 6.16a.64.61 13.9 0 0 .69-.4l.79-2.24" vector-effect="non-scaling-stroke"/><path stroke="#b5b5b7" d="m193.25 165.96-.25-1.25" vector-effect="non-scaling-stroke"/><path stroke="#e2e2e2" d="m193 164.71 4.47-12.15a.22.22 0 0 0-.3-.27q-11.84 5.47-24.67 7.92" vector-effect="non-scaling-stroke"/><path stroke="#b5b5b7" d="M172.5 160.21v-1.5" vector-effect="non-scaling-stroke"/><path stroke="#e2e2e2" d="m172.5 158.71 23.06-6.81a.46.46 0 0 0-.07-.9q-9.75-1.29-18.95-4.72a.56.55 27.1 0 0-.64.2l-8.11 11.27" vector-effect="non-scaling-stroke"/><path stroke="#b5b5b7" d="M167.79 157.75q-.87-1.22-2.25-.5" vector-effect="non-scaling-stroke"/><path stroke="#e2e2e2" d="m165.54 157.25 6.61-10.24a.39.38-81.7 0 0-.43-.58l-8.47 2.53" vector-effect="non-scaling-stroke"/><path stroke="#b5b5b7" d="M163.25 148.96q.24-1.41-1-2" vector-effect="non-scaling-stroke"/><path stroke="#e2e2e2" d="m162.25 146.96 8.12-2.87a.44.43 50.3 0 0 .07-.79q-5.58-3.24-9.8-8.12a.48.47-44.6 0 0-.71 0l-3.68 4.11" vector-effect="non-scaling-stroke"/><path stroke="#b5b5b7" d="M156.25 139.29q-.54-1.13-1.75-1.33" vector-effect="non-scaling-stroke"/><path stroke="#e2e2e2" d="m154.5 137.96 2.49-3.76q.45-.7-.35-.47-2.84.8-3.06 3.96a.3.29 5 0 0 .27.31l.4.04" vector-effect="non-scaling-stroke"/><path stroke="#b5b5b7" d="m154.25 138.04-8.63 12.26a.41.41 0 0 1-.62.06l-1.87-1.79a.41.4-57 0 1-.09-.45c.17-.4 2.35-.21 2.99-.87q3.29-3.44 7.04-9.64a.84.83-49.5 0 0-.07-.98l-.42-.51a.53.52 53.9 0 1 .12-.79c1.01-.62 1.79-2.61.05-2.87" vector-effect="non-scaling-stroke"/><path stroke="#cececf" d="m152.75 132.46.75-.42" vector-effect="non-scaling-stroke"/><path stroke="#e2e2e2" d="M153.5 132.04q1.78-.06 3.44-1a.51.5 61.1 0 0 .19-.68q-2.87-5.24-1.8-10.94c.06-.27-.09-.62-.33-.71" vector-effect="non-scaling-stroke"/><path stroke="#ececec" d="M153.5 132.04c-1.54-.34-1.41-9.79-1.54-11.54" vector-effect="non-scaling-stroke"/><path stroke="#e2e2e2" d="m175 125.46-9.59 2.96q-.62.19-.29-.37 4.73-7.78 8.03-16.29.21-.53-.35-.4-2.57.61-3.34 2.12-3.94 7.75-8.62 14.94a.36.36 0 0 1-.63-.05q-2.28-4.84-1.51-10.03c.09-.58-.05-.83-.24-1.34" vector-effect="non-scaling-stroke"/><path stroke="#d18e90" d="M231.75 88.29q10.27-2.18 20.93-3.19.62-.06.2-.52-7.3-8.09-16.84-13.41a.43.43 0 0 0-.58.17l-5.17 8.91m-2-1.75 5.19-7.1a.43.43 0 0 0-.48-.66l-10.25 3.22" vector-effect="non-scaling-stroke"/><path stroke="#de7b7e" d="m193.5 55.21-2.25-.25" vector-effect="non-scaling-stroke"/><path stroke="#ececec" d="m191.25 54.96-3.75-6.29a.48.48 0 0 0-.68-.15L180 53.21" vector-effect="non-scaling-stroke"/><path stroke="#de7b7e" d="m180 53.21-5.5-.92" vector-effect="non-scaling-stroke"/><path stroke="#ececec" d="M174.5 52.29c3.15.07 8.35-3.5 11.16-5.01a.39.39 0 0 0-.15-.74q-10.08-.78-19.51-3.58" vector-effect="non-scaling-stroke"/><path stroke="#c7c7c8" d="m166 42.96-.5-.25" vector-effect="non-scaling-stroke"/><path stroke="#bfbfc1" d="m165.5 42.71.75-1.25" vector-effect="non-scaling-stroke"/><path stroke="#ececec" d="m166.25 41.46 19.25 3.38a.41.41 0 0 0 .45-.56c-.48-1.2-2.9-10.56-3.2-10.57" vector-effect="non-scaling-stroke"/><path stroke="#bfbfc1" d="m182.75 33.71.68-1.68" vector-effect="non-scaling-stroke"/><path stroke="#f18f91" d="m174.5 52.29-.5-.08m-3.75-.75q-6.22-.67-12.04-2.96" vector-effect="non-scaling-stroke"/><path stroke="#d18e90" d="m227 66.96 4.75 1.86a.33.33 0 0 1-.04.62l-9.96 2.52" vector-effect="non-scaling-stroke"/><path stroke="#d3d3d4" d="M182.75 33.71q-8.63 3.08-16.5 7.75" vector-effect="non-scaling-stroke"/><path stroke="#aeaeb0" d="m165.5 42.71-2.29.54" vector-effect="non-scaling-stroke"/><path stroke="#d3d3d4" d="M163.21 43.25q-3.33 1.84-5 5.25" vector-effect="non-scaling-stroke"/><path stroke="#c56266" d="M158.21 48.5q-1.92-.61-3.42-2" vector-effect="non-scaling-stroke"/><path stroke="#dadadb" d="M166 42.96q2.05 3.96 5.7 6.59c1.12.82 1.55 1.58 2.3 2.66" vector-effect="non-scaling-stroke"/><path stroke="#cc6a6d" d="m174 52.21-3.75-.75" vector-effect="non-scaling-stroke"/><path stroke="#dadadb" d="m170.25 51.46-7.04-8.21" vector-effect="non-scaling-stroke"/><path stroke="#cececf" d="M201.79 148.75q-.06-.99-.64-1.64a.73.72 57 0 0-.82-.18l-1.29.57" vector-effect="non-scaling-stroke"/><path stroke="#ececec" d="M199.04 147.5q2.56-7.1 3.87-14.5.09-.48-.35-.28l-24.06 11.26" vector-effect="non-scaling-stroke"/><path stroke="#cececf" d="M178.5 143.98q-.34-2.89-2.96-2.73" vector-effect="non-scaling-stroke"/><path stroke="#ececec" d="m175.54 141.25 7.79-15.51a.38.38 0 0 0-.49-.52l-6.09 2.74" vector-effect="non-scaling-stroke"/><path stroke="#cececf" d="M176.75 127.96q-.32-1.7-1.75-2.5" vector-effect="non-scaling-stroke"/><path stroke="#ececec" d="m175 125.46 8.26-3.01a.55.54-36.1 0 0 .15-.94q-6.16-4.68-8.7-12.01m1.4-.77q3.56 6.14 8.76 10.96a.33.33 0 0 0 .54-.13q2.71-7.44 2.09-15.27" vector-effect="non-scaling-stroke"/><path stroke="gray" d="m118.19 167.56 1.83-.29a.34.34 0 0 0 .24-.52l-.19-.29a.87.86-11.3 0 0-.61-.4l-1.05-.16a.78.77-88.6 0 1-.65-.69q-.28-2.69 2.28-2.67a.56.56 0 0 0 .42-.94c-1.97-2.21-4.58 1.44-4.36 3.48a.61.6 79.7 0 1-.45.66l-1.05.26a.5.49-16 0 0-.35.63q.28.85 1.26.87a.5.49.6 0 1 .49.49v7.07a.66.65-88.6 0 0 .62.66l.61.04a.49.49 0 0 0 .52-.49v-7.2a.52.52 0 0 1 .44-.51m-50.175-5.383a1.18 1.04-15.9 0 0-1.42-.677 1.18 1.04-15.9 0 0-.85 1.323 1.18 1.04-15.9 0 0 1.42.677 1.18 1.04-15.9 0 0 .85-1.323M55.55 172.22l-4.18-9.7a.88.88 0 0 0-.89-.53l-.99.1a.6.59 87.4 0 0-.54.6l.06 12.47a.57.57 0 0 0 .54.57l.5.02a.54.53-89 0 0 .56-.55l-.16-8.96a.38.38 0 0 1 .72-.16l4.1 9.37a.66.66 0 0 0 1.2 0l4.22-9.54q.53-1.2.49.11l-.25 9.14a.55.54 1 0 0 .55.56h.8a.56.56 0 0 0 .55-.56L62.74 163a1.17 1.17 0 0 0-2.24-.47l-4.32 9.69a.35.34-44.8 0 1-.63 0m143.64-7.53q-.3.21.26.9a.12.12 0 0 0 .22-.07l.17-2.74a.54.52 15.6 0 0-.29-.5l-.35-.18q-.87-.44-.55.49.37 1.08.54 2.1m3.15-.29c.03-.6.1-1.8-.7-1.92a.38.37-87.6 0 0-.43.4l.15 2.12a.47.47 0 0 0 .46.44l2.68.04a.35.35 0 0 0 .36-.31l.27-2.51a.21.17-65.7 0 0-.04-.15q-.08-.11-.19-.18a.48.48 0 0 0-.72.37q-.13 1.46-1.26 2.07-.62.33-.58-.37" vector-effect="non-scaling-stroke"/><path stroke="#dadadb" d="M126 167.21q1.24-.1 2 .83" vector-effect="non-scaling-stroke"/><path stroke="#b9b8b9" d="M128 168.04q1.04 2.31 3.25 1.17" vector-effect="non-scaling-stroke"/><path stroke="gray" d="m131.25 169.21 1.29-.96" vector-effect="non-scaling-stroke"/><path stroke="#b9b8b9" d="M132.54 168.25c2.93-2.82-2.23-6.47-4.75-2.75" vector-effect="non-scaling-stroke"/><path stroke="#d3d3d4" d="m127.79 165.5 1.71 1.04" vector-effect="non-scaling-stroke"/><path stroke="gray" d="m129.5 166.54 1.54 1.71" vector-effect="non-scaling-stroke"/><path stroke="#b9b8b9" d="m131.04 168.25-.14.37a.35.35 0 0 1-.5.18l-1.9-1.09" vector-effect="non-scaling-stroke"/><path stroke="#dadadb" d="M128.5 167.71q-.43-1.71-2.21-1.46" vector-effect="non-scaling-stroke"/><path stroke="gray" d="m126.29 166.25-1.77-.48a.66.66 0 0 1-.49-.7l.13-1.35a.48.48 0 0 0-.63-.5l-.66.21a.7.7 0 0 0-.45.89q.55 1.64-.82 1.69a.75.75 0 0 0-.63.37l-.18.29a.34.33-65.6 0 0 .18.49l1.1.39a.63.62-80 0 1 .41.59c.01 2.38-1.17 8.39 3 7.8q.8-.11 1.03-.69a.51.51 0 0 0-.36-.69l-1.29-.28a.72.72 0 0 1-.56-.68l-.18-5.4a.6.59 82 0 1 .44-.59l1.44-.4" vector-effect="non-scaling-stroke"/><path stroke="#5b5b5c" d="m126.29 166.25-.29.96" vector-effect="non-scaling-stroke"/><path stroke="#949395" d="m128.5 167.71-.5.33" vector-effect="non-scaling-stroke"/><path stroke="#39393a" d="m131.25 169.21-.21-.96" vector-effect="non-scaling-stroke"/><path stroke="#bfbfc1" d="m131.25 166.04-.25.25" vector-effect="non-scaling-stroke"/><path stroke="#535355" d="m131 166.29-1.5.25" vector-effect="non-scaling-stroke"/><path stroke="#39393a" d="m132.54 168.25-.29-.29" vector-effect="non-scaling-stroke"/><path stroke="#a5a5a6" d="m132.25 167.96.55-1.08a.69.69 0 0 0-.14-.82q-.59-.54-1.41-.02" vector-effect="non-scaling-stroke"/><path stroke="#8c8c8e" d="m131.25 166.04-.16-.5a.6.59-12.6 0 0-.65-.41l-2.65.37" vector-effect="non-scaling-stroke"/><path stroke="#6c6c6d" d="m132.25 167.96-.57-.08a.67.66 89.9 0 1-.56-.57l-.12-1.02" vector-effect="non-scaling-stroke"/><path stroke="gray" d="M76.66 173.95c-5.77 3.36-7.37-8.82.06-6.28a.47.47 0 0 0 .62-.52l-.06-.44a.86.84 4.6 0 0-.59-.68c-9.59-3.09-7.94 13.87.12 9.5a.85.82-14.7 0 0 .44-.73l.01-.51q.01-.7-.6-.34m4.39-7.57-.78-.55q-.77-.53-.77.4v8.91a.61.6 88.2 0 0 .64.61l.54-.03a.65.64 86.5 0 0 .6-.69c-.18-2.72-.73-8.03 2.84-7.58a.56.56 0 0 0 .63-.59l-.04-.7a.65.64 75.9 0 0-.91-.55l-1.87.85a.93.92 50 0 1-.88-.08m8.524 9.651a5.22 4.89 96 0 0 5.41-4.68 5.22 4.89 96 0 0-4.318-5.702 5.22 4.89 96 0 0-5.41 4.68 5.22 4.89 96 0 0 4.318 5.702m11.116-3.201c.74 1.99-2.37 1.75-3.55 1.08a.45.44-64.5 0 0-.63.23c-.98 2.59 4.48 2.38 6-.3a2 1.99 29.7 0 0-.75-2.71l-3.03-1.73a.89.87-72.6 0 1-.44-.86c.21-1.71 2.03-1.31 3.25-.94a.49.49 0 0 0 .62-.36c.82-3.41-11.89-.43-2.09 4.87a1.38 1.34-86.7 0 1 .62.72m7.698 3.235a5.24 4.89 94.4 0 0 5.278-4.85 5.24 4.89 94.4 0 0-4.474-5.6 5.24 4.89 94.4 0 0-5.278 4.85 5.24 4.89 94.4 0 0 4.474 5.6m-40.622-9.712a.31.31 0 0 0-.31-.31l-1.16-.005a.31.31 0 0 0-.31.309l-.032 9.08a.31.31 0 0 0 .31.31l1.16.005a.31.31 0 0 0 .31-.309l.032-9.08M58.92 213.88c-3.87 1.02-8.02-.48-11.32-2.72q-.57-.38-.58.3l-.03 4.1a.88.87 12.9 0 0 .51.81q6.66 3.1 13.18 1.29c6.12-1.7 9.02-7.53 6.6-13.42-2.67-6.48-17.78-8.85-15-16.76 1.94-5.5 9.81-4.44 13.71-2q.51.31.51-.29v-4.05a.71.7-80.9 0 0-.48-.67c-5.64-1.87-13.19-1.67-16.99 3.43-6.94 9.31 4.73 15.23 10.72 19.13 4.68 3.04 5.5 9.19-.83 10.85" vector-effect="non-scaling-stroke"/><path stroke="gray" d="M94.21 217.46q9.25-2.56 11.72-12c7.6-29.14-30.18-35.87-34.2-10.39-1.87 11.85 3.85 22.24 16.55 23.25a1.31 1.29-17.1 0 1 .87.45l6.75 7.86a1.05 1.03-20.1 0 0 .79.36l4.48.03q1.41 0 .44-1.01l-7.58-7.92a.38.38 0 0 1 .18-.63m56.1-3.27q-3.95-.45-7.69-2.94-.49-.32-.49.26l.01 4.19a.7.7 0 0 0 .4.63c5.61 2.71 14.24 3.1 18.49-2.11 2.73-3.34 2.71-8.28 0-11.77-2.74-3.52-13.75-7.94-14.03-11.72-.65-8.59 8.84-8.46 13.91-5.26q.59.37.59-.33v-3.97a.7.69-80.7 0 0-.47-.66q-4.77-1.6-9.79-.83c-9.86 1.53-12.5 13.12-3.89 18.46 3.17 1.96 9.23 5.12 10.58 8.52 2.11 5.27-3.13 8.04-7.62 7.53m-32.7-.69a.41.41 0 0 1-.41-.41l.08-32.72a.41.41 0 0 0-.43-.41l-3.96.16a.41.41 0 0 0-.39.41v36.81a.41.41 0 0 0 .41.41h18.93a.41.41 0 0 0 .41-.41l.01-3.43a.41.41 0 0 0-.41-.41h-14.24m164.55-18.9q-.68.8-2.46-.91a.22.22 0 0 0-.37.17c.18 2.21 3.36 1.9 4.42.35" vector-effect="non-scaling-stroke"/><path stroke="#b9b8b9" d="M283.75 194.21c2.74-1.82-1.74-6.22-4.22-3.61a.71.71 0 0 0-.11.82q1.02 1.88 2.74 3.18" vector-effect="non-scaling-stroke"/><path stroke="#39393a" d="m283.75 194.21-.04-.46" vector-effect="non-scaling-stroke"/><path stroke="#b9b8b9" d="M283.71 193.75q.52-.77.19-1.79a.55.55 0 0 0-.92-.22q-.89.91-.23 1.97" vector-effect="non-scaling-stroke"/><path stroke="#39393a" d="m282.75 193.71-.59.89" vector-effect="non-scaling-stroke"/><path stroke="gray" d="m283.71 193.75-.96-.04m-95.6 18.25c-6.14 4.36-15.82 3.29-16.34-5.56a.91.9-1.8 0 1 .91-.96l17.26.04a.61.6 1.5 0 0 .61-.57q.28-5.32-.84-7.89c-3.72-8.58-15.59-9.37-20.21-1.47-7.79 13.32 3.43 29.12 18.8 20.47a.8.8 0 0 0 .41-.7v-3.04q.01-.75-.6-.32m53.2-6.56 17.67.06a.56.55-86 0 0 .56-.49c2.95-22.44-28.88-18.05-22.67 4.6 2.56 9.31 12.73 10.67 20.27 6.59a1.01 1 78 0 0 .52-.81l.25-3.07q.06-.71-.55-.35c-7.34 4.27-15.4 3.69-16.55-5.97a.51.5 86.9 0 1 .5-.56m27.19-10.33.22-3.67a.61.61 0 0 0-.61-.65h-3.4a.5.5 0 0 0-.5.5v25.87a.63.63 0 0 0 .63.63h3.24a.64.64 0 0 0 .64-.65c-.08-6.31-3.05-25.12 9-22.23a.42.42 0 0 0 .52-.4l.03-3.4a.54.54 0 0 0-.44-.53q-6.31-1.17-8.66 4.68-.8 1.99-.67-.15m-69.04.17v-3.99a.5.5 0 0 0-.5-.5h-3.24a.49.49 0 0 0-.49.49l-.06 25.86a.65.65 0 0 0 .65.65h3.1a.53.53 0 0 0 .53-.53c-.01-5.62-2.6-26.22 9.24-22.33a.39.39 0 0 0 .51-.37l.01-3.17a.79.79 0 0 0-.67-.78q-6.33-1-8.49 4.78a.31.3 55.3 0 1-.59-.11m23.29 17.47-7.38-21.45a.75.75 0 0 0-.71-.51h-3.67a.49.49 0 0 0-.46.66l9.65 25.62a1.01 1.01 0 0 0 .93.66l2.99.05a.9.9 0 0 0 .85-.57l10.26-25.82a.42.42 0 0 0-.38-.58l-3.53-.09a.75.74 10.3 0 0-.72.49l-7.65 21.55q-.1.25-.18-.01" vector-effect="non-scaling-stroke"/><path stroke="#f18f91" d="M168.75 54.46c-.49-1.3-5.58-2.15-7.01-2.41q-.83-.15-.16.36 5.66 4.35 9.4 10.42.53.87.32-.12-.7-3.37-2.55-8.25m6.14 10.36q4.49-4.35 9.96-7.38.74-.4-.09-.55l-13.78-2.5q-.55-.1-.36.42l3.62 9.86a.4.4 0 0 0 .65.15m2.07 2.25 11.39 3.3a.72.71 7.9 0 0 .92-.69q-.06-5.91-1.6-11.63a.58.58 0 0 0-.93-.3l-9.98 8.36q-.8.67.2.96m30.26-6.2-17.48-3.17q-.73-.13-.46.56 2.17 5.57 2.03 11.54a.27.27 0 0 0 .43.23q7.31-5.1 15.55-8.5a.35.35 0 0 0-.07-.66m-13.41 11.46 9.68 4.68a.51.5-61.1 0 0 .64-.19q4.1-6.57 5.98-14.11a.54.53 81.3 0 0-.79-.59l-15.54 9.54a.38.38 0 0 0 .03.67m-7.55 1.19-10.1-3.08a.42.41-83.1 0 0-.53.42l.5 11.92q.02.48.37.16l9.86-8.94a.28.28 0 0 0-.1-.48m13.19 6.08-8.14-3.95a.45.44 18.5 0 0-.63.31q-1.15 5.77-4.07 10.89-.6 1.05.45.46l12.41-7.02q.64-.37-.02-.69m-22.73 6.57 5.02 3.87a.49.48-56.3 0 0 .72-.15q3.51-6.12 5.51-12.91a.42.42 0 0 0-.68-.44l-10.58 9.07a.36.36 0 0 0 .01.56m38.22 4.44-10.07-7.76a.61.61 0 0 0-.88.14q-6.24 9.26-14.53 16.72a.33.33 0 0 0 .34.56q12.2-4.69 24.81-8.06 1.79-.47.33-1.6m-28.15 10.07 12.61-16.14q1.19-1.52-.5-.59l-14.96 8.28a.68.68 0 0 0-.24.95q2.04 3.29 2.07 7.15.01 1.64 1.02.35m-8.28-8.49-3.19-2.03a.46.46 0 0 0-.67.19l-3.76 8.01q-.24.5.2.17l7.45-5.56a.47.47 0 0 0-.03-.78m2.02 3.87q-6 7.41-13.74 12.97a.18.18 0 0 0 .18.32l16.68-7.01a.72.71-12.2 0 0 .44-.67q-.04-3.65-2.76-5.7a.58.57 38.2 0 0-.8.09m-3.76.86c-5.46 2.99-10.7 7.15-14.16 12.43q-.45.69.22.23 7.83-5.33 14.2-12.33a.21.21 0 0 0-.26-.33" vector-effect="non-scaling-stroke"/><path stroke="#ececec" d="M189.23 123.07q6.68 4.09 14.07 6.63a.56.55-78.2 0 0 .73-.48l1.32-15.82a.45.45 0 0 0-.72-.39q-7.1 5.58-15.35 9.29a.44.44 0 0 0-.05.77m11.37 7q-7.13-1.92-13.47-5.79a.43.43 0 0 0-.64.24q-2.59 8.13-6.78 15.56-.49.88.44.5l22.04-8.94a.74.73 79.8 0 0 .46-.67c.03-1-1.29-.7-2.05-.9" vector-effect="non-scaling-stroke"/><path stroke="#bfbfc1" d="m147.75 136.46-9.68 1.73a.7.69-3.3 0 0-.57.63q-.13 1.44 1 2.47" vector-effect="non-scaling-stroke"/><path stroke="#787879" d="M138.5 141.29q-.03 2.24 1.6 3.65a.69.67 48.5 0 0 .81.06c2.84-1.77 5.2-3.17 7.43-5.92q1.39-1.72 3.05-3.22a.36.36 0 0 0 .07-.45l-.15-.24a.26.25-26.5 0 0-.32-.1l-3.24 1.39" vector-effect="non-scaling-stroke"/><path stroke="#919191" d="M138.5 141.29q4.99-1.4 9.25-4.83" vector-effect="non-scaling-stroke"/><path stroke="gray" d="M90.091 174.55a3.69 3.14 90.6 0 0 3.179-3.657 3.69 3.14 90.6 0 0-3.101-3.723 3.69 3.14 90.6 0 0-3.179 3.657 3.69 3.14 90.6 0 0 3.101 3.723m18.683-.04a3.67 3.11 90.4 0 0 3.136-3.648 3.67 3.11 90.4 0 0-3.084-3.692 3.67 3.11 90.4 0 0-3.136 3.648 3.67 3.11 90.4 0 0 3.084 3.692m-7.904 16.69c-3.35-9.02-14.95-9.87-20.6-3.77-9.17 9.89-2.23 32.07 13.93 25.8 8.33-3.23 9.44-14.58 6.67-22.03m84.3 9.82c-.2-9.96-12.53-8.84-14.29-.02a.42.41 6.1 0 0 .41.5h13.41a.47.47 0 0 0 .47-.48m68.94.07c.31-9.51-12.06-9.5-14.02-.09a.41.41 0 0 0 .4.49l13.18.02a.43.43 0 0 0 .44-.42" vector-effect="non-scaling-stroke"/></g><path fill="#fff" d="M0 0h298v240H0v-90.06q1.8.9 3-.77.55-.77-.39-.66-1.08.13-1.58-.85-.3-.59-.57.01L0 148.69V0Zm45.79 76.25.28 2.23q-.76 13.66-.05 26.83l.27 1.94c-1.59 2.93-.62 18.34-.83 22.75q-2.22 1.31-2 4c-.6 1.97-.75 8.42 1.83 9.24a1.28 1.24 82.3 0 1 .7.55c1.57 2.59 3.93 2.86 5.86 4.46q1.33 1.11 2.68 2.28a1.25 1.23-26.4 0 0 .91.3q2.77-.19 4.74 1.58a1.67 1.59-20.6 0 0 .92.39c2.75.21 4.98 1.79 7.43 2.21 3.47.6 6.46 2.05 10.01 2.02 3.69-.03 7.6.67 11.03.69 3.46.02 7.08.52 10.24.46 3.69-.07 16.64-.06 19.33-1.86a1.67 1.64-61.4 0 1 .92-.28c4.88 0 8.69-.27 13.48-2.3q3.31-1.41 6.96-1.78c14.72 10.71 35.25 13.61 52.75 14l.35-.14a1.02 1.01-85.5 0 0 .52-.45q4.47-8.02 7.67-16.62 8.96-23.73 5.69-49.09a.58.58 0 0 0-.78-.47l-2.04.77a.55.54-13.4 0 0-.35.56l.82 8.77a.49.48-77 0 1-.73.46c-1.42-.84-10.76-7.42-11.68-5.96a.61.6 33.4 0 0 .17.82q5.35 3.64 11.29 6.27a.66.66 0 0 1 .05 1.19l-15.61 8.27a.47.47 0 0 1-.67-.55q2.14-7.08 2.31-14.48a.78.77 16.9 0 0-.38-.7q-.56-.33-.88-.82 21.05-7.5 42.75-12.83l23.74-4.76a.4.4 0 0 0 .26-.61q-9.93-15.47-27.25-21.63c-11.43-4.53-22.99-6.51-35-8.75.01-.5.04-1.04-.2-1.5q-5.71-10.49-9.87-21.68c-6.56 2.43-25.77 8.86-28.64 14.47q-.34 1.59.91 2.81c4.61 4.52 10.44 9.43 13.6 14.32 12.74 19.65-2.13 40.9-17.01 53.37q.29-5.05-.58-10l.25-1.75q.75-13.38-.04-26.77l.08-1.89q.65-13.98-.04-28.34c1.42-6.15-3.51-10.8-8.8-12.57q-4.58-2.72-9.43-3.76-5.34-1.79-10.96-2.43-23.91-4.5-50.75.6c-8.82 1.68-26.24 5.79-26.27 16.65q-.03 14.77.04 29.51Zm72.4 91.31 1.83-.29a.34.34 0 0 0 .24-.52l-.19-.29a.87.86-11.3 0 0-.61-.4l-1.05-.16a.78.77-88.6 0 1-.65-.69q-.28-2.69 2.28-2.67a.56.56 0 0 0 .42-.94c-1.97-2.21-4.58 1.44-4.36 3.48a.61.6 79.7 0 1-.45.66l-1.05.26a.5.49-16 0 0-.35.63q.28.85 1.26.87a.5.49.6 0 1 .49.49v7.07a.66.65-88.6 0 0 .62.66l.61.04a.49.49 0 0 0 .52-.49v-7.2a.52.52 0 0 1 .44-.51Zm-50.175-5.383a1.18 1.04-15.9 0 0-1.42-.677 1.18 1.04-15.9 0 0-.85 1.323 1.18 1.04-15.9 0 0 1.42.677 1.18 1.04-15.9 0 0 .85-1.323ZM55.55 172.22l-4.18-9.7a.88.88 0 0 0-.89-.53l-.99.1a.6.59 87.4 0 0-.54.6l.06 12.47a.57.57 0 0 0 .54.57l.5.02a.54.53-89 0 0 .56-.55l-.16-8.96a.38.38 0 0 1 .72-.16l4.1 9.37a.66.66 0 0 0 1.2 0l4.22-9.54q.53-1.2.49.11l-.25 9.14a.55.54 1 0 0 .55.56h.8a.56.56 0 0 0 .55-.56L62.74 163a1.17 1.17 0 0 0-2.24-.47l-4.32 9.69a.35.34-44.8 0 1-.63 0Zm143.64-7.53q-.3.21.26.9a.12.12 0 0 0 .22-.07l.17-2.74a.54.52 15.6 0 0-.29-.5l-.35-.18q-.87-.44-.55.49.37 1.08.54 2.1Zm3.15-.29c.03-.6.1-1.8-.7-1.92a.38.37-87.6 0 0-.43.4l.15 2.12a.47.47 0 0 0 .46.44l2.68.04a.35.35 0 0 0 .36-.31l.27-2.51a.21.17-65.7 0 0-.04-.15q-.08-.11-.19-.18a.48.48 0 0 0-.72.37q-.13 1.46-1.26 2.07-.62.33-.58-.37ZM126 167.21q1.24-.1 2 .83 1.04 2.31 3.25 1.17l1.29-.96c2.93-2.82-2.23-6.47-4.75-2.75l1.71 1.04 1.54 1.71-.14.37a.35.35 0 0 1-.5.18l-1.9-1.09q-.43-1.71-2.21-1.46l-1.77-.48a.66.66 0 0 1-.49-.7l.13-1.35a.48.48 0 0 0-.63-.5l-.66.21a.7.7 0 0 0-.45.89q.55 1.64-.82 1.69a.75.75 0 0 0-.63.37l-.18.29a.34.33-65.6 0 0 .18.49l1.1.39a.63.62-80 0 1 .41.59c.01 2.38-1.17 8.39 3 7.8q.8-.11 1.03-.69a.51.51 0 0 0-.36-.69l-1.29-.28a.72.72 0 0 1-.56-.68l-.18-5.4a.6.59 82 0 1 .44-.59l1.44-.4Zm-49.34 6.74c-5.77 3.36-7.37-8.82.06-6.28a.47.47 0 0 0 .62-.52l-.06-.44a.86.84 4.6 0 0-.59-.68c-9.59-3.09-7.94 13.87.12 9.5a.85.82-14.7 0 0 .44-.73l.01-.51q.01-.7-.6-.34Zm4.39-7.57-.78-.55q-.77-.53-.77.4v8.91a.61.6 88.2 0 0 .64.61l.54-.03a.65.64 86.5 0 0 .6-.69c-.18-2.72-.73-8.03 2.84-7.58a.56.56 0 0 0 .63-.59l-.04-.7a.65.64 75.9 0 0-.91-.55l-1.87.85a.93.92 50 0 1-.88-.08Zm8.524 9.651a5.22 4.89 96 0 0 5.41-4.68 5.22 4.89 96 0 0-4.318-5.702 5.22 4.89 96 0 0-5.41 4.68 5.22 4.89 96 0 0 4.318 5.702Zm11.116-3.201c.74 1.99-2.37 1.75-3.55 1.08a.45.44-64.5 0 0-.63.23c-.98 2.59 4.48 2.38 6-.3a2 1.99 29.7 0 0-.75-2.71l-3.03-1.73a.89.87-72.6 0 1-.44-.86c.21-1.71 2.03-1.31 3.25-.94a.49.49 0 0 0 .62-.36c.82-3.41-11.89-.43-2.09 4.87a1.38 1.34-86.7 0 1 .62.72Zm7.698 3.235a5.24 4.89 94.4 0 0 5.278-4.85 5.24 4.89 94.4 0 0-4.474-5.6 5.24 4.89 94.4 0 0-5.278 4.85 5.24 4.89 94.4 0 0 4.474 5.6Zm-40.622-9.712a.31.31 0 0 0-.31-.31l-1.16-.005a.31.31 0 0 0-.31.309l-.032 9.08a.31.31 0 0 0 .31.31l1.16.005a.31.31 0 0 0 .31-.309l.032-9.08ZM58.92 213.88c-3.87 1.02-8.02-.48-11.32-2.72q-.57-.38-.58.3l-.03 4.1a.88.87 12.9 0 0 .51.81q6.66 3.1 13.18 1.29c6.12-1.7 9.02-7.53 6.6-13.42-2.67-6.48-17.78-8.85-15-16.76 1.94-5.5 9.81-4.44 13.71-2q.51.31.51-.29v-4.05a.71.7-80.9 0 0-.48-.67c-5.64-1.87-13.19-1.67-16.99 3.43-6.94 9.31 4.73 15.23 10.72 19.13 4.68 3.04 5.5 9.19-.83 10.85Zm35.29 3.58q9.25-2.56 11.72-12c7.6-29.14-30.18-35.87-34.2-10.39-1.87 11.85 3.85 22.24 16.55 23.25a1.31 1.29-17.1 0 1 .87.45l6.75 7.86a1.05 1.03-20.1 0 0 .79.36l4.48.03q1.41 0 .44-1.01l-7.58-7.92a.38.38 0 0 1 .18-.63Zm56.1-3.27q-3.95-.45-7.69-2.94-.49-.32-.49.26l.01 4.19a.7.7 0 0 0 .4.63c5.61 2.71 14.24 3.1 18.49-2.11 2.73-3.34 2.71-8.28 0-11.77-2.74-3.52-13.75-7.94-14.03-11.72-.65-8.59 8.84-8.46 13.91-5.26q.59.37.59-.33v-3.97a.7.69-80.7 0 0-.47-.66q-4.77-1.6-9.79-.83c-9.86 1.53-12.5 13.12-3.89 18.46 3.17 1.96 9.23 5.12 10.58 8.52 2.11 5.27-3.13 8.04-7.62 7.53Zm-32.7-.69a.41.41 0 0 1-.41-.41l.08-32.72a.41.41 0 0 0-.43-.41l-3.96.16a.41.41 0 0 0-.39.41v36.81a.41.41 0 0 0 .41.41h18.93a.41.41 0 0 0 .41-.41l.01-3.43a.41.41 0 0 0-.41-.41h-14.24Zm164.55-18.9q-.68.8-2.46-.91a.22.22 0 0 0-.37.17c.18 2.21 3.36 1.9 4.42.35 2.74-1.82-1.74-6.22-4.22-3.61a.71.71 0 0 0-.11.82q1.02 1.88 2.74 3.18Zm-95.01 17.36c-6.14 4.36-15.82 3.29-16.34-5.56a.91.9-1.8 0 1 .91-.96l17.26.04a.61.6 1.5 0 0 .61-.57q.28-5.32-.84-7.89c-3.72-8.58-15.59-9.37-20.21-1.47-7.79 13.32 3.43 29.12 18.8 20.47a.8.8 0 0 0 .41-.7v-3.04q.01-.75-.6-.32Zm53.2-6.56 17.67.06a.56.55-86 0 0 .56-.49c2.95-22.44-28.88-18.05-22.67 4.6 2.56 9.31 12.73 10.67 20.27 6.59a1.01 1 78 0 0 .52-.81l.25-3.07q.06-.71-.55-.35c-7.34 4.27-15.4 3.69-16.55-5.97a.51.5 86.9 0 1 .5-.56Zm27.19-10.33.22-3.67a.61.61 0 0 0-.61-.65h-3.4a.5.5 0 0 0-.5.5v25.87a.63.63 0 0 0 .63.63h3.24a.64.64 0 0 0 .64-.65c-.08-6.31-3.05-25.12 9-22.23a.42.42 0 0 0 .52-.4l.03-3.4a.54.54 0 0 0-.44-.53q-6.31-1.17-8.66 4.68-.8 1.99-.67-.15Zm-69.04.17v-3.99a.5.5 0 0 0-.5-.5h-3.24a.49.49 0 0 0-.49.49l-.06 25.86a.65.65 0 0 0 .65.65h3.1a.53.53 0 0 0 .53-.53c-.01-5.62-2.6-26.22 9.24-22.33a.39.39 0 0 0 .51-.37l.01-3.17a.79.79 0 0 0-.67-.78q-6.33-1-8.49 4.78a.31.3 55.3 0 1-.59-.11Zm23.29 17.47-7.38-21.45a.75.75 0 0 0-.71-.51h-3.67a.49.49 0 0 0-.46.66l9.65 25.62a1.01 1.01 0 0 0 .93.66l2.99.05a.9.9 0 0 0 .85-.57l10.26-25.82a.42.42 0 0 0-.38-.58l-3.53-.09a.75.74 10.3 0 0-.72.49l-7.65 21.55q-.1.25-.18-.01Z"/><path fill="#d8d8d9" d="M122.77 29.49q-8.3 5.43-17.31 9.52-7.1 3.22-10.26 4.85c-4.32 2.23-8.73 4.7-13.27 6.44q-1.61.62-3.08 1.54c-3.12 1.95-6.06 2.8-9.08 4.64a.58.58 0 0 0 .22 1.07l10.67 1.5 7.34.91q-3.12-.6-3.79 2.29l-4.11-.57a1.22 1.21-86.1 0 0-1.38 1.21l.03 23.33a.66.66 0 0 0 .59.66l2.87.31q.86.09.23.69-.76.74-1.94.41c-12.69-1.62-24.28-4.77-34.71-12.04q-.07-14.74-.04-29.51c.03-10.86 17.45-14.97 26.27-16.65q26.84-5.1 50.75-.6Z"/><path fill="#c4c4c5" d="M122.77 29.49q5.62.64 10.96 2.43-8.37 5.3-17.5 9.1-.96.4-2.28 1.28c-1.77 1.19-4.61 2.11-5.95 2.82q-3.99 2.12-8.06 4-.45.21-.95.17-1.38-.12-2.29 1.01-.31.38-.77.57-7.96 3.48-15.27 8.18l-10.67-1.5a.58.58 0 0 1-.22-1.07c3.02-1.84 5.96-2.69 9.08-4.64q1.47-.92 3.08-1.54c4.54-1.74 8.95-4.21 13.27-6.44q3.16-1.63 10.26-4.85 9.01-4.09 17.31-9.52Z"/><path fill="#b5b5b7" d="M133.73 31.92q4.85 1.04 9.43 3.76-11.97 6.98-24.6 12.6c-2.45 1.09-5.74 3.32-9.1 4.19-1.4.37-3.34 2.55-5.21 3.28q-3.63 1.42-6.81 3.77-.38.28.09.37l1.72.32L88 59.96l-7.34-.91q7.31-4.7 15.27-8.18.46-.19.77-.57.91-1.13 2.29-1.01.5.04.95-.17 4.07-1.88 8.06-4c1.34-.71 4.18-1.63 5.95-2.82q1.32-.88 2.28-1.28 9.13-3.8 17.5-9.1Z"/><path fill="#d8d8d9" d="m193.5 55.21-2.25-.25-3.75-6.29a.48.48 0 0 0-.68-.15L180 53.21l-5.5-.92c3.15.07 8.35-3.5 11.16-5.01a.39.39 0 0 0-.15-.74q-10.08-.78-19.51-3.58l-.5-.25.75-1.25 19.25 3.38a.41.41 0 0 0 .45-.56c-.48-1.2-2.9-10.56-3.2-10.57l.68-1.68q4.16 11.19 9.87 21.68c.24.46.21 1 .2 1.5Z"/><path fill="#a6a6a9" d="m183.43 32.03-.68 1.68q-8.63 3.08-16.5 7.75l-.75 1.25-2.29.54q-3.33 1.84-5 5.25-1.92-.61-3.42-2c2.87-5.61 22.08-12.04 28.64-14.47Z"/><path fill="#fff" d="M182.75 33.71c.3.01 2.72 9.37 3.2 10.57a.41.41 0 0 1-.45.56l-19.25-3.38q7.87-4.67 16.5-7.75Z"/><path fill="#a6a6a9" d="M143.16 35.68c5.29 1.77 10.22 6.42 8.8 12.57l-4.59 4.37a.54.53 24.3 0 1-.35.13h-.28a.23.23 0 0 1-.23-.23v-1.18a.42.42 0 0 0-.6-.38q-9.69 4.71-20.16 7.25-13.16 2.18-26.5 2l-1.72-.32q-.47-.09-.09-.37 3.18-2.35 6.81-3.77c1.87-.73 3.81-2.91 5.21-3.28 3.36-.87 6.65-3.1 9.1-4.19q12.63-5.62 24.6-12.6Z"/><path fill="#b5b5b7" d="m165.5 42.71.5.25q2.05 3.96 5.7 6.59c1.12.82 1.55 1.58 2.3 2.66l-3.75-.75-7.04-8.21 2.29-.54Z"/><path fill="#fff" d="M166 42.96q9.43 2.8 19.51 3.58a.39.39 0 0 1 .15.74c-2.81 1.51-8.01 5.08-11.16 5.01l-.5-.08c-.75-1.08-1.18-1.84-2.3-2.66q-3.65-2.63-5.7-6.59Zm-2.79.29 7.04 8.21q-6.22-.67-12.04-2.96 1.67-3.41 5-5.25Z"/><path fill="#e31e23" d="M154.79 46.5q1.5 1.39 3.42 2 5.82 2.29 12.04 2.96l3.75.75.5.08 5.5.92 11.25 1.75 2.25.25c12.01 2.24 23.57 4.22 35 8.75q-2.17.63-1.5 3l-14.57-4.64a.52.51-76.8 0 0-.67.42q-.99 7.19-4.17 13.68a.27.27 0 0 0 .33.38l13.83-4.84q1.41.6 1 2l-14.62 5.74a.32.32 0 0 0-.08.55q5.65 4.47 9.76 10.38a.43.42-42.9 0 0 .68.02l9.8-12.15q.72 1.32 2 1.75-3.81 5.27-8.77 9.64a.36.36 0 0 0 .32.62l9.91-2.22v2.67q-21.7 5.33-42.75 12.83l-1.5.5-11.39 4.44q-.92.32-1.4.77-8.46 3.03-16.25 7.5l-3.46 1.71-3.04 1.79q-3.86 1.71-7.21 4.29l-.54-.54 8.08-7.25c14.88-12.47 29.75-33.72 17.01-53.37-3.16-4.89-8.99-9.8-13.6-14.32q-1.25-1.22-.91-2.81Zm13.96 7.96c-.49-1.3-5.58-2.15-7.01-2.41q-.83-.15-.16.36 5.66 4.35 9.4 10.42.53.87.32-.12-.7-3.37-2.55-8.25Zm6.14 10.36q4.49-4.35 9.96-7.38.74-.4-.09-.55l-13.78-2.5q-.55-.1-.36.42l3.62 9.86a.4.4 0 0 0 .65.15Zm2.07 2.25 11.39 3.3a.72.71 7.9 0 0 .92-.69q-.06-5.91-1.6-11.63a.58.58 0 0 0-.93-.3l-9.98 8.36q-.8.67.2.96Zm30.26-6.2-17.48-3.17q-.73-.13-.46.56 2.17 5.57 2.03 11.54a.27.27 0 0 0 .43.23q7.31-5.1 15.55-8.5a.35.35 0 0 0-.07-.66Zm-13.41 11.46 9.68 4.68a.51.5-61.1 0 0 .64-.19q4.1-6.57 5.98-14.11a.54.53 81.3 0 0-.79-.59l-15.54 9.54a.38.38 0 0 0 .03.67Zm-7.55 1.19-10.1-3.08a.42.41-83.1 0 0-.53.42l.5 11.92q.02.48.37.16l9.86-8.94a.28.28 0 0 0-.1-.48Zm13.19 6.08-8.14-3.95a.45.44 18.5 0 0-.63.31q-1.15 5.77-4.07 10.89-.6 1.05.45.46l12.41-7.02q.64-.37-.02-.69Zm-22.73 6.57 5.02 3.87a.49.48-56.3 0 0 .72-.15q3.51-6.12 5.51-12.91a.42.42 0 0 0-.68-.44l-10.58 9.07a.36.36 0 0 0 .01.56Zm38.22 4.44-10.07-7.76a.61.61 0 0 0-.88.14q-6.24 9.26-14.53 16.72a.33.33 0 0 0 .34.56q12.2-4.69 24.81-8.06 1.79-.47.33-1.6Zm-28.15 10.07 12.61-16.14q1.19-1.52-.5-.59l-14.96 8.28a.68.68 0 0 0-.24.95q2.04 3.29 2.07 7.15.01 1.64 1.02.35Zm-8.28-8.49-3.19-2.03a.46.46 0 0 0-.67.19l-3.76 8.01q-.24.5.2.17l7.45-5.56a.47.47 0 0 0-.03-.78Zm2.02 3.87q-6 7.41-13.74 12.97a.18.18 0 0 0 .18.32l16.68-7.01a.72.71-12.2 0 0 .44-.67q-.04-3.65-2.76-5.7a.58.57 38.2 0 0-.8.09Zm-3.76.86c-5.46 2.99-10.7 7.15-14.16 12.43q-.45.69.22.23 7.83-5.33 14.2-12.33a.21.21 0 0 0-.26-.33Z"/><path fill="#d8d8d9" d="M151.96 48.25q.69 14.36.04 28.34-8.25 5.52-18.24 8.43-6.41 1.87-11.57 2.75.19-11.99.07-23.85c-.02-2.18-1.05-3.19-3.26-2.71l8.3-2.78q1.01-.34-.05-.29l-1.5.07q10.47-2.54 20.16-7.25a.42.42 0 0 1 .6.38v1.18a.23.23 0 0 0 .23.23h.28a.54.53 24.3 0 0 .35-.13l4.59-4.37Z"/><path fill="#fff" d="M191.25 54.96 180 53.21l6.82-4.69a.48.48 0 0 1 .68.15l3.75 6.29Zm-29.51-2.91c1.43.26 6.52 1.11 7.01 2.41q1.85 4.88 2.55 8.25.21.99-.32.12-3.74-6.07-9.4-10.42-.67-.51.16-.36Zm13.15 12.77a.4.4 0 0 1-.65-.15l-3.62-9.86q-.19-.52.36-.42l13.78 2.5q.83.15.09.55-5.47 3.03-9.96 7.38Zm2.07 2.25q-1-.29-.2-.96l9.98-8.36a.58.58 0 0 1 .93.3q1.54 5.72 1.6 11.63a.72.71 7.9 0 1-.92.69l-11.39-3.3Zm30.26-6.2a.35.35 0 0 1 .07.66q-8.24 3.4-15.55 8.5a.27.27 0 0 1-.43-.23q.14-5.97-2.03-11.54-.27-.69.46-.56l17.48 3.17Zm-88.22.34-11.88 1.52-14.77.25-8.14-.73q.67-2.89 3.79-2.29l11.25.25q13.34.18 26.5-2l1.5-.07q1.06-.05.05.29l-8.3 2.78Z"/><path fill="#b5b5b7" d="M119 61.21c2.21-.48 3.24.53 3.26 2.71q.12 11.86-.07 23.85-20.71 3.29-41.69.52 1.18.33 1.94-.41.63-.6-.23-.69l-2.87-.31a.66.66 0 0 1-.59-.66l-.03-23.33a1.22 1.21-86.1 0 1 1.38-1.21l4.11.57 8.14.73q1.64 11.77.49 23.51-.04.36-.19.71a.91.91 0 0 0 .82 1.27l11.49.17a1.51 1.51 0 0 0 1.53-1.56q-.4-12.23.63-24.35L119 61.21Z"/><path fill="#fff" d="M193.81 72.33a.38.38 0 0 1-.03-.67l15.54-9.54a.54.53 81.3 0 1 .79.59q-1.88 7.54-5.98 14.11a.51.5-61.1 0 1-.64.19l-9.68-4.68ZM227 66.96l4.75 1.86a.33.33 0 0 1-.04.62l-9.96 2.52-13.83 4.84a.27.27 0 0 1-.33-.38q3.18-6.49 4.17-13.68a.52.51-76.8 0 1 .67-.42L227 66.96Z"/><path fill="#a6a6a9" d="M107.12 62.73q-1.03 12.12-.63 24.35a1.51 1.51 0 0 1-1.53 1.56l-11.49-.17a.91.91 0 0 1-.82-1.27q.15-.35.19-.71 1.15-11.74-.49-23.51l14.77-.25Z"/><path fill="#a31c21" d="M228.5 63.96q17.32 6.16 27.25 21.63a.4.4 0 0 1-.26.61l-23.74 4.76v-2.67q10.27-2.18 20.93-3.19.62-.06.2-.52-7.3-8.09-16.84-13.41a.43.43 0 0 0-.58.17l-5.17 8.91q-1.28-.43-2-1.75l5.19-7.1a.43.43 0 0 0-.48-.66l-10.25 3.22q.41-1.4-1-2l9.96-2.52a.33.33 0 0 0 .04-.62L227 66.96q-.67-2.37 1.5-3Z"/><path fill="#fff" d="M186.26 73.52a.28.28 0 0 1 .1.48l-9.86 8.94q-.35.32-.37-.16l-.5-11.92a.42.41-83.1 0 1 .53-.42l10.1 3.08Zm42.03 4.98-9.8 12.15a.43.42-42.9 0 1-.68-.02q-4.11-5.91-9.76-10.38a.32.32 0 0 1 .08-.55l14.62-5.74L233 70.74a.43.43 0 0 1 .48.66l-5.19 7.1Zm3.46 9.79-9.91 2.22a.36.36 0 0 1-.32-.62q4.96-4.37 8.77-9.64l5.17-8.91a.43.43 0 0 1 .58-.17q9.54 5.32 16.84 13.41.42.46-.2.52-10.66 1.01-20.93 3.19Zm-32.28-8-12.41 7.02q-1.05.59-.45-.46 2.92-5.12 4.07-10.89a.45.44 18.5 0 1 .63-.31l8.14 3.95q.66.32.02.69Z"/><path fill="#4a4949" d="M45.79 76.25c10.43 7.27 22.02 10.42 34.71 12.04q20.98 2.77 41.69-.52 5.16-.88 11.57-2.75 9.99-2.91 18.24-8.43l-.08 1.89q-1.29.94-1.76 2.27-1.39-.4-2.41.25-6.84 4.36-15.5 6.96L115 91.21q-13.74 1.2-27.5.33l-15.75-2.08q-10.89-2.15-20.44-7.77-.73-.43-2.31.1l-2.93-3.31-.28-2.23Z"/><path fill="#fff" d="M176.72 86.17a.36.36 0 0 1-.01-.56l10.58-9.07a.42.42 0 0 1 .68.44q-2 6.79-5.51 12.91a.49.48-56.3 0 1-.72.15l-5.02-3.87Z"/><path fill="#d8d8d9" d="M46.07 78.48 49 81.79q9.1 6.89 20.46 8.71l1.29.54c-.19 1.6-1.03 2.85-1 4.43q.13 8.99-.23 17.98a.59.58 6.2 0 0 .49.6l8.55 1.41a.34.34 0 0 1 .18.57q-.42.44-.99.51c-11.28-1.62-22.05-5.08-31.73-11.23q-.71-13.17.05-26.83Zm105.85 0q.79 13.39.04 26.77-14.53 9.27-31.71 11.29l-.81-.05a.54.54 0 0 1-.5-.56c.08-1.83 5.69.96 5.32-4.45q-.27-3.96.16-19.31a.66.65 82.9 0 1 .48-.62l9.6-2.76q8.97-1.88 15.66-8.04.47-1.33 1.76-2.27Z"/><path fill="#727173" d="M150.16 80.75q-6.69 6.16-15.66 8.04l-2.25-.83q8.66-2.6 15.5-6.96 1.02-.65 2.41-.25Zm-78.41 8.71q-1.78-.4-2.29 1.04Q58.1 88.68 49 81.79q1.58-.53 2.31-.1 9.55 5.62 20.44 7.77Z"/><path fill="#fff" d="M214.94 90.61q1.46 1.13-.33 1.6-12.61 3.37-24.81 8.06a.33.33 0 0 1-.34-.56q8.29-7.46 14.53-16.72a.61.61 0 0 1 .88-.14l10.07 7.76Zm-28.15 10.07q-1.01 1.29-1.02-.35-.03-3.86-2.07-7.15a.68.68 0 0 1 .24-.95l14.96-8.28q1.69-.93.5.59l-12.61 16.14Z"/><path fill="#c4c4c5" d="m132.25 87.96 2.25.83-9.6 2.76a.66.65 82.9 0 0-.48.62q-.43 15.35-.16 19.31c.37 5.41-5.24 2.62-5.32 4.45a.54.54 0 0 0 .5.56l.81.05-10.25 1.17q-.13-1.4 1.07-1.71a.58.57 82.9 0 0 .43-.56V94.09a.94.93-70.8 0 0-.35-.73l-.44-.36 5.21-.77a.43.42 81.3 0 0 .35-.49c-.08-.49-.81-.57-1.27-.53l17.25-3.25Z"/><path fill="#b5b5b7" d="m71.75 89.46 15.75 2.08q-1.35-.07-2.62.55-.48.24.05.35c7.96 1.8 18.33 1.35 25.78.56l.44.36a.94.93-70.8 0 1 .35.73v21.35a.58.57 82.9 0 1-.43.56q-1.2.31-1.07 1.71-11.76 1.3-23.5-.17.31-.23.4-.46a.46.46 0 0 0-.39-.61l-4.71-.46a1.71 1.71 0 0 1-1.54-1.7l-.01-19.82a1.07 1.07 0 0 0-.36-.8c-2.2-1.97-6.23-2.34-9.14-2.65l-1.29-.54q.51-1.44 2.29-1.04Z"/><path fill="#fff" d="M178.51 92.19a.47.47 0 0 1 .03.78l-7.45 5.56q-.44.33-.2-.17l3.76-8.01a.46.46 0 0 1 .67-.19l3.19 2.03Z"/><path fill="#c4c4c5" d="M70.75 91.04c2.91.31 6.94.68 9.14 2.65a1.07 1.07 0 0 1 .36.8l.01 19.82a1.71 1.71 0 0 0 1.54 1.7l4.71.46a.46.46 0 0 1 .39.61q-.09.23-.4.46l-8.75-1q.57-.07.99-.51a.34.34 0 0 0-.18-.57l-8.55-1.41a.59.58 6.2 0 1-.49-.6q.36-8.99.23-17.98c-.03-1.58.81-2.83 1-4.43Z"/><path fill="#fff" d="M115 91.21c.46-.04 1.19.04 1.27.53a.43.42 81.3 0 1-.35.49l-5.21.77c-7.45.79-17.82 1.24-25.78-.56q-.53-.11-.05-.35 1.27-.62 2.62-.55 13.76.87 27.5-.33Zm66.33 4.76q2.72 2.05 2.76 5.7a.72.71-12.2 0 1-.44.67l-16.68 7.01a.18.18 0 0 1-.18-.32q7.74-5.56 13.74-12.97a.58.57 38.2 0 1 .8-.09Zm-18.72 13.38c3.46-5.28 8.7-9.44 14.16-12.43a.21.21 0 0 1 .26.33q-6.37 7-14.2 12.33-.67.46-.22-.23Z"/><path fill="#d8d8d9" d="M201.79 148.75q-.06-.99-.64-1.64a.73.72 57 0 0-.82-.18l-1.29.57q2.56-7.1 3.87-14.5.09-.48-.35-.28l-24.06 11.26q-.34-2.89-2.96-2.73l7.79-15.51a.38.38 0 0 0-.49-.52l-6.09 2.74q-.32-1.7-1.75-2.5l8.26-3.01a.55.54-36.1 0 0 .15-.94q-6.16-4.68-8.7-12.01.48-.45 1.4-.77 3.56 6.14 8.76 10.96a.33.33 0 0 0 .54-.13q2.71-7.44 2.09-15.27l1.5-.5q.32.49.88.82a.78.77 16.9 0 1 .38.7q-.17 7.4-2.31 14.48a.47.47 0 0 0 .67.55l15.61-8.27a.66.66 0 0 0-.05-1.19q-5.94-2.63-11.29-6.27a.61.6 33.4 0 1-.17-.82c.92-1.46 10.26 5.12 11.68 5.96a.49.48-77 0 0 .73-.46l-.82-8.77a.55.54-13.4 0 1 .35-.56l2.04-.77a.58.58 0 0 1 .78.47q3.27 25.36-5.69 49.09Zm-12.56-25.68q6.68 4.09 14.07 6.63a.56.55-78.2 0 0 .73-.48l1.32-15.82a.45.45 0 0 0-.72-.39q-7.1 5.58-15.35 9.29a.44.44 0 0 0-.05.77Zm11.37 7q-7.13-1.92-13.47-5.79a.43.43 0 0 0-.64.24q-2.59 8.13-6.78 15.56-.49.88.44.5l22.04-8.94a.74.73 79.8 0 0 .46-.67c.03-1-1.29-.7-2.05-.9Z"/><path fill="#fff" d="M187.5 104.29q.62 7.83-2.09 15.27a.33.33 0 0 1-.54.13q-5.2-4.82-8.76-10.96l11.39-4.44Z"/><path fill="#4a4949" d="m77.75 116.54 8.75 1q11.74 1.47 23.5.17l10.25-1.17q17.18-2.02 31.71-11.29l-.25 1.75-2.71 3.29c-1.17-.11-2.07-.22-3.13.46-6.18 3.92-12.17 5.51-20.12 7.46l-7 1.25q-14.34 1.62-28.75.83l-17.5-2q-10.59-2.15-20.17-7.12a1.11 1.1 46.6 0 0-.93-.03l-.9.4q-2.47-1.78-4.21-4.29l-.27-1.94c9.68 6.15 20.45 9.61 31.73 11.23Z"/><path fill="#d8d8d9" d="M151.71 107q.87 4.95.58 10l-8.08 7.25c-6.04 4.73-11.17 10.65-10.75 18.75l-8.96 2.04q-1.56.34-2.86-.37-.65-.36.08-.46l2.5-.34a.64.64 0 0 0 .55-.7q-.98-10.34-.36-20.74.05-.84-.21-1.62a.47.46-18.6 0 1 .29-.58l2.01-.69c7.49-1.19 16.82-4.02 22.5-9.25l2.71-3.29Zm-105.42.25q1.74 2.51 4.21 4.29 9.62 6.57 21.25 7.92.45 1.36-.52 2.45a1.4 1.4 0 0 0-.34.86c-.16 5.42.34 18.42-.6 19.51a.37.37 0 0 0 .11.57q2.76 1.46 5.95 1.38c.18-.01.41.1.51.22a.39.38 58.7 0 1-.14.59q-.69.3-1.47.25c-9.25-1.48-22.2-4.67-28.5-11.83l.09-.56q.15-.9-.54-.3l-.74.63q-.48.42-.41-.22l.31-3.01c.21-4.41-.76-19.82.83-22.75Z"/><path fill="#fff" d="M174.71 109.5q2.54 7.33 8.7 12.01a.55.54-36.1 0 1-.15.94l-8.26 3.01-9.59 2.96q-.62.19-.29-.37 4.73-7.78 8.03-16.29.21-.53-.35-.4-2.57.61-3.34 2.12-3.94 7.75-8.62 14.94a.36.36 0 0 1-.63-.05q-2.28-4.84-1.51-10.03c.09-.58-.05-.83-.24-1.34q7.79-4.47 16.25-7.5Z"/><path fill="#727173" d="M149 110.29c-5.68 5.23-15.01 8.06-22.5 9.25l-.75-1.33c7.95-1.95 13.94-3.54 20.12-7.46 1.06-.68 1.96-.57 3.13-.46Zm-76.5 8-.75 1.17q-11.63-1.35-21.25-7.92l.9-.4a1.11 1.1 46.6 0 1 .93.03q9.58 4.97 20.17 7.12Z"/><path fill="#c4c4c5" d="M175 125.46q1.43.8 1.75 2.5l-13.43 4.19a.48.47 60.4 0 0-.21.77q4.82 5.42 11.06 9.15a.8.8 0 0 0 .91-.07q.33-.26.46-.75 2.62-.16 2.96 2.73 8.94 4.62 19.06 6.16a.64.61 13.9 0 0 .69-.4l.79-2.24 1.29-.57a.73.72 57 0 1 .82.18q.58.65.64 1.64-3.2 8.6-7.67 16.62a1.02 1.01-85.5 0 1-.52.45l-.35.14-.25-1.25 4.47-12.15a.22.22 0 0 0-.3-.27q-11.84 5.47-24.67 7.92v-1.5l23.06-6.81a.46.46 0 0 0-.07-.9q-9.75-1.29-18.95-4.72a.56.55 27.1 0 0-.64.2l-8.11 11.27q-.87-1.22-2.25-.5l6.61-10.24a.39.38-81.7 0 0-.43-.58l-8.47 2.53q.24-1.41-1-2l8.12-2.87a.44.43 50.3 0 0 .07-.79q-5.58-3.24-9.8-8.12a.48.47-44.6 0 0-.71 0l-3.68 4.11q-.54-1.13-1.75-1.33l2.49-3.76q.45-.7-.35-.47-2.84.8-3.06 3.96a.3.29 5 0 0 .27.31l.4.04-8.63 12.26a.41.41 0 0 1-.62.06l-1.87-1.79a.41.4-57 0 1-.09-.45c.17-.4 2.35-.21 2.99-.87q3.29-3.44 7.04-9.64a.84.83-49.5 0 0-.07-.98l-.42-.51a.53.52 53.9 0 1 .12-.79c1.01-.62 1.79-2.61.05-2.87l.75-.42q1.78-.06 3.44-1a.51.5 61.1 0 0 .19-.68q-2.87-5.24-1.8-10.94c.06-.27-.09-.62-.33-.71l3.46-1.71c.19.51.33.76.24 1.34q-.77 5.19 1.51 10.03a.36.36 0 0 0 .63.05q4.68-7.19 8.62-14.94.77-1.51 3.34-2.12.56-.13.35.4-3.3 8.51-8.03 16.29-.33.56.29.37l9.59-2.96Z"/><path fill="#fff" d="M189.23 123.07a.44.44 0 0 1 .05-.77q8.25-3.71 15.35-9.29a.45.45 0 0 1 .72.39l-1.32 15.82a.56.55-78.2 0 1-.73.48q-7.39-2.54-14.07-6.63Z"/><path fill="#c4c4c5" d="m72.5 118.29 17.5 2q-1.94-.28-2.5 1.17l-3.65-.16a.78.77-88.2 0 0-.81.77l-.13 22.43a.46.46 0 0 0 .35.46l1.14.29a.48.47-83 0 1 .35.46v.32a.49.48-3.3 0 1-.43.48l-.32.03-8.75-1.25q.78.05 1.47-.25a.39.38 58.7 0 0 .14-.59.709.709 0 0 0-.51-.22q-3.19.08-5.95-1.38a.37.37 0 0 1-.11-.57c.94-1.09.44-14.09.6-19.51a1.4 1.4 0 0 1 .34-.86q.97-1.09.52-2.45l.75-1.17Zm53.25-.08.75 1.33-2.01.69a.47.46-18.6 0 0-.29.58q.26.78.21 1.62-.62 10.4.36 20.74a.64.64 0 0 1-.55.7l-2.5.34q-.73.1-.08.46 1.3.71 2.86.37l-10.75 1.5q-.75.22-1.25-.17a.51.51 0 0 1 .02-.83l.79-.55a1 .99 71.8 0 0 .43-.86c-.28-6.72-1.41-16.63.97-22.88l3.87-.8a.79.79 0 0 0 .53-.41l.13-.27a.17.17 0 0 0-.13-.25l-.36-.06 7-1.25Z"/><path fill="#fff" d="M155 118.71c.24.09.39.44.33.71q-1.07 5.7 1.8 10.94a.51.5 61.1 0 1-.19.68q-1.66.94-3.44 1c-1.54-.34-1.41-9.79-1.54-11.54l3.04-1.79Zm-36.25.75.36.06a.17.17 0 0 1 .13.25l-.13.27a.79.79 0 0 1-.53.41l-3.87.8-10.04.97-10.42-.01-6.75-.75q.56-1.45 2.5-1.17 14.41.79 28.75-.83Z"/><path fill="#d8d8d9" d="M151.96 120.5c.13 1.75 0 11.2 1.54 11.54l-.75.42-14.58 4.21a.55.55 0 0 1-.67-.73q2.48-6.4 7.25-11.15 3.35-2.58 7.21-4.29Z"/><path fill="#b5b5b7" d="m87.5 121.46 6.75.75q-1.53-.23-1.47.7.81 13.41.23 22.59a.46.45 6.4 0 0 .38.47q5.21.88 10.37-.06a.54.54 0 0 0 .44-.52l.47-23.17 10.04-.97c-2.38 6.25-1.25 16.16-.97 22.88a1 .99 71.8 0 1-.43.86l-.79.55a.51.51 0 0 0-.02.83q.5.39 1.25.17-14.87 1.64-29.75 0l.32-.03a.49.48-3.3 0 0 .43-.48v-.32a.48.47-83 0 0-.35-.46l-1.14-.29a.46.46 0 0 1-.35-.46l.13-22.43a.78.77-88.2 0 1 .81-.77l3.65.16Z"/><path fill="#a6a6a9" d="m94.25 122.21 10.42.01-.47 23.17a.54.54 0 0 1-.44.52q-5.16.94-10.37.06a.46.45 6.4 0 1-.38-.47q.58-9.18-.23-22.59-.06-.93 1.47-.7Z"/><path fill="#a6a6a9" d="m144.21 124.25.54.54q-4.77 4.75-7.25 11.15a.55.55 0 0 0 .67.73l14.58-4.21c1.74.26.96 2.25-.05 2.87a.53.52 53.9 0 0-.12.79l.42.51a.84.83-49.5 0 1 .07.98q-3.75 6.2-7.04 9.64c-.64.66-2.82.47-2.99.87a.41.4-57 0 0 .09.45l1.87 1.79a.41.41 0 0 0 .62-.06l8.63-12.26.25-.08q1.21.2 1.75 1.33l-9.3 12.01a.45.45 0 0 0 .51.7l14.79-5.04q1.24.59 1 2l-13.92 3.93a.32.32 0 0 0-.08.59q6.66 3.88 14.08 5.95a.77.76 25.7 0 0 .82-.28l1.39-1.9q1.38-.72 2.25.5-.87.87-1.31 1.97-.2.51.33.38l5.69-1.39v1.5l-2.28.58q-.66.17 0 .32 11.27 2.58 22.78 3.6l.25 1.25c-17.5-.39-38.03-3.29-52.75-14l-3.27-2.51a.88.87-37.7 0 0-.89-.11q-5.14 2.23-10.74 2.71a1.26 1.25-69.3 0 0-.76.35c-1.03 1.01-12.27 1.86-13.18 1.97-5.38.61-11.76.23-17.66.59q-.41.02-.78-.17-.57-.29.07-.25 2.2.11 4.41-.24 1.41-.22-.02-.28l-12.92-.52q-.62-.02-.09-.35.67-.43 1.58-.19c9.02.68 19.62.79 29.45-.66 7-1.04 13.26-1.74 19.8-4.76l-2.04-4.54c-.42-8.1 4.71-14.02 10.75-18.75Zm3.54 12.21-9.68 1.73a.7.69-3.3 0 0-.57.63q-.13 1.44 1 2.47-.03 2.24 1.6 3.65a.69.67 48.5 0 0 .81.06c2.84-1.77 5.2-3.17 7.43-5.92q1.39-1.72 3.05-3.22a.36.36 0 0 0 .07-.45l-.15-.24a.26.25-26.5 0 0-.32-.1l-3.24 1.39Z"/><path fill="#fff" d="M200.6 130.07c.76.2 2.08-.1 2.05.9a.74.73 79.8 0 1-.46.67l-22.04 8.94q-.93.38-.44-.5 4.19-7.43 6.78-15.56a.43.43 0 0 1 .64-.24q6.34 3.87 13.47 5.79Zm-25.06 11.18q-.13.49-.46.75a.8.8 0 0 1-.91.07q-6.24-3.73-11.06-9.15a.48.47 60.4 0 1 .21-.77l13.43-4.19 6.09-2.74a.38.38 0 0 1 .49.52l-7.79 15.51Z"/><path fill="#b5b5b7" d="m45.46 130-.31 3.01q-.07.64.41.22l.74-.63q.69-.6.54.3l-.09.56q-.59 2.27 1.04 4.04c.87 11.05 28.06 14.24 38.46 15.46q-.91-.24-1.58.19-.53.33.09.35l12.92.52q1.43.06.02.28-2.21.35-4.41.24-.64-.04-.07.25.37.19.78.17l8.69.18q.9.02 0 .04-6.43.17-18.69-.19-4.18-.12-7.38-1.38c-2.04-.81-4.19-.13-6.47-.78q-6.5-1.86-13.01-3.65-3.03-.83-5.17-2.47c-4.03-3.08-7.76-5.94-7.55-11.64q.03-.55-.17-.04-.43 1.14-.36 2.41.02.46-.03.01l-.4-3.45q-.22-2.69 2-4Z"/><path fill="#fff" d="m199.04 147.5-.79 2.24a.64.61 13.9 0 1-.69.4q-10.12-1.54-19.06-6.16l24.06-11.26q.44-.2.35.28-1.31 7.4-3.87 14.5Z"/><path fill="#4a4949" d="M46.75 133.46c6.3 7.16 19.25 10.35 28.5 11.83l8.75 1.25q14.88 1.64 29.75 0l10.75-1.5 8.96-2.04 2.04 4.54q-4.36.05-8.54 1.2c-3.22.89-6.23 1.02-9.4 1.61-16.08 3.01-34.35 1.13-50.46-2.39-7.13-1.55-14.53-4.02-19.31-10.46q-1.63-1.77-1.04-4.04Z"/><path fill="#fff" d="m154.5 137.96-.25.08-.4-.04a.3.29 5 0 1-.27-.31q.22-3.16 3.06-3.96.8-.23.35.47l-2.49 3.76Z"/><path fill="#d8d8d9" d="m43.46 134 .4 3.45q.05.45.03-.01-.07-1.27.36-2.41.2-.51.17.04c-.21 5.7 3.52 8.56 7.55 11.64q2.14 1.64 5.17 2.47 6.51 1.79 13.01 3.65c2.28.65 4.43-.03 6.47.78q3.2 1.26 7.38 1.38 12.26.36 18.69.19.9-.02 0-.04l-8.69-.18c5.9-.36 12.28.02 17.66-.59.91-.11 12.15-.96 13.18-1.97a1.26 1.25-69.3 0 1 .76-.35q5.6-.48 10.74-2.71a.88.87-37.7 0 1 .89.11l3.27 2.51q-3.65.37-6.96 1.78c-4.79 2.03-8.6 2.3-13.48 2.3a1.67 1.64-61.4 0 0-.92.28c-2.69 1.8-15.64 1.79-19.33 1.86-3.16.06-6.78-.44-10.24-.46-3.43-.02-7.34-.72-11.03-.69-3.55.03-6.54-1.42-10.01-2.02-2.45-.42-4.68-2-7.43-2.21a1.67 1.59-20.6 0 1-.92-.39q-1.97-1.77-4.74-1.58a1.25 1.23-26.4 0 1-.91-.3q-1.35-1.17-2.68-2.28c-1.93-1.6-4.29-1.87-5.86-4.46a1.28 1.24 82.3 0 0-.7-.55c-2.58-.82-2.43-7.27-1.83-9.24Z"/><path fill="#4a4949" d="M138.5 141.29q4.99-1.4 9.25-4.83l3.24-1.39a.26.25-26.5 0 1 .32.1l.15.24a.36.36 0 0 1-.07.45q-1.66 1.5-3.05 3.22c-2.23 2.75-4.59 4.15-7.43 5.92a.69.67 48.5 0 1-.81-.06q-1.63-1.41-1.6-3.65Z"/><path fill="#fff" d="M162.25 146.96 147.46 152a.45.45 0 0 1-.51-.7l9.3-12.01 3.68-4.11a.48.47-44.6 0 1 .71 0q4.22 4.88 9.8 8.12a.44.43 50.3 0 1-.07.79l-8.12 2.87Z"/><path fill="#d8d8d9" d="M147.75 136.46q-4.26 3.43-9.25 4.83-1.13-1.03-1-2.47a.7.69-3.3 0 1 .57-.63l9.68-1.73Z"/><path fill="#727173" d="M47.79 137.5c4.78 6.44 12.18 8.91 19.31 10.46 16.11 3.52 34.38 5.4 50.46 2.39 3.17-.59 6.18-.72 9.4-1.61q4.18-1.15 8.54-1.2c-6.54 3.02-12.8 3.72-19.8 4.76-9.83 1.45-20.43 1.34-29.45.66-10.4-1.22-37.59-4.41-38.46-15.46Z"/><path fill="#fff" d="m172.5 158.71-5.69 1.39q-.53.13-.33-.38.44-1.1 1.31-1.97l8.11-11.27a.56.55 27.1 0 1 .64-.2q9.2 3.43 18.95 4.72a.46.46 0 0 1 .07.9l-23.06 6.81Zm-6.96-1.46-1.39 1.9a.77.76 25.7 0 1-.82.28q-7.42-2.07-14.08-5.95a.32.32 0 0 1 .08-.59l13.92-3.93 8.47-2.53a.39.38-81.7 0 1 .43.58l-6.61 10.24Z"/><path fill="#727173" d="M0 149.94v-1.25l.46-1.02q.27-.6.57-.01.5.98 1.58.85.94-.11.39.66-1.2 1.67-3 .77Z"/><path fill="#fff" d="M193 164.71q-11.51-1.02-22.78-3.6-.66-.15 0-.32l2.28-.58q12.83-2.45 24.67-7.92a.22.22 0 0 1 .3.27L193 164.71Z"/><path d="M117.75 168.07v7.2a.49.49 0 0 1-.52.49l-.61-.04a.66.65-88.6 0 1-.62-.66v-7.07a.5.49.6 0 0-.49-.49q-.98-.02-1.26-.87a.5.49-16 0 1 .35-.63l1.05-.26a.61.6 79.7 0 0 .45-.66c-.22-2.04 2.39-5.69 4.36-3.48a.56.56 0 0 1-.42.94q-2.56-.02-2.28 2.67a.78.77-88.6 0 0 .65.69l1.05.16a.87.86-11.3 0 1 .61.4l.19.29a.34.34 0 0 1-.24.52l-1.83.29a.52.52 0 0 0-.44.51Z"/><ellipse rx="1.18" ry="1.04" transform="rotate(-15.9 615.247 -158.204)"/><path d="M55.55 172.22a.35.34-44.8 0 0 .63 0l4.32-9.69a1.17 1.17 0 0 1 2.24.47l.09 12.16a.56.56 0 0 1-.55.56h-.8a.55.54 1 0 1-.55-.56l.25-9.14q.04-1.31-.49-.11l-4.22 9.54a.66.66 0 0 1-1.2 0l-4.1-9.37a.38.38 0 0 0-.72.16l.16 8.96a.54.53-89 0 1-.56.55l-.5-.02a.57.57 0 0 1-.54-.57l-.06-12.47a.6.59 87.4 0 1 .54-.6l.99-.1a.88.88 0 0 1 .89.53l4.18 9.7Zm143.64-7.53q-.17-1.02-.54-2.1-.32-.93.55-.49l.35.18a.54.52 15.6 0 1 .29.5l-.17 2.74a.12.12 0 0 1-.22.07q-.56-.69-.26-.9Zm3.73.08q1.13-.61 1.26-2.07a.48.48 0 0 1 .72-.37q.11.07.19.18a.21.17-65.7 0 1 .04.15l-.27 2.51a.35.35 0 0 1-.36.31l-2.68-.04a.47.47 0 0 1-.46-.44l-.15-2.12a.38.37-87.6 0 1 .43-.4c.8.12.73 1.32.7 1.92q-.04.7.58.37Zm-76.63 1.48-.29.96-1.44.4a.6.59 82 0 0-.44.59l.18 5.4a.72.72 0 0 0 .56.68l1.29.28a.51.51 0 0 1 .36.69q-.23.58-1.03.69c-4.17.59-2.99-5.42-3-7.8a.63.62-80 0 0-.41-.59l-1.1-.39a.34.33-65.6 0 1-.18-.49l.18-.29a.75.75 0 0 1 .63-.37q1.37-.05.82-1.69a.7.7 0 0 1 .45-.89l.66-.21a.48.48 0 0 1 .63.5l-.13 1.35a.66.66 0 0 0 .49.7l1.77.48Z"/><path fill="#727173" d="m132.54 168.25-.29-.29.55-1.08a.69.69 0 0 0-.14-.82q-.59-.54-1.41-.02l-.16-.5a.6.59-12.6 0 0-.65-.41l-2.65.37c2.52-3.72 7.68-.07 4.75 2.75Z"/><path fill="#a6a6a9" d="m131.25 166.04-.25.25-1.5.25-1.71-1.04 2.65-.37a.6.59-12.6 0 1 .65.41l.16.5Z"/><path d="M76.72 167.67c-7.43-2.54-5.83 9.64-.06 6.28q.61-.36.6.34l-.01.51a.85.82-14.7 0 1-.44.73c-8.06 4.37-9.71-12.59-.12-9.5a.86.84 4.6 0 1 .59.68l.06.44a.47.47 0 0 1-.62.52Zm5.21-1.21 1.87-.85a.65.64 75.9 0 1 .91.55l.04.7a.56.56 0 0 1-.63.59c-3.57-.45-3.02 4.86-2.84 7.58a.65.64 86.5 0 1-.6.69l-.54.03a.61.6 88.2 0 1-.64-.61v-8.91q0-.93.77-.4l.78.55a.93.92 50 0 0 .88.08Z"/><path d="M89.574 176.031a5.22 4.89 96 0 1-4.317-5.702 5.22 4.89 96 0 1 5.409-4.68 5.22 4.89 96 0 1 4.317 5.702 5.22 4.89 96 0 1-5.409 4.68Zm.517-1.481a3.69 3.14 90.6 0 0 3.179-3.657 3.69 3.14 90.6 0 0-3.101-3.723 3.69 3.14 90.6 0 0-3.179 3.657 3.69 3.14 90.6 0 0 3.101 3.723Z"/><path d="M100.07 172.11c-9.8-5.3 2.91-8.28 2.09-4.87a.49.49 0 0 1-.62.36c-1.22-.37-3.04-.77-3.25.94a.89.87-72.6 0 0 .44.86l3.03 1.73a2 1.99 29.7 0 1 .75 2.71c-1.52 2.68-6.98 2.89-6 .3a.45.44-64.5 0 1 .63-.23c1.18.67 4.29.91 3.55-1.08a1.38 1.34-86.7 0 0-.62-.72Z"/><path d="M108.388 176.065a5.24 4.89 94.4 0 1-4.474-5.6 5.24 4.89 94.4 0 1 5.278-4.85 5.24 4.89 94.4 0 1 4.474 5.6 5.24 4.89 94.4 0 1-5.278 4.85Zm.386-1.555a3.67 3.11 90.4 0 0 3.136-3.648 3.67 3.11 90.4 0 0-3.084-3.692 3.67 3.11 90.4 0 0-3.136 3.648 3.67 3.11 90.4 0 0 3.084 3.692Z"/><path fill="#d8d8d9" d="m132.25 167.96-.57-.08a.67.66 89.9 0 1-.56-.57l-.12-1.02.25-.25q.82-.52 1.41.02a.69.69 0 0 1 .14.82l-.55 1.08Z"/><rect width="1.78" height="9.7" x="-.89" y="-4.85" rx=".31" transform="rotate(.2 -48922.9 19239.405)"/><path fill="#b5b5b7" d="M126.29 166.25q1.78-.25 2.21 1.46l-.5.33q-.76-.93-2-.83l.29-.96Z"/><path d="m131 166.29.12 1.02a.67.66 89.9 0 0 .56.57l.57.08.29.29-1.29.96-.21-.96-1.54-1.71 1.5-.25Z"/><ellipse fill="#fff" rx="3.69" ry="3.14" transform="rotate(90.6 -39.475 130.026)"/><ellipse fill="#fff" rx="3.67" ry="3.11" transform="rotate(90.4 -30.426 139.442)"/><path fill="#727173" d="m128.5 167.71 1.9 1.09a.35.35 0 0 0 .5-.18l.14-.37.21.96q-2.21 1.14-3.25-1.17l.5-.33Z"/><path d="M47.6 211.16c3.3 2.24 7.45 3.74 11.32 2.72 6.33-1.66 5.51-7.81.83-10.85-5.99-3.9-17.66-9.82-10.72-19.13 3.8-5.1 11.35-5.3 16.99-3.43a.71.7-80.9 0 1 .48.67v4.05q0 .6-.51.29c-3.9-2.44-11.77-3.5-13.71 2-2.78 7.91 12.33 10.28 15 16.76 2.42 5.89-.48 11.72-6.6 13.42q-6.52 1.81-13.18-1.29a.88.87 12.9 0 1-.51-.81l.03-4.1q.01-.68.58-.3Zm46.43 6.93 7.58 7.92q.97 1.01-.44 1.01l-4.48-.03a1.05 1.03-20.1 0 1-.79-.36l-6.75-7.86a1.31 1.29-17.1 0 0-.87-.45c-12.7-1.01-18.42-11.4-16.55-23.25 4.02-25.48 41.8-18.75 34.2 10.39q-2.47 9.44-11.72 12a.38.38 0 0 0-.18.63Zm6.84-26.89c-3.35-9.02-14.95-9.87-20.6-3.77-9.17 9.89-2.23 32.07 13.93 25.8 8.33-3.23 9.44-14.58 6.67-22.03Zm49.44 22.99c4.49.51 9.73-2.26 7.62-7.53-1.35-3.4-7.41-6.56-10.58-8.52-8.61-5.34-5.97-16.93 3.89-18.46q5.02-.77 9.79.83a.7.69-80.7 0 1 .47.66v3.97q0 .7-.59.33c-5.07-3.2-14.56-3.33-13.91 5.26.28 3.78 11.29 8.2 14.03 11.72 2.71 3.49 2.73 8.43 0 11.77-4.25 5.21-12.88 4.82-18.49 2.11a.7.7 0 0 1-.4-.63l-.01-4.19q0-.58.49-.26 3.74 2.49 7.69 2.94Zm-32.7-.69h14.24a.41.41 0 0 1 .41.41l-.01 3.43a.41.41 0 0 1-.41.41h-18.93a.41.41 0 0 1-.41-.41v-36.81a.41.41 0 0 1 .39-.41l3.96-.16a.41.41 0 0 1 .43.41l-.08 32.72a.41.41 0 0 0 .41.41Z"/><path fill="#fff" d="M80.27 187.43c5.65-6.1 17.25-5.25 20.6 3.77 2.77 7.45 1.66 18.8-6.67 22.03-16.16 6.27-23.1-15.91-13.93-25.8Z"/><path fill="#727173" d="m283.75 194.21-.04-.46q.52-.77.19-1.79a.55.55 0 0 0-.92-.22q-.89.91-.23 1.97l-.59.89q-1.72-1.3-2.74-3.18a.71.71 0 0 1 .11-.82c2.48-2.61 6.96 1.79 4.22 3.61Z"/><path d="M170.81 206.4c.52 8.85 10.2 9.92 16.34 5.56q.61-.43.6.32v3.04a.8.8 0 0 1-.41.7c-15.37 8.65-26.59-7.15-18.8-20.47 4.62-7.9 16.49-7.11 20.21 1.47q1.12 2.57.84 7.89a.61.6 1.5 0 1-.61.57l-17.26-.04a.91.9-1.8 0 0-.91.96Zm14.36-5.38c-.2-9.96-12.53-8.84-14.29-.02a.42.41 6.1 0 0 .41.5h13.41a.47.47 0 0 0 .47-.48Zm54.68 4.94c1.15 9.66 9.21 10.24 16.55 5.97q.61-.36.55.35l-.25 3.07a1.01 1 78 0 1-.52.81c-7.54 4.08-17.71 2.72-20.27-6.59-6.21-22.65 25.62-27.04 22.67-4.6a.56.55-86 0 1-.56.49l-17.67-.06a.51.5 86.9 0 0-.5.56Zm14.26-4.87c.31-9.51-12.06-9.5-14.02-.09a.41.41 0 0 0 .4.49l13.18.02a.43.43 0 0 0 .44-.42Zm14.1-5.87q2.35-5.85 8.66-4.68a.54.54 0 0 1 .44.53l-.03 3.4a.42.42 0 0 1-.52.4c-12.05-2.89-9.08 15.92-9 22.23a.64.64 0 0 1-.64.65h-3.24a.63.63 0 0 1-.63-.63v-25.87a.5.5 0 0 1 .5-.5h3.4a.61.61 0 0 1 .61.65l-.22 3.67q-.13 2.14.67.15Zm-69.71.02a.31.3 55.3 0 0 .59.11q2.16-5.78 8.49-4.78a.79.79 0 0 1 .67.78l-.01 3.17a.39.39 0 0 1-.51.37c-11.84-3.89-9.25 16.71-9.24 22.33a.53.53 0 0 1-.53.53h-3.1a.65.65 0 0 1-.65-.65l.06-25.86a.49.49 0 0 1 .49-.49H198a.5.5 0 0 1 .5.5v3.99Zm23.47 17.48 7.65-21.55a.75.74 10.3 0 1 .72-.49l3.53.09a.42.42 0 0 1 .38.58l-10.26 25.82a.9.9 0 0 1-.85.57l-2.99-.05a1.01 1.01 0 0 1-.93-.66l-9.65-25.62a.49.49 0 0 1 .46-.66h3.67a.75.75 0 0 1 .71.51l7.38 21.45q.08.26.18.01Z"/><path fill="#fff" d="m283.71 193.75-.96-.04q-.66-1.06.23-1.97a.55.55 0 0 1 .92.22q.33 1.02-.19 1.79Z"/><path d="m282.16 194.6.59-.89.96.04.04.46c-1.06 1.55-4.24 1.86-4.42-.35a.22.22 0 0 1 .37-.17q1.78 1.71 2.46.91Z"/><path fill="#fff" d="M170.88 201c1.76-8.82 14.09-9.94 14.29.02a.47.47 0 0 1-.47.48h-13.41a.42.41 6.1 0 1-.41-.5Zm69.21 0c1.96-9.41 14.33-9.42 14.02.09a.43.43 0 0 1-.44.42l-13.18-.02a.41.41 0 0 1-.4-.49Z"/></svg>