<svg xmlns="http://www.w3.org/2000/svg" viewBox="0 0 315 287"><g fill="none" stroke-width="2"><path stroke="#a8acd7" d="m139.49 78.52-4.74 5.02" vector-effect="non-scaling-stroke"/><path stroke="#a3b6db" d="M134.75 83.54q-7.56-10.73-19.29-16.81" vector-effect="non-scaling-stroke"/><path stroke="#bbe2f6" d="M115.46 66.73q-13.26-7.31-27.26-4.56c-17.34 3.4-29.55 20.23-24.66 38.08" vector-effect="non-scaling-stroke"/><path stroke="#a7c7e8" d="M63.54 100.25c-.27.61-.42 1.41-.18 2.09q7.65 21.47 27.74 28.15c21.93 7.3 39.97-4.93 56.37-17.81" vector-effect="non-scaling-stroke"/><path stroke="#a3b6db" d="M147.47 112.68q5.17 8.2 12.53 14.03" vector-effect="non-scaling-stroke"/><path stroke="#a8acd7" d="M160 126.71c28.58 20.39 70.79 9.98 79.71-26.21" vector-effect="non-scaling-stroke"/><path stroke="#a297c2" d="M239.71 100.5q.93-4.46.75-9" vector-effect="non-scaling-stroke"/><path stroke="#af98cb" d="M240.46 91.5c-.06-26.33-21.81-44.57-47.02-44.89-23.31-.29-40.12 15.16-53.95 31.91" vector-effect="non-scaling-stroke"/><path stroke="#52308e" d="m240.46 91.5-1.56-5.24" vector-effect="non-scaling-stroke"/><path stroke="#5845a3" d="M238.9 86.26q-6.12-14.9-22.65-15.28c-2.95-.06-12.54.59-14.5 3.23" vector-effect="non-scaling-stroke"/><path stroke="#af98cb" d="M201.75 74.21q-16.92 8.46-31.71 20.29" vector-effect="non-scaling-stroke"/><path stroke="#5845a3" d="M170.04 94.5c-1.93-3.91-4.95-4.21-7.99-6.24-4.87-3.25-10.72-6.2-16.45-7.69q-3.13-.81-6.11-2.05" vector-effect="non-scaling-stroke"/><path stroke="#4b4499" d="M239.71 100.5c-2.6.66-6.44-1.51-9.88-2.26-2.73-.6-5.2-2.2-8.12-2.78-5.06-1.01-8.79-4.92-14.42-3.96" vector-effect="non-scaling-stroke"/><path stroke="#a297c2" d="M207.29 91.5q-.81-9.13-5.08-17.25" vector-effect="non-scaling-stroke"/><path stroke="#4b4499" d="M238.9 86.26q-7.56-13.67-23.4-14.51-4.63-.25-13.29 2.5" vector-effect="non-scaling-stroke"/><path stroke="#a8acd7" d="m202.21 74.25-.46-.04" vector-effect="non-scaling-stroke"/><path stroke="#5074c0" d="m153.36 108.17-22.94-18.72q-.37-.3-.16-.73.24-.49-.01-1.01" vector-effect="non-scaling-stroke"/><path stroke="#a8acd7" d="M207.29 91.5q1.46 18.78-11.7 31.17c-2.28 2.14-4.25 2.14-7.09 1.37" vector-effect="non-scaling-stroke"/><path stroke="#a3b6db" d="M188.5 124.04q-19.24-3.8-35.25-15.08" vector-effect="non-scaling-stroke"/><path stroke="#a7c7e8" d="m153.25 108.96.11-.79" vector-effect="non-scaling-stroke"/><path stroke="#a8acd7" d="m153.36 108.17 16.68-13.67" vector-effect="non-scaling-stroke"/><path stroke="#4c63b3" d="M160 126.71q2.18-.74 3.8.98.33.35.8.44 11.69 2.32 23.01-1.22.45-.14.53-.61l.36-2.26M134.75 83.54q-2.81 1.48-4.5 4.17" vector-effect="non-scaling-stroke"/><path stroke="#4b7ec4" d="m130.25 87.71-2 2.17" vector-effect="non-scaling-stroke"/><path stroke="#a3b6db" d="M128.25 89.88q-5.18-4.21-10.75-6.67" vector-effect="non-scaling-stroke"/><path stroke="#4b7ec4" d="m153.25 108.96-5.78 3.72" vector-effect="non-scaling-stroke"/><path stroke="#9bbbdc" d="m64.5 100.96-.25.26q-.36.39-.12.86 4.18 8.32 13.37 10.38" vector-effect="non-scaling-stroke"/><path stroke="#5e98d2" d="M115.46 66.73q.62 1.55 2.1 2.35.47.26.57.77 1.35 6.78-.63 13.36" vector-effect="non-scaling-stroke"/><path stroke="#bbe2f6" d="M117.5 83.21q-16.84-7.02-31.75 3.08" vector-effect="non-scaling-stroke"/><path stroke="#5e98d2" d="M85.75 86.29c-7.56 4.32-10.35 12.97-10.22 21.21.03 1.4-.39 1.88-1.07 3" vector-effect="non-scaling-stroke"/><path stroke="#aed5e9" d="M74.46 110.5q-6.52-3.16-9.96-9.54" vector-effect="non-scaling-stroke"/><path stroke="#63aadf" d="m64.5 100.96-.96-.71" vector-effect="non-scaling-stroke"/><path stroke="#a7c7e8" d="M128.25 89.88c-13.07 15.1-29.17 28.84-50.75 22.58" vector-effect="non-scaling-stroke"/><path stroke="#f3f3f3" d="m77.5 112.46-.21-.71" vector-effect="non-scaling-stroke"/><path stroke="#a3b6db" d="M77.29 111.75q-3.58-15.65 8.46-25.46" vector-effect="non-scaling-stroke"/><path stroke="#96a9cf" d="M77.29 111.75q-1.61.05-2.83-1.25" vector-effect="non-scaling-stroke"/><path stroke="#f3f3f3" d="M47.25 238.21q.28.15.49.41.33.43-.05.82l-.37.37q-.38.38-.12.84c1.94 3.44 5.5 2.06 6.54-1.08q.16-.49.54-.84 2.86-2.69 2.92-6.67.01-.54.27-1.02.76-1.37.75-2.99-.01-.49.23-.92 3.08-5.64 5.2-11.71c.61-1.75 1.99-3.05 2.46-5.04 1.79-7.6 5.88-17.86 15.85-15.38" vector-effect="non-scaling-stroke"/><path stroke="#999" d="m81.96 195 .02 36.39a1.68 1.68 0 0 1-1.6 1.68l-5.56.26q-.57.03-.57.6v2.32q0 .47.48.51l4.27.28" vector-effect="non-scaling-stroke"/><path stroke="#f3f3f3" d="M79 237.04q-.19 1.13-1.32 1.5-.6.2-.23.72l.85 1.17q.31.44.85.45l29.01.97q.4.01.72-.23 3.3-2.49 7.35-1.63.49.11.93-.16l4.2-2.55q.46-.28.68-.76 2.33-5.27 3.54-10.89.11-.51-.23-.91-1.84-2.21-2.61-4.79c-.64-2.17-1.67-3.41-3.95-3.18" vector-effect="non-scaling-stroke"/><path stroke="#999" d="m118.79 216.75-3.79-3.79" vector-effect="non-scaling-stroke"/><path stroke="#f3f3f3" d="m115 212.96 3.34-2.89q.38-.33.88-.28 1.03.1 1.49-.97 2.64-6.15-.01-11.55-.23-.48-.73-.65-1.22-.44-2.43-.12" vector-effect="non-scaling-stroke"/><path stroke="#999" d="M117.54 196.5c-1.56-7.6-7.92-10.39-15.05-10.43q-13.75-.08-27.57-.08-.58 0-.61.58l-.15 2.65" vector-effect="non-scaling-stroke"/><path stroke="#f3f3f3" d="m74.16 189.22-2.91.24" vector-effect="non-scaling-stroke"/><path stroke="#999" d="m71.25 189.46-.07-2.86q-.01-.6-.61-.6H52.13q-.63 0-.63.62v2.64q0 .69.68.57c5.2-.9 7.68 1.41 5.82 6.68q-4.78 13.52-9.85 27.02a.37.37 0 0 1-.69 0l-12.6-32.27q-.29-.74.47-.98 2.94-.9 6.04-.41.8.13.82-.68l.08-2.54q.02-.65-.63-.65h-21.3q-.67 0-.63.67l.15 2.63q.05.87.9.7c5.51-1.09 6.64 4.38 8.1 8.09q7.68 19.58 15.37 39.16.18.46.65.64 1.19.44 2.37.32" vector-effect="non-scaling-stroke"/><path stroke="#8d8d8d" d="M71.25 189.46q-5.59.54-7.8 6.53-7.52 20.31-14.73 40.77-.16.47-.56.77l-.91.68M117.54 196.5c.7 6.82-2.49 10.74-8.64 13.3q-.67.28 0 .56l6.1 2.6M118.79 216.75c5.18 11.89-4.53 20.16-15.6 20.21l-24.19.08M81.96 195q.67-3.11-1.04-4.5c-1.65-1.33-4.44-.38-6.76-1.28" vector-effect="non-scaling-stroke"/><path stroke="#f3f3f3" d="M162.6 232.72q-2-11.59-.88-23.25.04-.48.48-.68l2.26-1.04" vector-effect="non-scaling-stroke"/><path stroke="#999" d="M164.46 207.75q10.74 14.16 21.46 28.33.75 1 2.14.94" vector-effect="non-scaling-stroke"/><path stroke="#f3f3f3" d="M188.06 237.02q1.37 2.7 4.33 3.13c1.55.23 2.63.58 3.17-1.09.96-2.94 1.67-4.78 1.66-7.9-.01-9.98.69-20.52.27-30.42q-.01-.35-.33-.52c-1.73-.93.06-2.67.7-3.5q.33-.41.81-.61 2.62-1.09 4.33-3.33.41-.53 0-1.06l-.83-1.07q-.32-.42-.84-.31-1.68.37-3.08-.63" vector-effect="non-scaling-stroke"/><path stroke="#999" d="M198.25 189.71q.57-1.57.15-3.21-.12-.5-.64-.5h-17.38q-.63 0-.63.62v2.43q0 .6.59.67 6.61.86 6.66 7.78.08 12.46-.04 24.99a.36.36 0 0 1-.65.22l-27.68-36.3q-.31-.41-.83-.41h-12.3q-.5 0-.5.5v2.76q0 .79.78.65c5.54-1.04 7.01 2.1 6.99 7.02q-.04 14.29-.06 28.57c-.01 5.54-3.08 6.04-7.11 8.04q-.53.26-.54.84l-.06 1.95q-.02.67.65.67h19.31q.64 0 .61-.64l-.1-2.4q-.02-.55-.56-.68l-2.31-.56" vector-effect="non-scaling-stroke"/><path stroke="#8d8d8d" d="M198.25 189.71c-7.39.71-6.95 5.76-6.97 12.25q-.05 17.25-.03 34.58 0 .49-.49.49l-2.7-.01M164.46 207.75l-7.01-9.31a.23.23 0 0 0-.42.13q-.12 13.62.06 27.25.08 5.83 5.51 6.9" vector-effect="non-scaling-stroke"/><path stroke="#f3f3f3" d="M210.55 237.06q-.81 1.5-2.73 1.31-.9-.09-.3.59l2.71 3.08q.37.42.91.25 5.71-1.81 10.11-1.51 14.62 1.02 25.42.13c.99-.08 1.97.19 3.05.07q.49-.05.73-.49.47-.86.57-1.83.05-.46.34-.83c2.35-2.95.49-15.82-.8-17.54q-.47-.62-.85.06-1.05 1.88-2.75.65" vector-effect="non-scaling-stroke"/><path stroke="#999" d="m246.96 221-.01-3.09q0-.66-.67-.66h-2.77q-.52 0-.58.52c-1.7 13.89-8.97 15.9-21.37 15.47q-2.47-.09-2.52-2.55-.15-8.72.01-17.45.01-.44.44-.54c6.83-1.44 9.87 4.06 9.98 10.08q.01.57.58.51l2.96-.33q.49-.05.49-.54v-23.05q0-.62-.63-.62h-2.93q-.61 0-.61.61.04 9.83-9.75 9.43-.64-.03-.63-.66l.17-16.81a1.6 1.59.4 0 1 1.6-1.57c12.87.02 17.99-.49 20.64 13.62q.1.54.65.56l2.9.11" vector-effect="non-scaling-stroke"/><path stroke="#f3f3f3" d="M244.91 204.04q-.94 4.42 3.06 4.68c2.21.14 3.73.89 5.84.94q.5.01.91.3c2.74 1.93 5.48 1.09 6.77-2.05q1.92-4.65 3.8-9.32c.88-2.16 1.11-3.72 4.17-3.34" vector-effect="non-scaling-stroke"/><path stroke="#999" d="m269.46 195.25.02 36.28q0 1.72-1.72 1.72h-5.15q-.58 0-.64.58l-.25 2.65q-.05.51.46.51l5.13.02" vector-effect="non-scaling-stroke"/><path stroke="#f3f3f3" d="M267.31 237.01q-1.19 1.9-1.05 3.86.05.81.86.78l21.16-.79a.93.92 85.7 0 0 .88-1.03q-.25-2.21-2.44-2.51-.52-.08-.72-.56l-.21-.51" vector-effect="non-scaling-stroke"/><path stroke="#999" d="m285.79 236.25-.05-2.46q-.01-.44-.44-.46l-5.67-.31q-1.63-.08-1.63-1.71.01-19.1-.01-37.69c0-3.63 2.01-4.96 5.29-3.31 5.9 2.96 7.33 9.23 8.41 15.18q.08.48.56.49l3.3.07q.55.02.51-.54l-1.33-18.92q-.04-.59-.64-.59h-40.81q-.47 0-.51.47l-.56 8.03" vector-effect="non-scaling-stroke"/><path stroke="#f3f3f3" d="M252.21 194.5q-4.18-.08-4.47-4.17-.05-.7-.74-.55l-2.21.47" vector-effect="non-scaling-stroke"/><path stroke="#999" d="m244.79 190.25-.34-3.82q-.04-.43-.47-.43h-39.86q-.62 0-.62.63v2.45q0 .58.58.6l4.75.21a1.74 1.74 0 0 1 1.67 1.74v39.79a1.64 1.63-1.7 0 1-1.54 1.63l-4.89.29q-.57.03-.57.6v2.36q0 .7.69.7l6.36.06" vector-effect="non-scaling-stroke"/><path stroke="#8d8d8d" d="M244.79 190.25q.78 6.92.12 13.79M246.96 221l-.92 15.51a.54.53-88.3 0 1-.53.51l-34.96.04M285.79 236.25c.09.49-.02.75-.56.75q-9.03.08-17.92.01M269.46 195.25l-.33-4.4q-.04-.52-.53-.67c-8.29-2.51-11.8 9.57-12.75 15.15q-.12.67-.8.67h-2.79q-.62 0-.59-.63l.54-10.87" vector-effect="non-scaling-stroke"/><path stroke="#999" d="M137.13 233.41a4.85 4.85 0 0 0-4.85-4.85 4.85 4.85 0 0 0-4.85 4.85 4.85 4.85 0 0 0 4.85 4.85 4.85 4.85 0 0 0 4.85-4.85M107.62 202.07c3.08-10.94-7.63-13.99-15.72-11.79a1.9 1.9 0 0 0-1.4 1.83v15.91q0 .64.64.67c6.27.37 14.33 1.05 16.48-6.62M106.07 214.67c-4.05-3.03-10.23-2.24-15.05-2.13q-.5.01-.5.51c-.03 4.93-1.04 14.78.46 19.14q.17.5.69.6c4.87.99 12.79 1.14 16.29-2.98 3.74-4.39 2.73-11.68-1.89-15.14" vector-effect="non-scaling-stroke"/></g><path fill="#fff" d="M0 0h315v287H0V0Zm139.49 78.52-4.74 5.02q-7.56-10.73-19.29-16.81-13.26-7.31-27.26-4.56c-17.34 3.4-29.55 20.23-24.66 38.08-.27.61-.42 1.41-.18 2.09q7.65 21.47 27.74 28.15c21.93 7.3 39.97-4.93 56.37-17.81q5.17 8.2 12.53 14.03c28.58 20.39 70.79 9.98 79.71-26.21q.93-4.46.75-9c-.06-26.33-21.81-44.57-47.02-44.89-23.31-.29-40.12 15.16-53.95 31.91ZM47.25 238.21q.28.15.49.41.33.43-.05.82l-.37.37q-.38.38-.12.84c1.94 3.44 5.5 2.06 6.54-1.08q.16-.49.54-.84 2.86-2.69 2.92-6.67.01-.54.27-1.02.76-1.37.75-2.99-.01-.49.23-.92 3.08-5.64 5.2-11.71c.61-1.75 1.99-3.05 2.46-5.04 1.79-7.6 5.88-17.86 15.85-15.38l.02 36.39a1.68 1.68 0 0 1-1.6 1.68l-5.56.26q-.57.03-.57.6v2.32q0 .47.48.51l4.27.28q-.19 1.13-1.32 1.5-.6.2-.23.72l.85 1.17q.31.44.85.45l29.01.97q.4.01.72-.23 3.3-2.49 7.35-1.63.49.11.93-.16l4.2-2.55q.46-.28.68-.76 2.33-5.27 3.54-10.89.11-.51-.23-.91-1.84-2.21-2.61-4.79c-.64-2.17-1.67-3.41-3.95-3.18l-3.79-3.79 3.34-2.89q.38-.33.88-.28 1.03.1 1.49-.97 2.64-6.15-.01-11.55-.23-.48-.73-.65-1.22-.44-2.43-.12c-1.56-7.6-7.92-10.39-15.05-10.43q-13.75-.08-27.57-.08-.58 0-.61.58l-.15 2.65-2.91.24-.07-2.86q-.01-.6-.61-.6H52.13q-.63 0-.63.62v2.64q0 .69.68.57c5.2-.9 7.68 1.41 5.82 6.68q-4.78 13.52-9.85 27.02a.37.37 0 0 1-.69 0l-12.6-32.27q-.29-.74.47-.98 2.94-.9 6.04-.41.8.13.82-.68l.08-2.54q.02-.65-.63-.65h-21.3q-.67 0-.63.67l.15 2.63q.05.87.9.7c5.51-1.09 6.64 4.38 8.1 8.09q7.68 19.58 15.37 39.16.18.46.65.64 1.19.44 2.37.32Zm115.35-5.49q-2-11.59-.88-23.25.04-.48.48-.68l2.26-1.04q10.74 14.16 21.46 28.33.75 1 2.14.94 1.37 2.7 4.33 3.13c1.55.23 2.63.58 3.17-1.09.96-2.94 1.67-4.78 1.66-7.9-.01-9.98.69-20.52.27-30.42q-.01-.35-.33-.52c-1.73-.93.06-2.67.7-3.5q.33-.41.81-.61 2.62-1.09 4.33-3.33.41-.53 0-1.06l-.83-1.07q-.32-.42-.84-.31-1.68.37-3.08-.63.57-1.57.15-3.21-.12-.5-.64-.5h-17.38q-.63 0-.63.62v2.43q0 .6.59.67 6.61.86 6.66 7.78.08 12.46-.04 24.99a.36.36 0 0 1-.65.22l-27.68-36.3q-.31-.41-.83-.41h-12.3q-.5 0-.5.5v2.76q0 .79.78.65c5.54-1.04 7.01 2.1 6.99 7.02q-.04 14.29-.06 28.57c-.01 5.54-3.08 6.04-7.11 8.04q-.53.26-.54.84l-.06 1.95q-.02.67.65.67h19.31q.64 0 .61-.64l-.1-2.4q-.02-.55-.56-.68l-2.31-.56Zm47.95 4.34q-.81 1.5-2.73 1.31-.9-.09-.3.59l2.71 3.08q.37.42.91.25 5.71-1.81 10.11-1.51 14.62 1.02 25.42.13c.99-.08 1.97.19 3.05.07q.49-.05.73-.49.47-.86.57-1.83.05-.46.34-.83c2.35-2.95.49-15.82-.8-17.54q-.47-.62-.85.06-1.05 1.88-2.75.65l-.01-3.09q0-.66-.67-.66h-2.77q-.52 0-.58.52c-1.7 13.89-8.97 15.9-21.37 15.47q-2.47-.09-2.52-2.55-.15-8.72.01-17.45.01-.44.44-.54c6.83-1.44 9.87 4.06 9.98 10.08q.01.57.58.51l2.96-.33q.49-.05.49-.54v-23.05q0-.62-.63-.62h-2.93q-.61 0-.61.61.04 9.83-9.75 9.43-.64-.03-.63-.66l.17-16.81a1.6 1.59.4 0 1 1.6-1.57c12.87.02 17.99-.49 20.64 13.62q.1.54.65.56l2.9.11q-.94 4.42 3.06 4.68c2.21.14 3.73.89 5.84.94q.5.01.91.3c2.74 1.93 5.48 1.09 6.77-2.05q1.92-4.65 3.8-9.32c.88-2.16 1.11-3.72 4.17-3.34l.02 36.28q0 1.72-1.72 1.72h-5.15q-.58 0-.64.58l-.25 2.65q-.05.51.46.51l5.13.02q-1.19 1.9-1.05 3.86.05.81.86.78l21.16-.79a.93.92 85.7 0 0 .88-1.03q-.25-2.21-2.44-2.51-.52-.08-.72-.56l-.21-.51-.05-2.46q-.01-.44-.44-.46l-5.67-.31q-1.63-.08-1.63-1.71.01-19.1-.01-37.69c0-3.63 2.01-4.96 5.29-3.31 5.9 2.96 7.33 9.23 8.41 15.18q.08.48.56.49l3.3.07q.55.02.51-.54l-1.33-18.92q-.04-.59-.64-.59h-40.81q-.47 0-.51.47l-.56 8.03q-4.18-.08-4.47-4.17-.05-.7-.74-.55l-2.21.47-.34-3.82q-.04-.43-.47-.43h-39.86q-.62 0-.62.63v2.45q0 .58.58.6l4.75.21a1.74 1.74 0 0 1 1.67 1.74v39.79a1.64 1.63-1.7 0 1-1.54 1.63l-4.89.29q-.57.03-.57.6v2.36q0 .7.69.7l6.36.06Zm-73.42-3.65a4.85 4.85 0 0 0-4.85-4.85 4.85 4.85 0 0 0-4.85 4.85 4.85 4.85 0 0 0 4.85 4.85 4.85 4.85 0 0 0 4.85-4.85Z"/><path fill="#5e3197" d="m240.46 91.5-1.56-5.24q-6.12-14.9-22.65-15.28c-2.95-.06-12.54.59-14.5 3.23q-16.92 8.46-31.71 20.29c-1.93-3.91-4.95-4.21-7.99-6.24-4.87-3.25-10.72-6.2-16.45-7.69q-3.13-.81-6.11-2.05c13.83-16.75 30.64-32.2 53.95-31.91 25.21.32 46.96 18.56 47.02 44.89Z"/><path fill="#76c4ec" d="M115.46 66.73q.62 1.55 2.1 2.35.47.26.57.77 1.35 6.78-.63 13.36-16.84-7.02-31.75 3.08c-7.56 4.32-10.35 12.97-10.22 21.21.03 1.4-.39 1.88-1.07 3q-6.52-3.16-9.96-9.54l-.96-.71C58.65 82.4 70.86 65.57 88.2 62.17q14-2.75 27.26 4.56Z"/><path fill="#466cb7" d="M115.46 66.73q11.73 6.08 19.29 16.81-2.81 1.48-4.5 4.17l-2 2.17q-5.18-4.21-10.75-6.67 1.98-6.58.63-13.36-.1-.51-.57-.77-1.48-.8-2.1-2.35Z"/><path fill="#5159ae" d="M238.9 86.26q-7.56-13.67-23.4-14.51-4.63-.25-13.29 2.5l-.46-.04c1.96-2.64 11.55-3.29 14.5-3.23q16.53.38 22.65 15.28Z"/><path fill="#452f84" d="m238.9 86.26 1.56 5.24q.18 4.54-.75 9c-2.6.66-6.44-1.51-9.88-2.26-2.73-.6-5.2-2.2-8.12-2.78-5.06-1.01-8.79-4.92-14.42-3.96q-.81-9.13-5.08-17.25 8.66-2.75 13.29-2.5 15.84.84 23.4 14.51Z"/><path fill="#fff" d="m201.75 74.21.46.04q4.27 8.12 5.08 17.25 1.46 18.78-11.7 31.17c-2.28 2.14-4.25 2.14-7.09 1.37q-19.24-3.8-35.25-15.08l.11-.79 16.68-13.67q14.79-11.83 31.71-20.29Z"/><path fill="#5159ae" d="M139.49 78.52q2.98 1.24 6.11 2.05c5.73 1.49 11.58 4.44 16.45 7.69 3.04 2.03 6.06 2.33 7.99 6.24l-16.68 13.67-22.94-18.72q-.37-.3-.16-.73.24-.49-.01-1.01 1.69-2.69 4.5-4.17l4.74-5.02Z"/><path fill="#fff" d="M117.5 83.21q5.57 2.46 10.75 6.67c-13.07 15.1-29.17 28.84-50.75 22.58l-.21-.71q-3.58-15.65 8.46-25.46 14.91-10.1 31.75-3.08Z"/><path fill="#466cb7" d="M85.75 86.29q-12.04 9.81-8.46 25.46-1.61.05-2.83-1.25c.68-1.12 1.1-1.6 1.07-3-.13-8.24 2.66-16.89 10.22-21.21Z"/><path fill="#4f8fd1" d="M130.25 87.71q.25.52.01 1.01-.21.43.16.73l22.94 18.72-.11.79-5.78 3.72c-16.4 12.88-34.44 25.11-56.37 17.81q-20.09-6.68-27.74-28.15c-.24-.68-.09-1.48.18-2.09l.96.71-.25.26q-.36.39-.12.86 4.18 8.32 13.37 10.38c21.58 6.26 37.68-7.48 50.75-22.58l2-2.17Z"/><path fill="#5159ae" d="M239.71 100.5c-8.92 36.19-51.13 46.6-79.71 26.21q2.18-.74 3.8.98.33.35.8.44 11.69 2.32 23.01-1.22.45-.14.53-.61l.36-2.26c2.84.77 4.81.77 7.09-1.37q13.16-12.39 11.7-31.17c5.63-.96 9.36 2.95 14.42 3.96 2.92.58 5.39 2.18 8.12 2.78 3.44.75 7.28 2.92 9.88 2.26Z"/><path fill="#e6e6e6" d="M64.5 100.96q3.44 6.38 9.96 9.54 1.22 1.3 2.83 1.25l.21.71q-9.19-2.06-13.37-10.38-.24-.47.12-.86l.25-.26Z"/><path fill="#466cb7" d="M153.25 108.96q16.01 11.28 35.25 15.08l-.36 2.26q-.08.47-.53.61-11.32 3.54-23.01 1.22-.47-.09-.8-.44-1.62-1.72-3.8-.98-7.36-5.83-12.53-14.03l5.78-3.72Z"/><path fill="#333" d="M71.25 189.46q-5.59.54-7.8 6.53-7.52 20.31-14.73 40.77-.16.47-.56.77l-.91.68q-1.18.12-2.37-.32-.47-.18-.65-.64-7.69-19.58-15.37-39.16c-1.46-3.71-2.59-9.18-8.1-8.09q-.85.17-.9-.7l-.15-2.63q-.04-.67.63-.67h21.3q.65 0 .63.65l-.08 2.54q-.02.81-.82.68-3.1-.49-6.04.41-.76.24-.47.98l12.6 32.27a.37.37 0 0 0 .69 0q5.07-13.5 9.85-27.02c1.86-5.27-.62-7.58-5.82-6.68q-.68.12-.68-.57v-2.64q0-.62.63-.62h18.44q.6 0 .61.6l.07 2.86ZM117.54 196.5c.7 6.82-2.49 10.74-8.64 13.3q-.67.28 0 .56l6.1 2.6 3.79 3.79c5.18 11.89-4.53 20.16-15.6 20.21l-24.19.08-4.27-.28q-.48-.04-.48-.51v-2.32q0-.57.57-.6l5.56-.26a1.68 1.68 0 0 0 1.6-1.68L81.96 195q.67-3.11-1.04-4.5c-1.65-1.33-4.44-.38-6.76-1.28l.15-2.65q.03-.58.61-.58 13.82 0 27.57.08c7.13.04 13.49 2.83 15.05 10.43Zm-9.92 5.57c3.08-10.94-7.63-13.99-15.72-11.79a1.9 1.9 0 0 0-1.4 1.83v15.91q0 .64.64.67c6.27.37 14.33 1.05 16.48-6.62Zm-1.55 12.6c-4.05-3.03-10.23-2.24-15.05-2.13q-.5.01-.5.51c-.03 4.93-1.04 14.78.46 19.14q.17.5.69.6c4.87.99 12.79 1.14 16.29-2.98 3.74-4.39 2.73-11.68-1.89-15.14ZM198.25 189.71c-7.39.71-6.95 5.76-6.97 12.25q-.05 17.25-.03 34.58 0 .49-.49.49l-2.7-.01q-1.39.06-2.14-.94-10.72-14.17-21.46-28.33l-7.01-9.31a.23.23 0 0 0-.42.13q-.12 13.62.06 27.25.08 5.83 5.51 6.9l2.31.56q.54.13.56.68l.1 2.4q.03.64-.61.64h-19.31q-.67 0-.65-.67l.06-1.95q.01-.58.54-.84c4.03-2 7.1-2.5 7.11-8.04q.02-14.28.06-28.57c.02-4.92-1.45-8.06-6.99-7.02q-.78.14-.78-.65v-2.76q0-.5.5-.5h12.3q.52 0 .83.41l27.68 36.3a.36.36 0 0 0 .65-.22q.12-12.53.04-24.99-.05-6.92-6.66-7.78-.59-.07-.59-.67v-2.43q0-.62.63-.62h17.38q.52 0 .64.5.42 1.64-.15 3.21ZM244.79 190.25q.78 6.92.12 13.79l-2.9-.11q-.55-.02-.65-.56c-2.65-14.11-7.77-13.6-20.64-13.62a1.6 1.59.4 0 0-1.6 1.57l-.17 16.81q-.01.63.63.66 9.79.4 9.75-9.43 0-.61.61-.61h2.93q.63 0 .63.62v23.05q0 .49-.49.54l-2.96.33q-.57.06-.58-.51c-.11-6.02-3.15-11.52-9.98-10.08q-.43.1-.44.54-.16 8.73-.01 17.45.05 2.46 2.52 2.55c12.4.43 19.67-1.58 21.37-15.47q.06-.52.58-.52h2.77q.67 0 .67.66l.01 3.09-.92 15.51a.54.53-88.3 0 1-.53.51l-34.96.04-6.36-.06q-.69 0-.69-.7v-2.36q0-.57.57-.6l4.89-.29a1.64 1.63-1.7 0 0 1.54-1.63v-39.79a1.74 1.74 0 0 0-1.67-1.74l-4.75-.21q-.58-.02-.58-.6v-2.45q0-.63.62-.63h39.86q.43 0 .47.43l.34 3.82ZM285.79 236.25c.09.49-.02.75-.56.75q-9.03.08-17.92.01l-5.13-.02q-.51 0-.46-.51l.25-2.65q.06-.58.64-.58h5.15q1.72 0 1.72-1.72l-.02-36.28-.33-4.4q-.04-.52-.53-.67c-8.29-2.51-11.8 9.57-12.75 15.15q-.12.67-.8.67h-2.79q-.62 0-.59-.63l.54-10.87.56-8.03q.04-.47.51-.47h40.81q.6 0 .64.59l1.33 18.92q.04.56-.51.54l-3.3-.07q-.48-.01-.56-.49c-1.08-5.95-2.51-12.22-8.41-15.18-3.28-1.65-5.29-.32-5.29 3.31q.02 18.59.01 37.69 0 1.63 1.63 1.71l5.67.31q.43.02.44.46l.05 2.46Z"/><path fill="#e6e6e6" d="M74.16 189.22c2.32.9 5.11-.05 6.76 1.28q1.71 1.39 1.04 4.5c-9.97-2.48-14.06 7.78-15.85 15.38-.47 1.99-1.85 3.29-2.46 5.04q-2.12 6.07-5.2 11.71-.24.43-.23.92.01 1.62-.75 2.99-.26.48-.27 1.02-.06 3.98-2.92 6.67-.38.35-.54.84c-1.04 3.14-4.6 4.52-6.54 1.08q-.26-.46.12-.84l.37-.37q.38-.39.05-.82-.21-.26-.49-.41l.91-.68q.4-.3.56-.77 7.21-20.46 14.73-40.77 2.21-5.99 7.8-6.53l2.91-.24Z"/><path fill="#fff" d="M91.9 190.28c8.09-2.2 18.8.85 15.72 11.79-2.15 7.67-10.21 6.99-16.48 6.62q-.64-.03-.64-.67v-15.91a1.9 1.9 0 0 1 1.4-1.83Z"/><path fill="#e6e6e6" d="M198.25 189.71q1.4 1 3.08.63.52-.11.84.31l.83 1.07q.41.53 0 1.06-1.71 2.24-4.33 3.33-.48.2-.81.61c-.64.83-2.43 2.57-.7 3.5q.32.17.33.52c.42 9.9-.28 20.44-.27 30.42.01 3.12-.7 4.96-1.66 7.9-.54 1.67-1.62 1.32-3.17 1.09q-2.96-.43-4.33-3.13l2.7.01q.49 0 .49-.49-.02-17.33.03-34.58c.02-6.49-.42-11.54 6.97-12.25ZM252.21 194.5l-.54 10.87q-.03.63.59.63h2.79q.68 0 .8-.67c.95-5.58 4.46-17.66 12.75-15.15q.49.15.53.67l.33 4.4c-3.06-.38-3.29 1.18-4.17 3.34q-1.88 4.67-3.8 9.32c-1.29 3.14-4.03 3.98-6.77 2.05q-.41-.29-.91-.3c-2.11-.05-3.63-.8-5.84-.94q-4-.26-3.06-4.68.66-6.87-.12-13.79l2.21-.47q.69-.15.74.55.29 4.09 4.47 4.17ZM115 212.96l-6.1-2.6q-.67-.28 0-.56c6.15-2.56 9.34-6.48 8.64-13.3q1.21-.32 2.43.12.5.17.73.65 2.65 5.4.01 11.55-.46 1.07-1.49.97-.5-.05-.88.28l-3.34 2.89ZM164.46 207.75l-2.26 1.04q-.44.2-.48.68-1.12 11.66.88 23.25-5.43-1.07-5.51-6.9-.18-13.63-.06-27.25a.23.23 0 0 1 .42-.13l7.01 9.31Z"/><path fill="#fff" d="M106.07 214.67c4.62 3.46 5.63 10.75 1.89 15.14-3.5 4.12-11.42 3.97-16.29 2.98q-.52-.1-.69-.6c-1.5-4.36-.49-14.21-.46-19.14q0-.5.5-.51c4.82-.11 11-.9 15.05 2.13Z"/><path fill="#e6e6e6" d="m79 237.04 24.19-.08c11.07-.05 20.78-8.32 15.6-20.21 2.28-.23 3.31 1.01 3.95 3.18q.77 2.58 2.61 4.79.34.4.23.91-1.21 5.62-3.54 10.89-.22.48-.68.76l-4.2 2.55q-.44.27-.93.16-4.05-.86-7.35 1.63-.32.24-.72.23l-29.01-.97q-.54-.01-.85-.45l-.85-1.17q-.37-.52.23-.72 1.13-.37 1.32-1.5ZM210.55 237.06l34.96-.04a.54.53-88.3 0 0 .53-.51l.92-15.51q1.7 1.23 2.75-.65.38-.68.85-.06c1.29 1.72 3.15 14.59.8 17.54q-.29.37-.34.83-.1.97-.57 1.83-.24.44-.73.49c-1.08.12-2.06-.15-3.05-.07q-10.8.89-25.42-.13-4.4-.3-10.11 1.51-.54.17-.91-.25l-2.71-3.08q-.6-.68.3-.59 1.92.19 2.73-1.31Z"/><circle cx="132.28" cy="233.41" r="4.85" fill="#333"/><path fill="#e6e6e6" d="m285.79 236.25.21.51q.2.48.72.56 2.19.3 2.44 2.51a.93.92 85.7 0 1-.88 1.03l-21.16.79q-.81.03-.86-.78-.14-1.96 1.05-3.86 8.89.07 17.92-.01c.54 0 .65-.26.56-.75Z"/></svg>