<svg xmlns="http://www.w3.org/2000/svg" viewBox="0 0 512 512"><g fill="none" stroke-width="2"><path stroke="#80d0e7" d="M406.68 208.74c-43.84 67.29-100.75 126.45-164.46 175.13" vector-effect="non-scaling-stroke"/><path stroke="#80c6e2" d="M242.22 383.87q-34.58 26.19-68.03 43.8c-24.65 12.98-51.78 24.14-79.68 27.11-45.4 4.83-64.34-25.96-56.3-67.85 8.06-42.02 29.96-79.14 52.85-114.24a.38.38 0 0 0-.56-.49q-.51.43-1.14 1.4-15.38 23.72-21.45 34.07-19.02 32.38-30.65 68.08c-6.35 19.51-10.31 41.62-5.96 61.99 6.78 31.73 33.68 42.87 63.52 40.3 32.57-2.81 64.78-15.93 93.24-31.48q42.17-23.04 79.77-52.97" vector-effect="non-scaling-stroke"/><path stroke="#80d0e7" d="M267.83 393.59c62.84-49.4 120.68-111.35 162.88-179.55" vector-effect="non-scaling-stroke"/><path stroke="#80deef" d="M430.71 214.04q21.53-34.05 35.25-71.63c12.34-33.82 22.88-93.31-24.24-107.84-26.1-8.05-56.4-.66-81.91 9.25q-40.08 15.57-75.87 39.39c-.58.38-1.94.91-2.42 1.72a.5.5 0 0 0 .7.67c29.2-19.01 61.2-35.98 95.29-44.03 16.11-3.8 35.24-5.27 49.48.68 39.44 16.48 26.14 70.95 14.18 100.69q-13.5 33.58-34.49 65.8" vector-effect="non-scaling-stroke"/><path stroke="#01aed7" d="M430.71 214.04q-.46.12-.74-.37-.28-.48-.68-.09l-.3.31q-.45.44-.99.13c-4.19-2.34-8.16-2.26-12.65-3.46-1.95-.51-4.24-.83-6.27-.55q-1.3.18-2.4-1.27" vector-effect="non-scaling-stroke"/><path stroke="#0197ca" d="m267.83 393.59-2.44-4.36a1.51 1.46 86.9 0 0-.68-.63c-5.14-2.36-11.46-2.46-17.01-2.23q-2.43.1-3.93-1.99-.29-.4-.77-.37-.4.01-.78-.14" vector-effect="non-scaling-stroke"/><path stroke="#ffe980" d="m303.14 94.08-16.92-1.74q-.47-.05-.47.43v73.98a.31.31 0 0 0 .31.31l58.48-.07a.23.23 0 0 0 .21-.31q-14.24-38.83-39.59-71.48-.77-.99-2.02-1.12" vector-effect="non-scaling-stroke"/><path stroke="#ffd480" d="m203.98 167.13 62.54.08a.73.73 0 0 0 .73-.73V93.01q0-.5-.5-.47-10.6.56-21.1 2.2-2.28.35-3.92 2.5-24.26 31.86-37.97 69.58a.23.23 0 0 0 .22.31" vector-effect="non-scaling-stroke"/><path stroke="#fff480" d="M421.75 166.57c-21.93-30.49-53.51-53.34-89.07-65.25q-.73-.25-.33.4c12.63 20.82 23.47 41.2 31.33 64.12a2.14 2.13-9.7 0 0 2.03 1.43l55.84-.32a.25.24-18.1 0 0 .2-.38" vector-effect="non-scaling-stroke"/><path stroke="#ffd480" d="M214.34 103.4c-32.64 12.05-62.84 34.45-83.16 63.12q-.39.56.29.56l52.33-.12q.54 0 .71-.5 11.44-33.04 30.33-62.44.67-1.06-.5-.62" vector-effect="non-scaling-stroke"/><path stroke="#daee80" d="m406.97 262.77 48.54-.18q.6 0 .56-.6-1.4-19.39-6.55-38.14a1.7 1.68-47.4 0 1-.03-.83c.31-1.43.63-2.66 1.21-3.96q22.18-49.87 30.89-103.79.75-4.65.92-9.34.01-.12-.07-.12-.14 0-.26.01-.07 0-.07.07-.16 3.25-.63 5.36c-12.47 55.77-40.66 104.72-75.13 150.28a.77.77 0 0 0 .62 1.24" vector-effect="non-scaling-stroke"/><path stroke="#ffe980" d="m350.57 185.22-64.33.04a.5.49-90 0 0-.49.5v76.48a.51.51 0 0 0 .51.51q34.61-.01 69.28.01c4.68 0 7.48-4.16 7.21-8.59q-2.09-34.81-11.7-68.59a.5.49-7.6 0 0-.48-.36" vector-effect="non-scaling-stroke"/><path stroke="#fff480" d="m412.56 185.04-42.25.22q-.6 0-.44.59 6.65 24.52 9.48 49.78a.18.18 0 0 0 .32.08q18-24.19 33.12-50.28a.26.26 0 0 0-.23-.39" vector-effect="non-scaling-stroke"/><path stroke="#ffd480" d="M97.43 262.64q24.7.33 47.88-.17 10.56-.24 20.92.39a1.08 1.07-87.2 0 0 1.14-1.04q1.3-38.7 11.22-76.1.13-.47-.36-.47h-58.46a1.03 1.02 14.2 0 0-.9.53q-19.44 35.75-21.8 76.48a.36.35 2.2 0 0 .36.38M185.54 262.62l81.19.18a.53.52 90 0 0 .52-.53v-76.52q0-.5-.5-.5h-68.72q-.48 0-.61.45-7.9 27.41-10.51 55.81-.96 10.43-1.74 20.71a.37.37 0 0 0 .37.4M119.74 358.5H178q.66 0 .49-.64c-6.6-25.43-9.51-49.44-11.24-76.23q-.04-.64-.68-.64l-68.82.01q-.48 0-.49.48-.05 1.51.06 3.02 2.84 39.22 21.59 73.51a.95.95 0 0 0 .83.49M286.25 338.45c19.5-17.98 39.06-36.92 56.2-57.09a.23.23 0 0 0-.17-.38l-55.78.03a.75.74 0 0 0-.75.74v56.48a.3.3 0 0 0 .5.22M266.6 355.41a3.76 3.71 62.5 0 0 .65-2.11v-71.8q0-.5-.5-.5h-80.98q-.41 0-.4.42 1.23 39.06 12.1 76.55.15.53.7.53 30.96.01 61.87-.01c2.87 0 5.02-.81 6.56-3.08" vector-effect="non-scaling-stroke"/><path stroke="#daee80" d="m391.1 281.73-10.36 12.51a1.53 1.53 0 0 0-.36.9q-2.01 31.96-10.6 62.8a.45.44 7.9 0 0 .43.56h62.76q.71 0 1.06-.63 19.35-35.7 21.72-76.35.03-.52-.49-.52h-62.6q-.95 0-1.56.73" vector-effect="non-scaling-stroke"/><path stroke="#ccdd80" d="M359.53 318.37c-12.95 13.34-25.93 26.52-39.34 39.37q-.82.79.32.78l30.03-.18q.49 0 .62-.47 5.33-19.45 8.71-39.33a.2.2 0 0 0-.34-.17" vector-effect="non-scaling-stroke"/><path stroke="#ffd480" d="M203.83 376.26a.34.34 0 0 0-.32.47l8.27 20.07a.34.34 0 0 0 .51.15l28.15-20.11a.34.34 0 0 0-.2-.62l-36.41.04M130.76 376.71c11.94 16.57 26.7 30.96 43.37 42.74q.44.31.9.04l21.01-12.14q.54-.31.28-.88-6.79-14.6-12.02-29.81a.61.6 80.5 0 0-.57-.41H131a.29.29 0 0 0-.24.46" vector-effect="non-scaling-stroke"/><path stroke="#ccdd80" d="M303.18 449.72q.93.14 1.47-.56 25.99-33.03 40.16-72.48a.32.32 0 0 0-.3-.43h-44.34q-.43 0-.76.28l-13.26 11.29q-.4.34-.4.87v62.2q0 .65.64.58l15.93-1.77q.43-.05.86.02M364.02 376.92q-11.87 34.63-31.93 65.24a.27.27 0 0 0 .31.4q53.54-18.19 87.79-63.12.61-.81 1.8-2.74.28-.45-.25-.45h-56.79a.99.98-80.4 0 0-.93.67M248 449.27c6.07 1.14 12.67 1.65 18.8 2.14a.41.41 0 0 0 .45-.41v-47.77a.54.53 70.7 0 0-.87-.42c-42.62 34.27-91.9 63.6-145.49 76.38q-.69.16-.06.28.16.03.41-.01c38.79-6.43 74.56-18.76 109.8-35.03q.44-.2.92-.06c5.38 1.57 11 3.96 16.04 4.9" vector-effect="non-scaling-stroke"/></g><path fill="#fff" d="M49.56 0H462.8c27.07 2.13 47.03 21.17 49.2 48.32v414.73c-2.4 27.81-24.3 47.9-52.25 47.9q-200.43.06-400.87.04-13.27 0-19.03-1.28C17.22 504.67 1.88 485.41 0 462.44V48.17C3.33 19.88 21.5 2.67 49.56 0Zm357.12 208.74c-43.84 67.29-100.75 126.45-164.46 175.13q-34.58 26.19-68.03 43.8c-24.65 12.98-51.78 24.14-79.68 27.11-45.4 4.83-64.34-25.96-56.3-67.85 8.06-42.02 29.96-79.14 52.85-114.24a.38.38 0 0 0-.56-.49q-.51.43-1.14 1.4-15.38 23.72-21.45 34.07-19.02 32.38-30.65 68.08c-6.35 19.51-10.31 41.62-5.96 61.99 6.78 31.73 33.68 42.87 63.52 40.3 32.57-2.81 64.78-15.93 93.24-31.48q42.17-23.04 79.77-52.97c62.84-49.4 120.68-111.35 162.88-179.55q21.53-34.05 35.25-71.63c12.34-33.82 22.88-93.31-24.24-107.84-26.1-8.05-56.4-.66-81.91 9.25q-40.08 15.57-75.87 39.39c-.58.38-1.94.91-2.42 1.72a.5.5 0 0 0 .7.67c29.2-19.01 61.2-35.98 95.29-44.03 16.11-3.8 35.24-5.27 49.48.68 39.44 16.48 26.14 70.95 14.18 100.69q-13.5 33.58-34.49 65.8ZM303.14 94.08l-16.92-1.74q-.47-.05-.47.43v73.98a.31.31 0 0 0 .31.31l58.48-.07a.23.23 0 0 0 .21-.31q-14.24-38.83-39.59-71.48-.77-.99-2.02-1.12Zm-99.16 73.05 62.54.08a.73.73 0 0 0 .73-.73V93.01q0-.5-.5-.47-10.6.56-21.1 2.2-2.28.35-3.92 2.5-24.26 31.86-37.97 69.58a.23.23 0 0 0 .22.31Zm217.77-.56c-21.93-30.49-53.51-53.34-89.07-65.25q-.73-.25-.33.4c12.63 20.82 23.47 41.2 31.33 64.12a2.14 2.13-9.7 0 0 2.03 1.43l55.84-.32a.25.24-18.1 0 0 .2-.38ZM214.34 103.4c-32.64 12.05-62.84 34.45-83.16 63.12q-.39.56.29.56l52.33-.12q.54 0 .71-.5 11.44-33.04 30.33-62.44.67-1.06-.5-.62Zm192.63 159.37 48.54-.18q.6 0 .56-.6-1.4-19.39-6.55-38.14a1.7 1.68-47.4 0 1-.03-.83c.31-1.43.63-2.66 1.21-3.96q22.18-49.87 30.89-103.79.75-4.65.92-9.34.01-.12-.07-.12-.14 0-.26.01-.07 0-.07.07-.16 3.25-.63 5.36c-12.47 55.77-40.66 104.72-75.13 150.28a.77.77 0 0 0 .62 1.24Zm-56.4-77.55-64.33.04a.5.49-90 0 0-.49.5v76.48a.51.51 0 0 0 .51.51q34.61-.01 69.28.01c4.68 0 7.48-4.16 7.21-8.59q-2.09-34.81-11.7-68.59a.5.49-7.6 0 0-.48-.36Zm61.99-.18-42.25.22q-.6 0-.44.59 6.65 24.52 9.48 49.78a.18.18 0 0 0 .32.08q18-24.19 33.12-50.28a.26.26 0 0 0-.23-.39Zm-315.13 77.6q24.7.33 47.88-.17 10.56-.24 20.92.39a1.08 1.07-87.2 0 0 1.14-1.04q1.3-38.7 11.22-76.1.13-.47-.36-.47h-58.46a1.03 1.02 14.2 0 0-.9.53q-19.44 35.75-21.8 76.48a.36.35 2.2 0 0 .36.38Zm88.11-.02 81.19.18a.53.52 90 0 0 .52-.53v-76.52q0-.5-.5-.5h-68.72q-.48 0-.61.45-7.9 27.41-10.51 55.81-.96 10.43-1.74 20.71a.37.37 0 0 0 .37.4Zm-65.8 95.88H178q.66 0 .49-.64c-6.6-25.43-9.51-49.44-11.24-76.23q-.04-.64-.68-.64l-68.82.01q-.48 0-.49.48-.05 1.51.06 3.02 2.84 39.22 21.59 73.51a.95.95 0 0 0 .83.49Zm166.51-20.05c19.5-17.98 39.06-36.92 56.2-57.09a.23.23 0 0 0-.17-.38l-55.78.03a.75.74 0 0 0-.75.74v56.48a.3.3 0 0 0 .5.22Zm-19.65 16.96a3.76 3.71 62.5 0 0 .65-2.11v-71.8q0-.5-.5-.5h-80.98q-.41 0-.4.42 1.23 39.06 12.1 76.55.15.53.7.53 30.96.01 61.87-.01c2.87 0 5.02-.81 6.56-3.08Zm124.5-73.68-10.36 12.51a1.53 1.53 0 0 0-.36.9q-2.01 31.96-10.6 62.8a.45.44 7.9 0 0 .43.56h62.76q.71 0 1.06-.63 19.35-35.7 21.72-76.35.03-.52-.49-.52h-62.6q-.95 0-1.56.73Zm-31.57 36.64c-12.95 13.34-25.93 26.52-39.34 39.37q-.82.79.32.78l30.03-.18q.49 0 .62-.47 5.33-19.45 8.71-39.33a.2.2 0 0 0-.34-.17Zm-155.7 57.89a.34.34 0 0 0-.32.47l8.27 20.07a.34.34 0 0 0 .51.15l28.15-20.11a.34.34 0 0 0-.2-.62l-36.41.04Zm-73.07.45c11.94 16.57 26.7 30.96 43.37 42.74q.44.31.9.04l21.01-12.14q.54-.31.28-.88-6.79-14.6-12.02-29.81a.61.6 80.5 0 0-.57-.41H131a.29.29 0 0 0-.24.46Zm172.42 73.01q.93.14 1.47-.56 25.99-33.03 40.16-72.48a.32.32 0 0 0-.3-.43h-44.34q-.43 0-.76.28l-13.26 11.29q-.4.34-.4.87v62.2q0 .65.64.58l15.93-1.77q.43-.05.86.02Zm60.84-72.8q-11.87 34.63-31.93 65.24a.27.27 0 0 0 .31.4q53.54-18.19 87.79-63.12.61-.81 1.8-2.74.28-.45-.25-.45h-56.79a.99.98-80.4 0 0-.93.67ZM248 449.27c6.07 1.14 12.67 1.65 18.8 2.14a.41.41 0 0 0 .45-.41v-47.77a.54.53 70.7 0 0-.87-.42c-42.62 34.27-91.9 63.6-145.49 76.38q-.69.16-.06.28.16.03.41-.01c38.79-6.43 74.56-18.76 109.8-35.03q.44-.2.92-.06c5.38 1.57 11 3.96 16.04 4.9Z"/><path fill="#01bcde" d="M430.71 214.04q-.46.12-.74-.37-.28-.48-.68-.09l-.3.31q-.45.44-.99.13c-4.19-2.34-8.16-2.26-12.65-3.46-1.95-.51-4.24-.83-6.27-.55q-1.3.18-2.4-1.27 20.99-32.22 34.49-65.8c11.96-29.74 25.26-84.21-14.18-100.69-14.24-5.95-33.37-4.48-49.48-.68-34.09 8.05-66.09 25.02-95.29 44.03a.5.5 0 0 1-.7-.67c.48-.81 1.84-1.34 2.42-1.72q35.79-23.82 75.87-39.39c25.51-9.91 55.81-17.3 81.91-9.25 47.12 14.53 36.58 74.02 24.24 107.84q-13.72 37.58-35.25 71.63Z"/><path fill="#ffd300" d="M303.14 94.08q1.25.13 2.02 1.12 25.35 32.65 39.59 71.48a.23.23 0 0 1-.21.31l-58.48.07a.31.31 0 0 1-.31-.31V92.77q0-.48.47-.43l16.92 1.74Z"/><path fill="#ffa800" d="m266.52 167.21-62.54-.08a.23.23 0 0 1-.22-.31q13.71-37.72 37.97-69.58 1.64-2.15 3.92-2.5 10.5-1.64 21.1-2.2.5-.03.5.47v73.47a.73.73 0 0 1-.73.73Z"/><path fill="#ffe800" d="M332.68 101.32c35.56 11.91 67.14 34.76 89.07 65.25a.25.24-18.1 0 1-.2.38l-55.84.32a2.14 2.13-9.7 0 1-2.03-1.43c-7.86-22.92-18.7-43.3-31.33-64.12q-.4-.65.33-.4Z"/><path fill="#ffa800" d="M131.18 166.52c20.32-28.67 50.52-51.07 83.16-63.12q1.17-.44.5.62-18.89 29.4-30.33 62.44-.17.5-.71.5l-52.33.12q-.68 0-.29-.56Z"/><path fill="#b5dc01" d="m455.51 262.59-48.54.18a.77.77 0 0 1-.62-1.24c34.47-45.56 62.66-94.51 75.13-150.28q.47-2.11.63-5.36 0-.07.07-.07.12-.01.26-.01.08 0 .07.12-.17 4.69-.92 9.34-8.71 53.92-30.89 103.79c-.58 1.3-.9 2.53-1.21 3.96a1.7 1.68-47.4 0 0 .03.83q5.15 18.75 6.55 38.14.04.6-.56.6Z"/><path fill="#ffd300" d="M350.57 185.22a.5.49-7.6 0 1 .48.36q9.61 33.78 11.7 68.59c.27 4.43-2.53 8.59-7.21 8.59q-34.67-.02-69.28-.01a.51.51 0 0 1-.51-.51v-76.48a.5.49-90 0 1 .49-.5l64.33-.04Z"/><path fill="#ffe800" d="m370.31 185.26 42.25-.22a.26.26 0 0 1 .23.39q-15.12 26.09-33.12 50.28a.18.18 0 0 1-.32-.08q-2.83-25.26-9.48-49.78-.16-.59.44-.59Z"/><path fill="#ffa800" d="M97.43 262.64a.36.35 2.2 0 1-.36-.38q2.36-40.73 21.8-76.48a1.03 1.02 14.2 0 1 .9-.53h58.46q.49 0 .36.47-9.92 37.4-11.22 76.1a1.08 1.07-87.2 0 1-1.14 1.04q-10.36-.63-20.92-.39-23.18.5-47.88.17ZM185.54 262.62a.37.37 0 0 1-.37-.4q.78-10.28 1.74-20.71 2.61-28.4 10.51-55.81.13-.45.61-.45h68.72q.5 0 .5.5v76.52a.53.52-90 0 1-.52.53l-81.19-.18Z"/><path fill="#01a0cf" d="M406.68 208.74q1.1 1.45 2.4 1.27c2.03-.28 4.32.04 6.27.55 4.49 1.2 8.46 1.12 12.65 3.46q.54.31.99-.13l.3-.31q.4-.39.68.09.28.49.74.37c-42.2 68.2-100.04 130.15-162.88 179.55l-2.44-4.36a1.51 1.46 86.9 0 0-.68-.63c-5.14-2.36-11.46-2.46-17.01-2.23q-2.43.1-3.93-1.99-.29-.4-.77-.37-.4.01-.78-.14c63.71-48.68 120.62-107.84 164.46-175.13Z"/><path fill="#018dc5" d="M242.22 383.87q.38.15.78.14.48-.03.77.37 1.5 2.09 3.93 1.99c5.55-.23 11.87-.13 17.01 2.23a1.51 1.46 86.9 0 1 .68.63l2.44 4.36q-37.6 29.93-79.77 52.97c-28.46 15.55-60.67 28.67-93.24 31.48-29.84 2.57-56.74-8.57-63.52-40.3-4.35-20.37-.39-42.48 5.96-61.99q11.63-35.7 30.65-68.08 6.07-10.35 21.45-34.07.63-.97 1.14-1.4a.38.38 0 0 1 .56.49c-22.89 35.1-44.79 72.22-52.85 114.24-8.04 41.89 10.9 72.68 56.3 67.85 27.9-2.97 55.03-14.13 79.68-27.11q33.45-17.61 68.03-43.8Z"/><path fill="#ffa800" d="M119.74 358.5a.95.95 0 0 1-.83-.49q-18.75-34.29-21.59-73.51-.11-1.51-.06-3.02.01-.48.49-.48l68.82-.01q.64 0 .68.64c1.73 26.79 4.64 50.8 11.24 76.23q.17.64-.49.64h-58.26ZM342.45 281.36c-17.14 20.17-36.7 39.11-56.2 57.09a.3.3 0 0 1-.5-.22v-56.48a.75.74 0 0 1 .75-.74l55.78-.03a.23.23 0 0 1 .17.38ZM266.6 355.41c-1.54 2.27-3.69 3.08-6.56 3.08q-30.91.02-61.87.01-.55 0-.7-.53-10.87-37.49-12.1-76.55-.01-.42.4-.42h80.98q.5 0 .5.5v71.8a3.76 3.71 62.5 0 1-.65 2.11Z"/><path fill="#b5dc01" d="M391.1 281.73q.61-.73 1.56-.73h62.6q.52 0 .49.52-2.37 40.65-21.72 76.35-.35.63-1.06.63h-62.76a.45.44 7.9 0 1-.43-.56q8.59-30.84 10.6-62.8a1.53 1.53 0 0 1 .36-.9l10.36-12.51Z"/><path fill="#99ba00" d="M320.19 357.74c13.41-12.85 26.39-26.03 39.34-39.37a.2.2 0 0 1 .34.17q-3.38 19.88-8.71 39.33-.13.47-.62.47l-30.03.18q-1.14.01-.32-.78Z"/><path fill="#ffa800" d="m203.83 376.26 36.41-.04a.34.34 0 0 1 .2.62l-28.15 20.11a.34.34 0 0 1-.51-.15l-8.27-20.07a.34.34 0 0 1 .32-.47ZM174.13 419.45c-16.67-11.78-31.43-26.17-43.37-42.74a.29.29 0 0 1 .24-.46h52.73a.61.6 80.5 0 1 .57.41q5.23 15.21 12.02 29.81.26.57-.28.88l-21.01 12.14q-.46.27-.9-.04Z"/><path fill="#99ba00" d="m302.32 449.7-15.93 1.77q-.64.07-.64-.58v-62.2q0-.53.4-.87l13.26-11.29q.33-.28.76-.28h44.34a.32.32 0 0 1 .3.43q-14.17 39.45-40.16 72.48-.54.7-1.47.56-.43-.07-.86-.02ZM364.02 376.92a.99.98-80.4 0 1 .93-.67h56.79q.53 0 .25.45-1.19 1.93-1.8 2.74-34.25 44.93-87.79 63.12a.27.27 0 0 1-.31-.4q20.06-30.61 31.93-65.24ZM266.8 451.41c-6.13-.49-12.73-1-18.8-2.14-5.04-.94-10.66-3.33-16.04-4.9q-.48-.14-.92.06c-35.24 16.27-71.01 28.6-109.8 35.03q-.25.04-.41.01-.63-.12.06-.28c53.59-12.78 102.87-42.11 145.49-76.38a.54.53 70.7 0 1 .87.42V451a.41.41 0 0 1-.45.41Z"/></svg>