<svg xmlns="http://www.w3.org/2000/svg" viewBox="0 0 256 256"><g fill="none" stroke-width="2"><path stroke="#c1c2bf" d="M61.83 16.58q-2.34.75-5.13.13a1.48 1.44-50.9 0 0-.95.11q-.27.13-.54.29-.42.25-.92.25-8.24.12-16.45-.02c-6.3-.1-11.31.55-15.14 5.12" vector-effect="non-scaling-stroke"/><path stroke="#abacaa" d="M22.7 22.46q-3.33 3.2-3.32 6.04.17 31.88-.37 63.74c-.42 25.01-.08 50.06-.15 75.07q0 .85.37 1.68" vector-effect="non-scaling-stroke"/><path stroke="#5a5b58" d="m19.23 168.99-1.72.01" vector-effect="non-scaling-stroke"/><path stroke="#222" stroke-opacity=".565" d="m238.42 225.69-1.53 3.58" vector-effect="non-scaling-stroke"/><path stroke="#3f3f3f" d="M236.89 229.27q-.98-1.16-1.97-.63-3.6 1.94-6.86 4.43c-1.81 1.39-6.02.41-7.75.41q-17.6.01-35.19-.03c-3.3-.01-7.39-.83-10.69-.61-8.96.58-17.99.54-27.15.62q-16.4.13-32.76.1" vector-effect="non-scaling-stroke"/><path stroke="#343434" d="M114.52 233.56q-15.16.03-20.77-.22c-18.99-.86-36.92.45-55.4.2-6.35-.09-13.47-1.58-17.9-6.55q-.34-.39-.85-.27-.71.17-.76 1.61" vector-effect="non-scaling-stroke"/><path stroke="#222" stroke-opacity=".565" d="m18.84 228.33-.72-1.52" vector-effect="non-scaling-stroke"/><path stroke="#3f3f3f" d="m20.06 170.11-.09 1.66" vector-effect="non-scaling-stroke"/><path stroke="#1c1c1c" d="M19.97 171.77q-1.13-.37-1.15.79-.28 17.09-.08 46.66c.01 1.61.96 3 1.05 4.71q.03.47.39.78c6 5.15 11.55 6.76 19.95 6.78q11.92.04 23.77 0" vector-effect="non-scaling-stroke"/><path stroke="#222" d="M63.9 231.49c10.67 1.43 21.74.03 31.15.03q15.89-.01 31.78-.01c3.91 0 7.67.59 11.67.47q20.42-.59 28.25-.18 13.35.69 21.75-.26" vector-effect="non-scaling-stroke"/><path stroke="#1c1c1c" d="M188.5 231.54q16.11-.1 32.23.01c5.76.04 9.31-4.4 13.44-7.69q.41-.32.91-.41.89-.17 1.54-.76.42-.38.43-.95.67-29.05.12-48.93-.02-.88-.87-.52" vector-effect="non-scaling-stroke"/><path stroke="#3f3f3f" d="M236.3 172.29q-.32-1.32-.18-1.96" vector-effect="non-scaling-stroke"/><path stroke="#c1c2bf" d="M64.48 16.53q9.33.81 18.71.81 65.28.06 130.56-.01c6.84-.01 15.02-.46 19.9 5.31" vector-effect="non-scaling-stroke"/><path stroke="#dfdfdf" d="M233.65 22.64c-1.74 6.08-.11 9.88-.12 15.36-.04 23.71-.64 47.44-.16 71.14.07 3.57-.9 7.97-.27 12.17.18 1.21-.26 2.43-.18 3.7q.57 8.66.16 17.33-.02.47.23.86.18.3.2.8.53 13.41.73 27.04" vector-effect="non-scaling-stroke"/><path stroke="#a6a6a6" d="M234.24 171.04q-1.85.46-2.49.46H24.26" vector-effect="non-scaling-stroke"/><path stroke="#dfdfdf" d="M24.26 171.5c-2.34-1.58-.7-5.52-.76-7.75q-1.5-55.3-1.03-110.63c.05-6.98-.69-20.25.23-30.66" vector-effect="non-scaling-stroke"/><path stroke="#909191" d="M24.26 171.5q-1.99.25-4.2-1.39" vector-effect="non-scaling-stroke"/><path stroke="#787878" d="M20.06 170.11q-.47-.25-.83-1.12" vector-effect="non-scaling-stroke"/><path stroke="#838383" d="m24.51 173.72 2.36.11" vector-effect="non-scaling-stroke"/><path stroke="#171717" d="M26.87 173.83q-.59 4.34 3.37 9.44c10.05 12.95 20.51 24.37 33.7 33.42q.06.04.06.12v.38q0 .33.31.44 4.43 1.61 8.3 4.35a1.34 1.33 65.9 0 0 .62.24q1.56.18 2.35 1.52.15.26.45.26h.45q.45 0 .76.31c1.33 1.34 5.43 2.73 7.22 3.23a1.11 1.1 48 0 1-.11 2.15q-10.18 1.75-20.45 1.8" vector-effect="non-scaling-stroke"/><path stroke="#5a5b58" d="M238.48 160.49q.01 3.32-1.1 4.27" vector-effect="non-scaling-stroke"/><path stroke="#abacaa" d="M237.38 164.76c-.33-12.17-.2-23.48-.32-36.76q-.39-42.86.33-96.94.05-4.04-3.74-8.42" vector-effect="non-scaling-stroke"/><path stroke="#4c4d4d" d="M114.52 233.56q-8.06.26-16.08.41c-2.68.05-5.59 1.12-8.69 1-6.79-.25-15.45-.22-24.33-.68q-14.02-.72-28.06.16c-3.86.24-7.22-.68-11.1-1.06q-.52-.05-.77.41-.54 1.02.86 2.17" vector-effect="non-scaling-stroke"/><path stroke="#303030" stroke-opacity=".675" d="m26.35 235.97-2.52-1.37" vector-effect="non-scaling-stroke"/><path stroke="#323232" stroke-opacity=".651" d="m23.83 234.6-2.77-2.41" vector-effect="non-scaling-stroke"/><path stroke="#343434" stroke-opacity=".62" d="M21.06 232.19q-.05-.45-.59-.78" vector-effect="non-scaling-stroke"/><path stroke="#464747" stroke-opacity=".62" d="m234.95 231.97-1.13 1.46" vector-effect="non-scaling-stroke"/><path stroke="#434444" stroke-opacity=".651" d="M233.82 233.43q-.23-.31-1.33.92" vector-effect="non-scaling-stroke"/><path stroke="#404141" stroke-opacity=".675" d="M232.49 234.35q-4.15 3.15-7.49 3.15H30.06q-1.44 0-3.71-1.53" vector-effect="non-scaling-stroke"/><path stroke="#171717" d="m188.5 231.54-19.19-1.38a.41.41 0 0 1-.31-.64q2.35-3.42 6.5-3.57.55-.02.97-.37c2.57-2.13 5.35-2.12 7.82-3.76q19.98-13.27 35.91-33.86 4.17-5.39 5.89-9.77.18-.46.63-.67 2.26-1.1 2.22-3.75" vector-effect="non-scaling-stroke"/><path stroke="#838383" d="m228.94 173.77 1.28-.09" vector-effect="non-scaling-stroke"/><path stroke="#343535" d="M236.3 172.29q-2.54 1.51-6.08 1.39" vector-effect="non-scaling-stroke"/><path stroke="#a6a6a6" d="M230.22 173.68q.04-.14.04-.26 0-.32-.32-.33c-21.42-.32-42.83-.16-64.26-.27-46.88-.24-93.47.66-140.67.14q-.37 0-.47.17-.11.2-.03.59" vector-effect="non-scaling-stroke"/><path stroke="#343535" d="M24.51 173.72q-2.99.33-4.54-1.95" vector-effect="non-scaling-stroke"/><path stroke="#222" d="M34.04 174.09q6.39 5.53 11.57 11.86c2.08 2.53 4.12 4.01 6.77 5.66a1.74 1.73 2.8 0 1 .64.7c1.3 2.54 2.46 4.6 4.31 7.04 2.76 3.62 3.72 5.33 8.39 7.05q7.33 2.71 14.33 6.22c1.34.67 1.57 1.97.37 2.95q-.37.3-.42.77l-.19 1.72" vector-effect="non-scaling-stroke"/><path stroke="#898989" d="m79.81 218.06-1.82 1.85q-.58.59.25.59h7.61q.66 0 .96-.58l6.14-11.82q.17-.32.34 0l6.1 11.92a.89.89 0 0 0 .79.48h7.55q.7 0 .28-.56l-2.54-3.41" vector-effect="non-scaling-stroke"/><path stroke="#272727" d="M105.47 216.53q.08-1.3-.61-2.3a1.3 1.29-11.8 0 1 1.32-2.01l4.76.94q.56.11.73.66l1.04 3.21" vector-effect="non-scaling-stroke"/><path stroke="#898989" d="m112.71 217.03.05 2.98q.01.49.5.49h5.73q.5 0 .5-.49l.02-3.81" vector-effect="non-scaling-stroke"/><path stroke="#272727" d="M119.51 216.2q2.29-1.48 7.39-.37" vector-effect="non-scaling-stroke"/><path stroke="#898989" d="m126.9 215.83 1.51 4.24q.16.43.62.43h5.2q.48 0 .63-.45l2.92-8.68" vector-effect="non-scaling-stroke"/><path stroke="#272727" d="M137.78 211.37q.67-.32 1.99-.19 1.81.18 1.95.23 1.29.49 1.94 3.03" vector-effect="non-scaling-stroke"/><path stroke="#898989" d="m143.66 214.44.05 5.46q.01.55.55.56l6.57.22" vector-effect="non-scaling-stroke"/><path stroke="#222" d="m150.83 220.68 6.94-.02q.49 0 .78-.41l.18-.28" vector-effect="non-scaling-stroke"/><path stroke="#898989" d="M158.73 219.97q.15.52.53.52 4.49.05 18.75-.01.53 0 .54-.53l.08-4.61" vector-effect="non-scaling-stroke"/><path stroke="#222" d="M178.63 215.34q.33-1.11-.55-1.54a1.47 1.47 0 0 1-.16-2.55c12.34-8.12 22.53-16.7 32.04-28.12 1.95-2.34 2.91-5.13 6.37-7.23a.65.65 0 0 0-.04-1.13l-.98-.49a.18.17 57.2 0 1 .07-.33l4.64-.17" vector-effect="non-scaling-stroke"/><path stroke="#787878" d="M237.38 164.76q.43 3.28-1.26 5.57" vector-effect="non-scaling-stroke"/><path stroke="#909191" d="m236.12 170.33-1.88.71" vector-effect="non-scaling-stroke"/><path stroke="#3a3a3a" stroke-opacity=".565" d="m18.84 228.33 1.63 3.08" vector-effect="non-scaling-stroke"/><path stroke="#4d4e4e" stroke-opacity=".565" d="m234.95 231.97 1.94-2.7" vector-effect="non-scaling-stroke"/><path stroke="#898989" d="m228.94 173.77-8.92.01" vector-effect="non-scaling-stroke"/><path stroke="#8d8d8d" d="M220.02 173.78h-17.09" vector-effect="non-scaling-stroke"/><path stroke="#929292" d="m202.93 173.78-19.94-.02" vector-effect="non-scaling-stroke"/><path stroke="#9b9b9b" d="m182.99 173.76-106.75-.01" vector-effect="non-scaling-stroke"/><path stroke="#929292" d="m76.24 173.75-24.49-.02" vector-effect="non-scaling-stroke"/><path stroke="#8d8d8d" d="m51.75 173.73-17.71.36" vector-effect="non-scaling-stroke"/><path stroke="#898989" d="m34.04 174.09-7.17-.26" vector-effect="non-scaling-stroke"/><path stroke="#8d8d8d" d="m150.99 208.52-.16 12.16" vector-effect="non-scaling-stroke"/><path stroke="#929292" d="m143.66 214.44.1-18.93q0-.4.17-.75.2-.42.04-.8-.16-.38-.29.01l-5.9 17.4M126.9 215.83l-6.76-20.03q-.63-1.88-.63.1v20.3M112.71 217.03l.03-15.74M126.93 197.26l4.85 14.97q.2.61.4 0l4.67-14.25" vector-effect="non-scaling-stroke"/><path stroke="#2b2b2b" d="M51.75 173.73q-.67.85-.49 2.03.07.47.43.8 5.78 5.32 11.13 11.07.73.78 2 1.52c1.82 1.06 3.66 3.16 4.89 4.03q8.13 5.79 17.94 9.67" vector-effect="non-scaling-stroke"/><path stroke="#8d8d8d" d="M87.65 202.85q1.35.78.04 2.84-3.92 6.14-7.88 12.37" vector-effect="non-scaling-stroke"/><path stroke="#929292" d="M100.53 199.59q-1.65 1.98-2.28 4.28-.14.51.13.97l7.09 11.69" vector-effect="non-scaling-stroke"/><path stroke="#8d8d8d" d="m178.63 215.34-11.95.07q-.6 0-.58-.6l.26-10.91M158.73 219.97l.01-20.03" vector-effect="non-scaling-stroke"/><path stroke="#393939" d="M182.99 173.76q1.09.38 1.64 1.12a1.14 1.14 0 0 1-.35 1.68q-4.69 2.67-8.77 6.46-1.74 1.6-9.1 5.14" vector-effect="non-scaling-stroke"/><path stroke="#9b9b9b" d="m166.41 188.16-7.16-.32q-.49-.02-.49.47l-.02 11.63" vector-effect="non-scaling-stroke"/><path stroke="#343434" d="M158.74 199.94q-2.07-.83-5.08.27a2.5 2.5 0 0 0-1.6 1.93l-1.07 6.38" vector-effect="non-scaling-stroke"/><path stroke="#9b9b9b" d="M150.99 208.52v-20.28q0-.5-.5-.5l-9.49.01q-.57 0-.76.54l-3.39 9.69" vector-effect="non-scaling-stroke"/><path stroke="#393939" d="M136.85 197.98q.03-1.07-1.75-1.16-.54-.03-.99.28-2.12 1.51-4.08-.25a.91.9 58.5 0 0-.85-.21l-2.25.62" vector-effect="non-scaling-stroke"/><path stroke="#9b9b9b" d="m126.93 197.26-3.14-9.1q-.14-.41-.57-.41h-9.96q-.5 0-.5.5l-.02 13.04" vector-effect="non-scaling-stroke"/><path stroke="#393939" d="M112.74 201.29c-3.82-1.01-8.4-3.26-12.21-1.7" vector-effect="non-scaling-stroke"/><path stroke="#9b9b9b" d="m100.53 199.59 6.95-11.63q.2-.35-.2-.34l-6.76.19q-.52.01-.75.49l-.97 1.94" vector-effect="non-scaling-stroke"/><path stroke="#2b2b2b" d="M202.93 173.78q-.96.08.49 1.45.45.42-.07.75c-3.9 2.42-6.64 6.53-8.97 8.83q-12.13 11.97-28.02 19.09" vector-effect="non-scaling-stroke"/><path stroke="#929292" d="m166.36 203.9.05-15.74" vector-effect="non-scaling-stroke"/><path stroke="#393939" d="m76.24 173.75.73.44q.26.16-.01.32l-.38.22a.9.89-41.7 0 0-.09 1.48q9.26 7.14 19.59 11.46c1.34.56 1.83 1.5 2.72 2.57" vector-effect="non-scaling-stroke"/><path stroke="#929292" d="m98.8 190.24-5.07 10.07a.26.26 0 0 1-.47-.01l-5.55-12.11q-.17-.38-.59-.39l-7.4-.16q-.66-.01-.34.56l8.27 14.65" vector-effect="non-scaling-stroke"/><path stroke="#7b8a9b" d="M195.3 95.25a67.31 67.31 0 0 0-67.31-67.31 67.31 67.31 0 0 0-67.31 67.31 67.31 67.31 0 0 0 67.31 67.31 67.31 67.31 0 0 0 67.31-67.31" vector-effect="non-scaling-stroke"/><path stroke="#034588" d="m106.96 32.16-5.26 1.96" vector-effect="non-scaling-stroke"/><path stroke="#026f49" d="m101.7 34.12-9.74 5.37" vector-effect="non-scaling-stroke"/><path stroke="#034588" d="M91.96 39.49q-9.71 6.4-16.84 15.69" vector-effect="non-scaling-stroke"/><path stroke="#012c6b" d="M75.12 55.18q-17.37 23.41-11.67 52.29.08.41.53 1.42c.49 1.13.24 2.65.54 3.71 5.62 20.21 20.76 37.82 41.16 44.99q.48.17.9-.13.3-.21.2-.45" vector-effect="non-scaling-stroke"/><path stroke="#03483e" d="M106.78 157.01q4.83 2.58 11.24 3.66" vector-effect="non-scaling-stroke"/><path stroke="#024f82" d="M118.02 160.67c13.22.97 24.76.61 36.89-4.86" vector-effect="non-scaling-stroke"/><path stroke="#025890" d="M154.91 155.81q5.97-2.57 11.32-6.74" vector-effect="non-scaling-stroke"/><path stroke="#024f82" d="m166.23 149.07 7.65-6.5" vector-effect="non-scaling-stroke"/><path stroke="#03367c" d="M173.88 142.57q5.89-5.51 10.23-12.23" vector-effect="non-scaling-stroke"/><path stroke="#012c6b" d="M184.11 130.34c3.39-5.35 6.92-12.03 7.43-17.97" vector-effect="non-scaling-stroke"/><path stroke="#025d38" d="M191.54 112.37q3.41-11.98 1.91-24.37" vector-effect="non-scaling-stroke"/><path stroke="#026f49" d="M193.45 88q-.66-11.77-6.45-21.94" vector-effect="non-scaling-stroke"/><path stroke="#012c6b" d="M187 66.06q-.27-1.4-.67-1.42a2.37 2.37 0 0 1-2.2-2.02q-.67-4.55-3.9-7.34" vector-effect="non-scaling-stroke"/><path stroke="#01795e" d="M180.23 55.28q-.11.7-.43-.84" vector-effect="non-scaling-stroke"/><path stroke="#026f49" d="M179.8 54.44q-5.03-6.67-11.72-11.76" vector-effect="non-scaling-stroke"/><path stroke="#01795e" d="M168.08 42.68q-6.74-5.42-14.71-8.6" vector-effect="non-scaling-stroke"/><path stroke="#025890" d="M153.37 34.08q-8.04-3.71-16.72-4.34" vector-effect="non-scaling-stroke"/><path stroke="#017486" d="M136.65 29.74q-15.07-1.88-29.69 2.42" vector-effect="non-scaling-stroke"/><path stroke="#01add4" d="M136.65 29.74q-.34 2.45-5.64 1.45-1.95-.37-2.24.65a.82.82 0 0 0 1.02 1q3.29-.99 5.41 1.08c1.11 1.09 2.57 1.84 3.28 3.28" vector-effect="non-scaling-stroke"/><path stroke="#01d7e4" d="m138.48 37.2-5.73 1.19q-.48.1-.93-.11-1.05-.51-2.11-.04-.39.17-.51.59-.8 2.8-.16 5.7" vector-effect="non-scaling-stroke"/><path stroke="#01bddb" d="M129.04 44.53q-2-.25-2.22-2.41" vector-effect="non-scaling-stroke"/><path stroke="#01add4" d="m126.82 42.12 1.34-1.74q.33-.42-.07-.78l-1.26-1.13q-.42-.37-.52-.92-.43-2.35-2.86-2.45-.55-.03-1.01-.33-1.99-1.3-3.65.4a.74.73 36.2 0 1-.86.13q-1.38-.71-2.38.23-.44.42.14.59l6.56 1.92" vector-effect="non-scaling-stroke"/><path stroke="#01d3ca" d="M122.25 38.04q.1 4.15-1.58 4.64" vector-effect="non-scaling-stroke"/><path stroke="#00cea2" d="m120.67 42.68-1.41-3.29a1.12 1.12 0 0 0-.78-.66q-2.05-.47-3.41-2.03a.51.51 0 0 0-.85.12q-1.33 2.85-2.61 2.15" vector-effect="non-scaling-stroke"/><path stroke="#01c48d" d="M111.61 38.97q.48-1.19.26-1.79-.18-.52-.61-.17-1.81 1.52-4.24 1.74a.3.3 0 0 1-.2-.55l2.44-1.74" vector-effect="non-scaling-stroke"/><path stroke="#029acc" d="M109.26 36.46q.82-1.71.05-3.09-.24-.44-.75-.5-1.36-.17-1.6-.71" vector-effect="non-scaling-stroke"/><path stroke="#02cbf5" d="M137.71 41.09q-3.34 1.64-3.84 5.07-.08.5-.53.74c-1.65.87-4.84.1-4.3-2.37" vector-effect="non-scaling-stroke"/><path stroke="#02a1e4" d="M126.82 42.12q-.5-.78-.66-1.97-.05-.4-.45-.4h-.26a.4.4 0 0 0-.41.44q.08 1.16-.49 1.85" vector-effect="non-scaling-stroke"/><path stroke="#02b7d4" d="M124.55 42.04q-.79.02-.73-.23.82-3.79-1.57-3.77" vector-effect="non-scaling-stroke"/><path stroke="#02958f" d="M109.26 36.46q-2.29-2.98-5.02-.02-.36.39-.09.85.23.39-.23.64a.56.56 0 0 1-.83-.48q-.05-2.52-1.39-3.33" vector-effect="non-scaling-stroke"/><path stroke="#01c965" d="M111.61 38.97q1.64 1.99-1.66 3.19-.92.33-1.07-.4-.1-.47-.56-.61-1.55-.48-1.68 1.15" vector-effect="non-scaling-stroke"/><path stroke="#01c7a5" d="m106.64 42.3-5.37 3.06a2.13 2.13 0 0 0-.4 3.42l2.59 2.41a1.03 1.02 27.1 0 1 .31.95l-.63 3.14" vector-effect="non-scaling-stroke"/><path stroke="#01c965" d="M103.14 55.28q.95 1.26-.54 2.53" vector-effect="non-scaling-stroke"/><path stroke="#01ce8d" d="M102.6 57.81q-2.49-2.31-4.86-.5-.43.32-.46.84l-.15 2.07" vector-effect="non-scaling-stroke"/><path stroke="#01c965" d="M97.13 60.22c-1.4 2.76-3.72 7.97-1.36 10.61q.34.38.23.87-.35 1.53.77 2.45a1.18 1.18 0 0 1-.33 2.01q-3.69 1.41-4.86 6.57" vector-effect="non-scaling-stroke"/><path stroke="#02958f" d="m90.01 81.45-2.05-1.16" vector-effect="non-scaling-stroke"/><path stroke="#01ad3f" d="M87.96 80.29q1.67.11 2.05-1.22 1.66-5.93-2.92-9.37-.1-.07-.01-.15l.25-.25a.32.31-79.9 0 0-.35-.51l-3.54 1.67q-.41.19-.81-.02l-5.71-3.06q-.33-.18-.34-.56c-.11-4.48 1.79-7.81 5.23-10.55q2.56-2.04 3.33-3.57 1.71-3.38-.19-5.26" vector-effect="non-scaling-stroke"/><path stroke="#02958f" d="M84.95 47.44q1.67-3.47 6.3-5.94.91-.48.71-2.01" vector-effect="non-scaling-stroke"/><path stroke="#02c7db" d="M124.55 42.04q-.43.35-.15.68" vector-effect="non-scaling-stroke"/><path stroke="#01d6e2" d="M124.4 42.72q-2.97 3.08-7.79 3.13-.61.01-.61.62v.81a.49.49 0 0 0 .51.49l2.58-.08q.41-.01.5.39c.65 2.98 4.87 6.55 3.57 9.43q-.17.38-.58.4l-6.77.32q-.56.03-.89.49-.82 1.17-.23 2.67.2.51-.02 1.01-.97 2.29-3.48 2.12a1.34 1.31-66.2 0 0-1.08.43l-2.41 2.66q-.31.34-.76.39-1.6.19-2.25 1.48" vector-effect="non-scaling-stroke"/><path stroke="#01e1e4" d="m104.69 69.48-1.22 1.19" vector-effect="non-scaling-stroke"/><path stroke="#01d6e2" d="m103.47 70.67-3.34 3.48" vector-effect="non-scaling-stroke"/><path stroke="#01d8a2" d="M100.13 74.15q-.57-2.01.33-3.55.24-.43.74-.36l.96.13a.74.74 0 0 0 .79-.47l1.07-2.92a.8.79 30.1 0 0-.24-.88q-1.11-.9-2.58-.55a.58.58 0 0 1-.71-.62q.23-2.47-2.19-1.87a.55.54-12.3 0 1-.66-.42l-.51-2.42M102.6 57.81q3.67-.14 3.88-1.54.07-.52.57-.69 2.52-.87 4.79-2.18c2.62-1.51 7.67.17 7.15-4.59a.62.61-84.3 0 0-.43-.53q-.79-.25-1.28.24a1.73 1.62-19.2 0 1-2.91-1.29q.09-.53-.94-1.46" vector-effect="non-scaling-stroke"/><path stroke="#01d6e2" d="M113.43 45.77q1.25-.6 2.2-.49.48.05.62-.41.2-.64-.17-1.31" vector-effect="non-scaling-stroke"/><path stroke="#01b2ac" d="M153.37 34.08q-1.48.29-2.01.79a.55.55 0 0 0 .05.84l3.38 2.49" vector-effect="non-scaling-stroke"/><path stroke="#037ed6" d="M154.79 38.2q-.13.03-.27.04-.25.03-.14.25 1.77 3.41 4.66 5.91.41.35.96.35h.66q.68 0 .61.67l-.1 1.03a.53.52 23 0 1-.86.34q-1.28-1.07-1.85.24" vector-effect="non-scaling-stroke"/><path stroke="#01add4" d="m158.46 47.03-1.74-.93q-.5-.27-.49.3 0 .52.68 1.24" vector-effect="non-scaling-stroke"/><path stroke="#037ed6" d="M156.91 47.64q-4.96 2.2-2.03 7.19a1.95 1.88 30.9 0 1 .26.96q-.02 4.3.87 8.47c.88 4.07-.36 12.05-1.41 15.74-2.22 7.86-7.1 17.12-14.61 21.1q-6.43 3.41-11.24 4.37c-5.01.99-14.45.42-19.68-3q-.4-.25-.86-.28-2.04-.11-3.47-1.56-.36-.36-.86-.39l-1.67-.07" vector-effect="non-scaling-stroke"/><path stroke="#01b2ac" d="m102.21 100.17 1.1-.24q.63-.14.18-.61-.6-.63-2-.71" vector-effect="non-scaling-stroke"/><path stroke="#037ed6" d="M101.49 98.61q-3.88.44-4.37-2.2" vector-effect="non-scaling-stroke"/><path stroke="#0398a2" d="m97.12 96.41-5.87-4.42" vector-effect="non-scaling-stroke"/><path stroke="#037ed6" d="M91.25 91.99q0-.65-.88-.92a.53.52 13.9 0 1-.36-.59q.5-2.87-1.48-5.08a1.12 1.1 22.2 0 1-.28-.65q-.11-1.33-.72-2.45-.41-.74.43-.64 1.23.14 2.05-.21" vector-effect="non-scaling-stroke"/><path stroke="#02a897" d="m90.01 81.45 1.57 1.28" vector-effect="non-scaling-stroke"/><path stroke="#01b2ac" d="m91.58 82.73-.16 5.42q-.01.6.59.6h.46q.51 0 .51-.5c.04-4.43-1.35-8.79 4.14-10.51" vector-effect="non-scaling-stroke"/><path stroke="#02a1e4" d="m97.12 77.74-2.69 2.16q-.37.29-.5.74-.75 2.5.72 4.55.34.48.92.41 1.53-.19 2.3 1.21.26.46.71.75 10.57 6.59 23.02 6.22a.28.28 0 0 1 .06.56q-1.64.32-3.55.16-.05 0-.05.05v.05q0 .11.09.11c18.34.63 29.55-15.88 26.61-32.97-.81-4.7-1.62-7.07 2.52-10.46q1.64-1.34.65-3.08a.94.92-10.2 0 0-.66-.45q-2.97-.47-2.3-3.3.12-.52-.33-.81l-2.21-1.42" vector-effect="non-scaling-stroke"/><path stroke="#01b2ac" d="m142.43 42.22 3.76.85q.63.14.78-.49.27-1.08-.65-1.58-.52-.28-1.05-.02-.99.48-1.97.06-.51-.22-.97.1-.36.25-.43.69" vector-effect="non-scaling-stroke"/><path stroke="#02a1e4" d="M141.9 41.83q-1.81-1.6-4.19-.74" vector-effect="non-scaling-stroke"/><path stroke="#02bbee" d="M137.71 41.09q1.99-2.55.77-3.89" vector-effect="non-scaling-stroke"/><path stroke="#01c2b3" d="m141.9 41.83.53.39M97.12 77.74q-.04-.05-.07-.1" vector-effect="non-scaling-stroke"/><path stroke="#02c0f2" d="M97.05 77.64c3.72 5.31 9.73 7.94 16.01 9.03 5.68.99 16.67-1.48 20.16-6.58q4.99-7.27 4.92-16.64-.01-1.51-1.05-2.15-.42-.26-.42-.75-.01-2.29 1.2-4.39.21-.37.16-.81c-.63-4.51-5.49-5.53-9.04-6.96q-.44-.17-.65-.59l-2.48-4.79a.86.85 82.9 0 0-.56-.44q-.96-.24-.9.15" vector-effect="non-scaling-stroke"/><path stroke="#01d8a2" d="M120.67 42.68q-3.21 1.36-4.59.88" vector-effect="non-scaling-stroke"/><path stroke="#01d1ba" d="M116.08 43.56q-1.66-1.09-3.68-1.43-.46-.08-.85.18-1.59 1.07-4.91-.01" vector-effect="non-scaling-stroke"/><path stroke="#02837e" d="M84.95 47.44c-3.36 2.36-6.58 6.9-8.93 9.85" vector-effect="non-scaling-stroke"/><path stroke="#0252b1" d="M76.02 57.29q-.14-1.01-.9-2.11" vector-effect="non-scaling-stroke"/><path stroke="#01d1ba" d="M113.43 45.77q-1.9-1.95-3.32 1.89c-.39 1.05-.06 3.13-1.67 3.53q-2.33.57-2.34 2.44 0 .5-.32.88-1.09 1.32-2.64.77" vector-effect="non-scaling-stroke"/><path stroke="#02a4cc" d="M156.82 41.12q2.62 2.77 4.45 2.61" vector-effect="non-scaling-stroke"/><path stroke="#02958f" d="M167.51 44.85q.58 1.79-1.38 3.34-.41.32-.34.84l.78 5.45" vector-effect="non-scaling-stroke"/><path stroke="#029fa4" d="m166.57 54.48-.66.33q-.52.25-.09.64l4.26 3.84a1.05 1.05 0 0 1-1.02 1.78q-1.46-.45-2.17.64-.26.41-.09.88l1.8 4.84" vector-effect="non-scaling-stroke"/><path stroke="#035cc2" d="M168.6 67.43q.6.67.68 1.39.07.6.66.64l1.52.12a.18.18 0 0 1 .04.35l-1 .29q-.55.16-.66.72-1.88 9.3-4.96 18.25c-2.74 7.95-8.33 15.65-13.68 21.98a3.66 3.66 0 0 0-.35 4.23l4.3 7.21a.83.83 0 0 0 .51.37q1.51.33 1.62 1.94.03.54-.39.87l-1.96 1.54q-.3.24-.53-.08l-.95-1.31q-.41-.57-.98-.16-3.61 2.57-7.93 1.34a1.66 1.66 0 0 0-.99.03c-2.87.99-7.97-.28-10.49-.85a3.32 3.29-.4 0 1-2.5-2.45q-.49-2-2.39-3.13a.06.06 0 0 0-.09.03q-.04.13-.08.27-.1.33-.35.1-2.59-2.42-4.6-1.84" vector-effect="non-scaling-stroke"/><path stroke="#057b8f" d="M123.05 119.28q-4.74.58-6.5-2.9-.21-.42-.66-.54-2.52-.7-3.91-2.96-.39-.63-.95-.15l-1.21 1.03q-.38.33-.82.1l-6.33-3.16" vector-effect="non-scaling-stroke"/><path stroke="#035cc2" d="M102.67 110.7c1.13-3.04-3.79-5.52-5.94-6.15q-.52-.15-.86-.56-1.43-1.71-3.55-2.41-.55-.18-.73-.72l-2.19-6.57q-.18-.53-.74-.53-1.08 0-1.04-1.15.01-.27.26-.38.12-.06.12-.24-.01-.49-.51-.49h-.3q-.28 0-.54-.14-2.42-1.29-1.27-3.51a.86.83-44.2 0 0 .02-.72l-2.49-5.51a.83.83 0 0 1 .85-1.16q.25.03.6.13" vector-effect="non-scaling-stroke"/><path stroke="#02837e" d="M84.36 80.59q1.93-1.1 3.6-.3" vector-effect="non-scaling-stroke"/><path stroke="#03859b" d="m91.25 91.99-.63-.19a.58.58 0 0 0-.51 1.02q2.36 1.76 4.64 3.76.56.49 1.13.57 1.38.21 1.24-.74" vector-effect="non-scaling-stroke"/><path stroke="#029fa4" d="m101.49 98.61-.95.17q-.62.12-.24.62.76 1.01 1.91.77" vector-effect="non-scaling-stroke"/><path stroke="#029acc" d="M156.91 47.64q.89.15 1.88 1.03.45.4.09.88-1.15 1.55.4 3.35a.89.72-88.8 0 0 1.05-1.24q-1.02-1.46.04-2.79.32-.41-.12-.69l-1.79-1.15" vector-effect="non-scaling-stroke"/><path stroke="#027472" d="M84.36 80.59q-3.33-2.29-4.16-.77" vector-effect="non-scaling-stroke"/><path stroke="#016a61" d="m80.2 79.82-1.64.31q-.55.1-.59.66-.18 3.2-2.27 5.49-.35.38-.41.89-.56 4.62 2.79 7.65.4.36.93.27 1.62-.26 2.09-1.78.16-.5.66-.65 1.39-.4 2.51.13" vector-effect="non-scaling-stroke"/><path stroke="#027472" d="m84.27 92.79-2.76 5.55a.94.93 16 0 0 .75 1.34q4.92.51 3.35 5.11" vector-effect="non-scaling-stroke"/><path stroke="#038634" d="M85.61 104.79q-.79-.03-1.43.45" vector-effect="non-scaling-stroke"/><path stroke="#016a61" d="M84.18 105.24c-.83-2.39-2.77-3.1-3.95-4.59q-1.45-1.83-2.79-3.79-.29-.43-.8-.36c-2.31.28-4.02-3.5-5.63-6.19a1.62 1.55-60.6 0 1-.21-.83l.5-18.14q.02-.48-.45-.58l-1.37-.31q-.42-.09-.22-.46l6.76-12.7" vector-effect="non-scaling-stroke"/><path stroke="#01d1ba" d="M97.05 77.64q3.52-1.45 3.08-3.49" vector-effect="non-scaling-stroke"/><path stroke="#01dafc" d="m103.47 70.67-.79 2.64a.88.88 0 0 0 .28.92c6.49 5.41 14.08 5.82 21.4 1.54 4.09-2.38 5.52-6.9 5.72-11.32.06-1.24-.65-2.92.23-4.22q.25-.37.23-.82-.17-2.93-2.47-4.58a1.62 1.62 0 0 0-2.57 1.32v1.15q0 .53.34.93 1.18 1.43.39 3.09-.2.41-.65.4l-2.32-.07a.53.53 0 0 1-.52-.5c-.17-2.39-1.59-3.14-3.66-2.14q-.84.41-1.24.03a1.45 1.41-72.1 0 0-2.39 1.26q.29 2.16-.85 4.12-.25.43-.76.48c-3.61.29-5.37 3.16-9.15 4.58" vector-effect="non-scaling-stroke"/><path stroke="#01c965" d="M168.08 42.68q-.66 1.02-.57 2.17" vector-effect="non-scaling-stroke"/><path stroke="#029fa4" d="M167.51 44.85q-1.93-1.62-4.12-4.24-1.09-1.31-2.23-.06a.44.44 0 0 0 .15.7q3.17 1.33 3.72 4.74a.47.46-71.7 0 1-.79.4q-.36-.38-.24-.88.13-.53-.26-.92-1.09-1.07-2.47-.86" vector-effect="non-scaling-stroke"/><path stroke="#01d8a2" d="M161.27 43.73q-.75-3.03-4.45-2.61" vector-effect="non-scaling-stroke"/><path stroke="#029fa4" d="m156.82 41.12-2.03-2.92" vector-effect="non-scaling-stroke"/><path stroke="#025467" d="M84.18 105.24q-.72 3.28 4.25 7.07" vector-effect="non-scaling-stroke"/><path stroke="#0242a5" d="M88.43 112.31q-3.51 2.19.95 3.07.44.09.55.53.74 3.16-1.39 5.32-1.2 1.23.41 1.74.08.02 1.17-.52" vector-effect="non-scaling-stroke"/><path stroke="#025467" d="M90.12 122.45q-1.45 2.69.18 4.3" vector-effect="non-scaling-stroke"/><path stroke="#036272" d="M90.3 126.75q-.9 2.85 2.09 4.54a1.24 1.23 7.7 0 1 .59.77q.88 3.34 3.52 5.5.44.36.46.92.1 2.23 2.33 2.5.46.06.83.36l3.55 2.98" vector-effect="non-scaling-stroke"/><path stroke="#026b7e" d="M103.67 144.32q2.72 3.72 2.39 9.5" vector-effect="non-scaling-stroke"/><path stroke="#025467" d="m106.06 153.82.72 3.19" vector-effect="non-scaling-stroke"/><path stroke="#01c965" d="m179.8 54.44-3.36.59" vector-effect="non-scaling-stroke"/><path stroke="#028683" d="M176.44 55.03q-.31-.32-1.73-.6" vector-effect="non-scaling-stroke"/><path stroke="#01c965" d="m174.71 54.43-1.74 1.93q-.37.42-.46.97-.18 1.11-1.24 1.39-.53.14-.8-.33-1.42-2.51-3.9-3.91" vector-effect="non-scaling-stroke"/><path stroke="#056c83" d="M102.67 110.7q-1.23-.04-1.21 1.72 0 .53-.49.73-1 .39-2.86-.76" vector-effect="non-scaling-stroke"/><path stroke="#045e78" d="M98.11 112.39q.09-1.15 1.14-1.52a.52.51-56.9 0 0-.21-1l-2.23.18a.81.81 0 0 0-.73.62q-.36 1.57-1.77 2.42-.43.25-.84-.02-1.2-.79-1.53-2.16a.92.92 0 0 0-1.54-.45q-1.13 1.1-2.41.06-3.05-2.46-2.38-5.73" vector-effect="non-scaling-stroke"/><path stroke="#0242a5" d="M84.27 92.79q-.63-.75-2.62-.53-.53.06-.38-.46c.85-2.84.64-7.94-2.32-9.62q-.43-.25-.24-.7.4-.97 1.49-1.66" vector-effect="non-scaling-stroke"/><path stroke="#028f98" d="M174.71 54.43q1.53 2.45 3.06 3.52.39.28.9.02.43-.22.1-.56l-2.33-2.38" vector-effect="non-scaling-stroke"/><path stroke="#008587" d="M180.23 55.28q-.36 1.45.31 2.79.29.59-.35.68l-.35.05a.3.29-83.7 0 0-.25.21l-.32 1.07a.43.42 27.1 0 1-.67.21l-3.62-2.88q-.51-.41-.85.15l-1.11 1.85" vector-effect="non-scaling-stroke"/><path stroke="#028f98" d="m173.02 59.41.32 4.21a.72.68 29.3 0 0 .1.32q1.85 3.16-.81 5.38-.36.3-.75.06l-3.28-1.95" vector-effect="non-scaling-stroke"/><path stroke="#05955b" d="M128.77 126.4q-.59 1.16-.14 2a.75.74-14.3 0 0 .65.38q3.51.03 5.94 2.47a.86.85-14.5 0 0 .38.22l3.63.94a.44.44 0 0 1 .06.83q-2.45 1.08-2.58 3.73-.02.49-.38.83l-3.53 3.4a1.2 1.2 0 0 1-.87.35q-2.12-.02-2.62 1.97-.12.44-.53.63l-4.2 1.95q-.5.23-.69.74-.8 2.19-3.06 3.07-.41.16-.82 0-1.57-.61-1.58-2.34a.86.86 0 0 0-.5-.78c-2.35-1.06-4.23-2.76-6.77-2.92q-3.71-.24-7.49.45" vector-effect="non-scaling-stroke"/><path stroke="#028683" d="M178.06 66.84q-1.23.67-1.38 2.73a.77.77 0 0 1-.55.68l-2.19.66q-.56.17-.45.74l.22 1.12a.72.69 60.5 0 1-.15.58q-1.76 2.1-.41 4.26.26.4.2.87-.3 2.71-2.14 4.69a1.01.97-22 0 0-.26.58l-.72 7.57q-.05.53.13 1.04 1.49 4.23.57 8.66a.81.79-68.2 0 0 .34.82l1.63 1.08" vector-effect="non-scaling-stroke"/><path stroke="#027472" d="M172.9 102.92q.64 2.37 2.38 3.29.43.24.63.7l.8 1.92" vector-effect="non-scaling-stroke"/><path stroke="#0242a5" d="m176.71 108.83 1.38 2.01q.28.41.79.41h.62q.25 0 .25.25 0 .14.01.3.01.23-.22.24c-6.78.19-2.49 6.36-4.79 7.93a2.43 2.26 39.3 0 0 .55 4.05q1.69.78 3.21 1.82.36.25.77.08 3.19-1.31 4.47-4.57.2-.5.67-.73l1.29-.66q.49-.24.53.3c.32 4.18-4.49 6.59-2.13 10.08" vector-effect="non-scaling-stroke"/><path stroke="#0265bc" d="M173.88 142.57q-1.29-.9-.83-2.25a.91.9 87.9 0 0-1.21-1.13c-1.16.5-5.77 1.31-6.15 1.73a.8.78 21.4 0 1-.64.27l-14.07-.74q-.52-.03-.78-.48-.36-.62-1.01-.69-.55-.06-.44-.61l.47-2.27" vector-effect="non-scaling-stroke"/><path stroke="#03758f" d="M149.22 136.4c-.1-1.35.78-2.39.4-3.53q-.39-1.18-1.73-1.16-.51 0-.98-.18c-4.22-1.63-8.26-1.33-12.47-2.51q-2.58-.72-5.22-1.13-.48-.08-.47-.56l.02-.93" vector-effect="non-scaling-stroke"/><path stroke="#056c83" d="M128.77 126.4c1.5-4.14-3.56-5.26-5.72-7.12" vector-effect="non-scaling-stroke"/><path stroke="#057e44" d="M98.11 112.39q.74 2.97-.57 4.46a.89.89 0 0 0 1.14 1.34l1.19-.75q.44-.28.37-.79-.25-1.88 1.68-2.4.33-.09.33.25 0 .13-.01.26a.86.86 0 0 0 .44.8q2.09 1.16 1.83 3.57-.06.54.29.95l2.75 3.32q.33.39.2.89-.27 1.11.42 1.68.34.27.35.7.06 2.01 1.81 3.11a.82.79 4.6 0 1 .31.35l1.79 4.2q.2.47.02.94-.91 2.35-3.48 2.05a.64.64 0 0 0-.7.5c-1.12 5.21-7.4.16-9.96-.95a1.67 1.66 86.2 0 1-.74-.65c-1.51-2.43-2.7-4.54-3.73-7.32q-.87-2.32-3.54-2.15" vector-effect="non-scaling-stroke"/><path stroke="#045e78" d="M90.12 122.45q2.41-1.9 1.85-5.51a.89.87-29.1 0 1 .21-.71l.66-.73a.63.63 0 0 0 .06-.76l-1.55-2.48a.62.61 63.4 0 0-.73-.25q-1.33.47-2.19.3" vector-effect="non-scaling-stroke"/><path stroke="#028e95" d="m149.22 136.4-2.03 2.8q-.3.4-.79.47c-1.5.21-2.17.97-2.52 2.53q-.81 3.57-3.33 6.1c-1.89 1.92-4.15 1.98-6.67 1.63q-.6-.09-.99.38l-2.19 2.64q-.09.1-.69.55-.21.16-.45.22-.42.11-.72.41l-2.91 2.92a1.07 1.07 0 0 1-1.02.28q-1.06-.29-1.95.15-.51.25-1.06.15-1.37-.25-2.07 1.24" vector-effect="non-scaling-stroke"/><path stroke="#048750" d="M119.83 158.87q-.84.24-1.51.03-.63-.19-.29-.75l.24-.41q.29-.49-.27-.59l-6.03-1.13q-.47-.09-.76-.47-1.81-2.32-5.15-1.73" vector-effect="non-scaling-stroke"/><path stroke="#017c72" d="M187 66.06q-1.31.21-.36 1.86.49.86-.43 1.54-.34.25-.63-.05-1.29-1.33-3.23-1.37-.66-.02-.89-.63l-.81-2.19q-.16-.43-.58-.24-1.06.48-2.01 1.86" vector-effect="non-scaling-stroke"/><path stroke="#0242a5" d="m178.06 66.84-.33-1.37q-.11-.43-.54-.52c-2.54-.54-1.96-3.14-1.94-5.03q.01-.56-.55-.55l-1.68.04" vector-effect="non-scaling-stroke"/><path stroke="#0288d0" d="M166.23 149.07c.18-5.76-5.71-2.78-7.96-1.13q-.4.3-.88.35-5.01.53-6.35 5.26-.17.59.4.83l3.47 1.43" vector-effect="non-scaling-stroke"/><path stroke="#03777e" d="M118.02 160.67q.15-.78 1.81-1.8" vector-effect="non-scaling-stroke"/><path stroke="#016a61" d="M191.54 112.37q-.92-2.88.62-7.44a1.22 1.22 0 0 0-1.39-1.59l-.96.19a.66.66 0 0 1-.61-.2q-.45-.49-1.15-.33-.53.12-.78.6l-1.68 3.23q-.2.39-.6.59l-4.93 2.43q-.4.19-.76-.06-1.16-.84-2.59-.96" vector-effect="non-scaling-stroke"/><path stroke="#01ad3f" d="M193.45 88q-1.87 1.46-1.58 4.22a.96.96 0 0 1-1.88.32c-.76-3.17-5.37-.17-6.51 1.34-2.04 2.68-4.37 2.18-6.51 4.22q-2.33 2.23-4.07 4.82" vector-effect="non-scaling-stroke"/><path stroke="#029fa4" d="m164.22 52.89.79-.99a.42.42 0 0 0-.07-.59l-1.51-1.2a2.19 1.05 38.5 0 0-2.37-.54 2.19 1.05 38.5 0 0 1.06 2.18l1.51 1.2a.42.42 0 0 0 .59-.06" vector-effect="non-scaling-stroke"/><path stroke="#002686" d="M80.04 126.99q-2.02-3.93-1.46-8.2.05-.4-.1-.77c-1.2-2.77-.39-10.04-.04-14.05q.42-5-5.02-6.25-.49-.11-.68-.57L71 93.09a.77.75-3.1 0 0-.5-.44c-1.36-.4-1.54-1.21-1.38-2.59.45-3.87-.79-7.02-.89-10.52q-.05-2.17-.07-4.43a.38.38 0 0 0-.75-.11q-5.24 16.79-1.38 34.03c.61 2.67 2.42 5.41 2.78 8.66q.05.51.35.94 2.24 3.16 3.57 6.84.17.46.07.94-.21.98.88 1.18 3.2.6 5.83.37a.67.67 0 0 0 .53-.97" vector-effect="non-scaling-stroke"/></g><path fill="#8d8f8a" d="M61.83 16.58q-2.34.75-5.13.13a1.48 1.44-50.9 0 0-.95.11q-.27.13-.54.29-.42.25-.92.25-8.24.12-16.45-.02c-6.3-.1-11.31.55-15.14 5.12q-3.33 3.2-3.32 6.04.17 31.88-.37 63.74c-.42 25.01-.08 50.06-.15 75.07q0 .85.37 1.68l-1.72.01q-.02-66.85-.01-133.7c0-12.71 5.79-18.73 18.58-18.79q12.79-.07 25.75.07Z"/><path fill="#f4f4f4" d="m61.83 16.58 2.65-.05q9.33.81 18.71.81 65.28.06 130.56-.01c6.84-.01 15.02-.46 19.9 5.31-1.74 6.08-.11 9.88-.12 15.36-.04 23.71-.64 47.44-.16 71.14.07 3.57-.9 7.97-.27 12.17.18 1.21-.26 2.43-.18 3.7q.57 8.66.16 17.33-.02.47.23.86.18.3.2.8.53 13.41.73 27.04-1.85.46-2.49.46H24.26c-2.34-1.58-.7-5.52-.76-7.75q-1.5-55.3-1.03-110.63c.05-6.98-.69-20.25.23-30.66 3.83-4.57 8.84-5.22 15.14-5.12q8.21.14 16.45.02.5 0 .92-.25.27-.16.54-.29a1.48 1.44-50.9 0 1 .95-.11q2.79.62 5.13-.13ZM195.3 95.25a67.31 67.31 0 0 0-67.31-67.31 67.31 67.31 0 0 0-67.31 67.31 67.31 67.31 0 0 0 67.31 67.31 67.31 67.31 0 0 0 67.31-67.31Z"/><path fill="#8d8f8a" d="M64.48 16.53q78.78-.06 157.52-.03c11.33.01 16.48 7.98 16.49 18.26q.04 62.87-.01 125.73.01 3.32-1.1 4.27c-.33-12.17-.2-23.48-.32-36.76q-.39-42.86.33-96.94.05-4.04-3.74-8.42c-4.88-5.77-13.06-5.32-19.9-5.31q-65.28.07-130.56.01-9.38 0-18.71-.81Z"/><path fill="#c9c9c9" d="M22.7 22.46c-.92 10.41-.18 23.68-.23 30.66Q22 108.45 23.5 163.75c.06 2.23-1.58 6.17.76 7.75q-1.99.25-4.2-1.39-.47-.25-.83-1.12-.37-.83-.37-1.68c.07-25.01-.27-50.06.15-75.07q.54-31.86.37-63.74-.01-2.84 3.32-6.04ZM233.65 22.64q3.79 4.38 3.74 8.42-.72 54.08-.33 96.94c.12 13.28-.01 24.59.32 36.76q.43 3.28-1.26 5.57l-1.88.71q-.2-13.63-.73-27.04-.02-.5-.2-.8-.25-.39-.23-.86.41-8.67-.16-17.33c-.08-1.27.36-2.49.18-3.7-.63-4.2.34-8.6.27-12.17-.48-23.7.12-47.43.16-71.14.01-5.48-1.62-9.28.12-15.36Z"/><path fill="#021f42" d="M195.3 95.25a67.31 67.31 0 0 1-67.31 67.31 67.31 67.31 0 0 1-67.31-67.31 67.31 67.31 0 0 1 67.31-67.31 67.31 67.31 0 0 1 67.31 67.31Zm-88.34-63.09-5.26 1.96-9.74 5.37q-9.71 6.4-16.84 15.69-17.37 23.41-11.67 52.29.08.41.53 1.42c.49 1.13.24 2.65.54 3.71 5.62 20.21 20.76 37.82 41.16 44.99q.48.17.9-.13.3-.21.2-.45 4.83 2.58 11.24 3.66c13.22.97 24.76.61 36.89-4.86q5.97-2.57 11.32-6.74l7.65-6.5q5.89-5.51 10.23-12.23c3.39-5.35 6.92-12.03 7.43-17.97q3.41-11.98 1.91-24.37-.66-11.77-6.45-21.94-.27-1.4-.67-1.42a2.37 2.37 0 0 1-2.2-2.02q-.67-4.55-3.9-7.34-.11.7-.43-.84-5.03-6.67-11.72-11.76-6.74-5.42-14.71-8.6-8.04-3.71-16.72-4.34-15.07-1.88-29.69 2.42Z"/><path fill="#00c9ca" d="M136.65 29.74q-.34 2.45-5.64 1.45-1.95-.37-2.24.65a.82.82 0 0 0 1.02 1q3.29-.99 5.41 1.08c1.11 1.09 2.57 1.84 3.28 3.28l-5.73 1.19q-.48.1-.93-.11-1.05-.51-2.11-.04-.39.17-.51.59-.8 2.8-.16 5.7-2-.25-2.22-2.41l1.34-1.74q.33-.42-.07-.78l-1.26-1.13q-.42-.37-.52-.92-.43-2.35-2.86-2.45-.55-.03-1.01-.33-1.99-1.3-3.65.4a.74.73 36.2 0 1-.86.13q-1.38-.71-2.38.23-.44.42.14.59l6.56 1.92q.1 4.15-1.58 4.64l-1.41-3.29a1.12 1.12 0 0 0-.78-.66q-2.05-.47-3.41-2.03a.51.51 0 0 0-.85.12q-1.33 2.85-2.61 2.15.48-1.19.26-1.79-.18-.52-.61-.17-1.81 1.52-4.24 1.74a.3.3 0 0 1-.2-.55l2.44-1.74q.82-1.71.05-3.09-.24-.44-.75-.5-1.36-.17-1.6-.71 14.62-4.3 29.69-2.42Z"/><path fill="#0291dd" d="M136.65 29.74q8.68.63 16.72 4.34-1.48.29-2.01.79a.55.55 0 0 0 .05.84l3.38 2.49q-.13.03-.27.04-.25.03-.14.25 1.77 3.41 4.66 5.91.41.35.96.35h.66q.68 0 .61.67l-.1 1.03a.53.52 23 0 1-.86.34q-1.28-1.07-1.85.24l-1.74-.93q-.5-.27-.49.3 0 .52.68 1.24-4.96 2.2-2.03 7.19a1.95 1.88 30.9 0 1 .26.96q-.02 4.3.87 8.47c.88 4.07-.36 12.05-1.41 15.74-2.22 7.86-7.1 17.12-14.61 21.1q-6.43 3.41-11.24 4.37c-5.01.99-14.45.42-19.68-3q-.4-.25-.86-.28-2.04-.11-3.47-1.56-.36-.36-.86-.39l-1.67-.07 1.1-.24q.63-.14.18-.61-.6-.63-2-.71-3.88.44-4.37-2.2l-5.87-4.42q0-.65-.88-.92a.53.52 13.9 0 1-.36-.59q.5-2.87-1.48-5.08a1.12 1.1 22.2 0 1-.28-.65q-.11-1.33-.72-2.45-.41-.74.43-.64 1.23.14 2.05-.21l1.57 1.28-.16 5.42q-.01.6.59.6h.46q.51 0 .51-.5c.04-4.43-1.35-8.79 4.14-10.51l-2.69 2.16q-.37.29-.5.74-.75 2.5.72 4.55.34.48.92.41 1.53-.19 2.3 1.21.26.46.71.75 10.57 6.59 23.02 6.22a.28.28 0 0 1 .06.56q-1.64.32-3.55.16-.05 0-.05.05v.05q0 .11.09.11c18.34.63 29.55-15.88 26.61-32.97-.81-4.7-1.62-7.07 2.52-10.46q1.64-1.34.65-3.08a.94.92-10.2 0 0-.66-.45q-2.97-.47-2.3-3.3.12-.52-.33-.81l-2.21-1.42 3.76.85q.63.14.78-.49.27-1.08-.65-1.58-.52-.28-1.05-.02-.99.48-1.97.06-.51-.22-.97.1-.36.25-.43.69-1.81-1.6-4.19-.74 1.99-2.55.77-3.89c-.71-1.44-2.17-2.19-3.28-3.28q-2.12-2.07-5.41-1.08a.82.82 0 0 1-1.02-1q.29-1.02 2.24-.65 5.3 1 5.64-1.45Z"/><path fill="#036bce" d="M106.96 32.16q.24.54 1.6.71.51.06.75.5.77 1.38-.05 3.09-2.29-2.98-5.02-.02-.36.39-.09.85.23.39-.23.64a.56.56 0 0 1-.83-.48q-.05-2.52-1.39-3.33l5.26-1.96Z"/><path fill="#01bf50" d="M101.7 34.12q1.34.81 1.39 3.33a.56.56 0 0 0 .83.48q.46-.25.23-.64-.27-.46.09-.85 2.73-2.96 5.02.02l-2.44 1.74a.3.3 0 0 0 .2.55q2.43-.22 4.24-1.74.43-.35.61.17.22.6-.26 1.79 1.64 1.99-1.66 3.19-.92.33-1.07-.4-.1-.47-.56-.61-1.55-.48-1.68 1.15l-5.37 3.06a2.13 2.13 0 0 0-.4 3.42l2.59 2.41a1.03 1.02 27.1 0 1 .31.95l-.63 3.14q.95 1.26-.54 2.53-2.49-2.31-4.86-.5-.43.32-.46.84l-.15 2.07c-1.4 2.76-3.72 7.97-1.36 10.61q.34.38.23.87-.35 1.53.77 2.45a1.18 1.18 0 0 1-.33 2.01q-3.69 1.41-4.86 6.57l-1.57-1.28-2.05-1.16q1.67.11 2.05-1.22 1.66-5.93-2.92-9.37-.1-.07-.01-.15l.25-.25a.32.31-79.9 0 0-.35-.51l-3.54 1.67q-.41.19-.81-.02l-5.71-3.06q-.33-.18-.34-.56c-.11-4.48 1.79-7.81 5.23-10.55q2.56-2.04 3.33-3.57 1.71-3.38-.19-5.26 1.67-3.47 6.3-5.94.91-.48.71-2.01l9.74-5.37Z"/><path fill="#0291dd" d="M126.82 42.12q-.5-.78-.66-1.97-.05-.4-.45-.4h-.26a.4.4 0 0 0-.41.44q.08 1.16-.49 1.85-.79.02-.73-.23.82-3.79-1.57-3.77l-6.56-1.92q-.58-.17-.14-.59 1-.94 2.38-.23a.74.73 36.2 0 0 .86-.13q1.66-1.7 3.65-.4.46.3 1.01.33 2.43.1 2.86 2.45.1.55.52.92l1.26 1.13q.4.36.07.78l-1.34 1.74Z"/><path fill="#00d27a" d="M153.37 34.08q7.97 3.18 14.71 8.6-.66 1.02-.57 2.17-1.93-1.62-4.12-4.24-1.09-1.31-2.23-.06a.44.44 0 0 0 .15.7q3.17 1.33 3.72 4.74a.47.46-71.7 0 1-.79.4q-.36-.38-.24-.88.13-.53-.26-.92-1.09-1.07-2.47-.86-.75-3.03-4.45-2.61l-2.03-2.92-3.38-2.49a.55.55 0 0 1-.05-.84q.53-.5 2.01-.79ZM120.67 42.68q-3.21 1.36-4.59.88-1.66-1.09-3.68-1.43-.46-.08-.85.18-1.59 1.07-4.91-.01.13-1.63 1.68-1.15.46.14.56.61.15.73 1.07.4 3.3-1.2 1.66-3.19 1.28.7 2.61-2.15a.51.51 0 0 1 .85-.12q1.36 1.56 3.41 2.03a1.12 1.12 0 0 1 .78.66l1.41 3.29Z"/><path fill="#01e4fe" d="M138.48 37.2q1.22 1.34-.77 3.89-3.34 1.64-3.84 5.07-.08.5-.53.74c-1.65.87-4.84.1-4.3-2.37q-.64-2.9.16-5.7.12-.42.51-.59 1.06-.47 2.11.04.45.21.93.11l5.73-1.19Z"/><path fill="#01ddca" d="M122.25 38.04q2.39-.02 1.57 3.77-.06.25.73.23-.43.35-.15.68-2.97 3.08-7.79 3.13-.61.01-.61.62v.81a.49.49 0 0 0 .51.49l2.58-.08q.41-.01.5.39c.65 2.98 4.87 6.55 3.57 9.43q-.17.38-.58.4l-6.77.32q-.56.03-.89.49-.82 1.17-.23 2.67.2.51-.02 1.01-.97 2.29-3.48 2.12a1.34 1.31-66.2 0 0-1.08.43l-2.41 2.66q-.31.34-.76.39-1.6.19-2.25 1.48l-1.22 1.19-3.34 3.48q-.57-2.01.33-3.55.24-.43.74-.36l.96.13a.74.74 0 0 0 .79-.47l1.07-2.92a.8.79 30.1 0 0-.24-.88q-1.11-.9-2.58-.55a.58.58 0 0 1-.71-.62q.23-2.47-2.19-1.87a.55.54-12.3 0 1-.66-.42l-.51-2.42.15-2.07q.03-.52.46-.84 2.37-1.81 4.86.5 3.67-.14 3.88-1.54.07-.52.57-.69 2.52-.87 4.79-2.18c2.62-1.51 7.67.17 7.15-4.59a.62.61-84.3 0 0-.43-.53q-.79-.25-1.28.24a1.73 1.62-19.2 0 1-2.91-1.29q.09-.53-.94-1.46 1.25-.6 2.2-.49.48.05.62-.41.2-.64-.17-1.31 1.38.48 4.59-.88 1.68-.49 1.58-4.64Z"/><path fill="#036bce" d="m154.79 38.2 2.03 2.92q2.62 2.77 4.45 2.61 1.38-.21 2.47.86.39.39.26.92-.12.5.24.88a.47.46-71.7 0 0 .79-.4q-.55-3.41-3.72-4.74a.44.44 0 0 1-.15-.7q1.14-1.25 2.23.06 2.19 2.62 4.12 4.24.58 1.79-1.38 3.34-.41.32-.34.84l.78 5.45-.66.33q-.52.25-.09.64l4.26 3.84a1.05 1.05 0 0 1-1.02 1.78q-1.46-.45-2.17.64-.26.41-.09.88l1.8 4.84q.6.67.68 1.39.07.6.66.64l1.52.12a.18.18 0 0 1 .04.35l-1 .29q-.55.16-.66.72-1.88 9.3-4.96 18.25c-2.74 7.95-8.33 15.65-13.68 21.98a3.66 3.66 0 0 0-.35 4.23l4.3 7.21a.83.83 0 0 0 .51.37q1.51.33 1.62 1.94.03.54-.39.87l-1.96 1.54q-.3.24-.53-.08l-.95-1.31q-.41-.57-.98-.16-3.61 2.57-7.93 1.34a1.66 1.66 0 0 0-.99.03c-2.87.99-7.97-.28-10.49-.85a3.32 3.29-.4 0 1-2.5-2.45q-.49-2-2.39-3.13a.06.06 0 0 0-.09.03q-.04.13-.08.27-.1.33-.35.1-2.59-2.42-4.6-1.84-4.74.58-6.5-2.9-.21-.42-.66-.54-2.52-.7-3.91-2.96-.39-.63-.95-.15l-1.21 1.03q-.38.33-.82.1l-6.33-3.16c1.13-3.04-3.79-5.52-5.94-6.15q-.52-.15-.86-.56-1.43-1.71-3.55-2.41-.55-.18-.73-.72l-2.19-6.57q-.18-.53-.74-.53-1.08 0-1.04-1.15.01-.27.26-.38.12-.06.12-.24-.01-.49-.51-.49h-.3q-.28 0-.54-.14-2.42-1.29-1.27-3.51a.86.83-44.2 0 0 .02-.72l-2.49-5.51a.83.83 0 0 1 .85-1.16q.25.03.6.13 1.93-1.1 3.6-.3l2.05 1.16q-.82.35-2.05.21-.84-.1-.43.64.61 1.12.72 2.45a1.12 1.1 22.2 0 0 .28.65q1.98 2.21 1.48 5.08a.53.52 13.9 0 0 .36.59q.88.27.88.92l-.63-.19a.58.58 0 0 0-.51 1.02q2.36 1.76 4.64 3.76.56.49 1.13.57 1.38.21 1.24-.74.49 2.64 4.37 2.2l-.95.17q-.62.12-.24.62.76 1.01 1.91.77l1.67.07q.5.03.86.39 1.43 1.45 3.47 1.56.46.03.86.28c5.23 3.42 14.67 3.99 19.68 3q4.81-.96 11.24-4.37c7.51-3.98 12.39-13.24 14.61-21.1 1.05-3.69 2.29-11.67 1.41-15.74q-.89-4.17-.87-8.47a1.95 1.88 30.9 0 0-.26-.96q-2.93-4.99 2.03-7.19.89.15 1.88 1.03.45.4.09.88-1.15 1.55.4 3.35a.89.72-88.8 0 0 1.05-1.24q-1.02-1.46.04-2.79.32-.41-.12-.69l-1.79-1.15q.57-1.31 1.85-.24a.53.52 23 0 0 .86-.34l.1-1.03q.07-.67-.61-.67H160q-.55 0-.96-.35-2.89-2.5-4.66-5.91-.11-.22.14-.25.14-.01.27-.04Zm9.43 14.69.79-.99a.42.42 0 0 0-.07-.59l-1.51-1.2a2.19 1.05 38.5 0 0-2.37-.54 2.19 1.05 38.5 0 0 1.06 2.18l1.51 1.2a.42.42 0 0 0 .59-.06ZM91.96 39.49q.2 1.53-.71 2.01-4.63 2.47-6.3 5.94c-3.36 2.36-6.58 6.9-8.93 9.85q-.14-1.01-.9-2.11 7.13-9.29 16.84-15.69Z"/><path fill="#02b1eb" d="M126.82 42.12q.22 2.16 2.22 2.41c-.54 2.47 2.65 3.24 4.3 2.37q.45-.24.53-.74.5-3.43 3.84-5.07 2.38-.86 4.19.74l.53.39 2.21 1.42q.45.29.33.81-.67 2.83 2.3 3.3a.94.92-10.2 0 1 .66.45q.99 1.74-.65 3.08c-4.14 3.39-3.33 5.76-2.52 10.46 2.94 17.09-8.27 33.6-26.61 32.97q-.09 0-.09-.11v-.05q0-.05.05-.05 1.91.16 3.55-.16a.28.28 0 0 0-.06-.56q-12.45.37-23.02-6.22-.45-.29-.71-.75-.77-1.4-2.3-1.21-.58.07-.92-.41-1.47-2.05-.72-4.55.13-.45.5-.74l2.69-2.16q-.04-.05-.07-.1c3.72 5.31 9.73 7.94 16.01 9.03 5.68.99 16.67-1.48 20.16-6.58q4.99-7.27 4.92-16.64-.01-1.51-1.05-2.15-.42-.26-.42-.75-.01-2.29 1.2-4.39.21-.37.16-.81c-.63-4.51-5.49-5.53-9.04-6.96q-.44-.17-.65-.59l-2.48-4.79a.86.85 82.9 0 0-.56-.44q-.96-.24-.9.15-.28-.33.15-.68.57-.69.49-1.85a.4.4 0 0 1 .41-.44h.26q.4 0 .45.4.16 1.19.66 1.97Z"/><path fill="#00d27a" d="m142.43 42.22-.53-.39q.07-.44.43-.69.46-.32.97-.1.98.42 1.97-.06.53-.26 1.05.02.92.5.65 1.58-.15.63-.78.49l-3.76-.85Z"/><path fill="#01ddca" d="M161.27 43.73q-1.83.16-4.45-2.61 3.7-.42 4.45 2.61Z"/><path fill="#01cff9" d="M116.08 43.56q.37.67.17 1.31-.14.46-.62.41-.95-.11-2.2.49-1.9-1.95-3.32 1.89c-.39 1.05-.06 3.13-1.67 3.53q-2.33.57-2.34 2.44 0 .5-.32.88-1.09 1.32-2.64.77l.63-3.14a1.03 1.02 27.1 0 0-.31-.95l-2.59-2.41a2.13 2.13 0 0 1 .4-3.42l5.37-3.06q3.32 1.08 4.91.01.39-.26.85-.18 2.02.34 3.68 1.43ZM124.4 42.72q-.06-.39.9-.15a.86.85 82.9 0 1 .56.44l2.48 4.79q.21.42.65.59c3.55 1.43 8.41 2.45 9.04 6.96q.05.44-.16.81-1.21 2.1-1.2 4.39 0 .49.42.75 1.04.64 1.05 2.15.07 9.37-4.92 16.64c-3.49 5.1-14.48 7.57-20.16 6.58-6.28-1.09-12.29-3.72-16.01-9.03q3.52-1.45 3.08-3.49l3.34-3.48-.79 2.64a.88.88 0 0 0 .28.92c6.49 5.41 14.08 5.82 21.4 1.54 4.09-2.38 5.52-6.9 5.72-11.32.06-1.24-.65-2.92.23-4.22q.25-.37.23-.82-.17-2.93-2.47-4.58a1.62 1.62 0 0 0-2.57 1.32v1.15q0 .53.34.93 1.18 1.43.39 3.09-.2.41-.65.4l-2.32-.07a.53.53 0 0 1-.52-.5c-.17-2.39-1.59-3.14-3.66-2.14q-.84.41-1.24.03a1.45 1.41-72.1 0 0-2.39 1.26q.29 2.16-.85 4.12-.25.43-.76.48c-3.61.29-5.37 3.16-9.15 4.58q.65-1.29 2.25-1.48.45-.05.76-.39l2.41-2.66a1.34 1.31-66.2 0 1 1.08-.43q2.51.17 3.48-2.12.22-.5.02-1.01-.59-1.5.23-2.67.33-.46.89-.49l6.77-.32q.41-.02.58-.4c1.3-2.88-2.92-6.45-3.57-9.43q-.09-.4-.5-.39l-2.58.08a.49.49 0 0 1-.51-.49v-.81q0-.61.61-.62 4.82-.05 7.79-3.13Z"/><path fill="#01bf50" d="M168.08 42.68q6.69 5.09 11.72 11.76l-3.36.59q-.31-.32-1.73-.6l-1.74 1.93q-.37.42-.46.97-.18 1.11-1.24 1.39-.53.14-.8-.33-1.42-2.51-3.9-3.91l-.78-5.45q-.07-.52.34-.84 1.96-1.55 1.38-3.34-.09-1.15.57-2.17Z"/><path fill="#00d27a" d="M113.43 45.77q1.03.93.94 1.46a1.73 1.62-19.2 0 0 2.91 1.29q.49-.49 1.28-.24a.62.61-84.3 0 1 .43.53c.52 4.76-4.53 3.08-7.15 4.59q-2.27 1.31-4.79 2.18-.5.17-.57.69-.21 1.4-3.88 1.54 1.49-1.27.54-2.53 1.55.55 2.64-.77.32-.38.32-.88.01-1.87 2.34-2.44c1.61-.4 1.28-2.48 1.67-3.53q1.42-3.84 3.32-1.89Z"/><path fill="#00c9ca" d="m158.46 47.03 1.79 1.15q.44.28.12.69-1.06 1.33-.04 2.79a.89.72-88.8 0 1-1.05 1.24q-1.55-1.8-.4-3.35.36-.48-.09-.88-.99-.88-1.88-1.03-.68-.72-.68-1.24-.01-.57.49-.3l1.74.93Z"/><path fill="#019b2e" d="M84.95 47.44q1.9 1.88.19 5.26-.77 1.53-3.33 3.57c-3.44 2.74-5.34 6.07-5.23 10.55q.01.38.34.56l5.71 3.06q.4.21.81.02l3.54-1.67a.32.31-79.9 0 1 .35.51l-.25.25q-.09.08.01.15 4.58 3.44 2.92 9.37-.38 1.33-2.05 1.22-1.67-.8-3.6.3-3.33-2.29-4.16-.77l-1.64.31q-.55.1-.59.66-.18 3.2-2.27 5.49-.35.38-.41.89-.56 4.62 2.79 7.65.4.36.93.27 1.62-.26 2.09-1.78.16-.5.66-.65 1.39-.4 2.51.13l-2.76 5.55a.94.93 16 0 0 .75 1.34q4.92.51 3.35 5.11-.79-.03-1.43.45c-.83-2.39-2.77-3.1-3.95-4.59q-1.45-1.83-2.79-3.79-.29-.43-.8-.36c-2.31.28-4.02-3.5-5.63-6.19a1.62 1.55-60.6 0 1-.21-.83l.5-18.14q.02-.48-.45-.58l-1.37-.31q-.42-.09-.22-.46l6.76-12.7c2.35-2.95 5.57-7.49 8.93-9.85Z"/><path fill="#00d27a" d="M164.22 52.89a.42.42 0 0 1-.59.06l-1.51-1.2a2.19 1.05 38.5 0 1-1.06-2.18 2.19 1.05 38.5 0 1 2.37.54l1.51 1.2a.42.42 0 0 1 .07.59l-.79.99ZM174.71 54.43q1.53 2.45 3.06 3.52.39.28.9.02.43-.22.1-.56l-2.33-2.38 3.36-.59q.32 1.54.43.84-.36 1.45.31 2.79.29.59-.35.68l-.35.05a.3.29-83.7 0 0-.25.21l-.32 1.07a.43.42 27.1 0 1-.67.21l-3.62-2.88q-.51-.41-.85.15l-1.11 1.85.32 4.21a.72.68 29.3 0 0 .1.32q1.85 3.16-.81 5.38-.36.3-.75.06l-3.28-1.95-1.8-4.84q-.17-.47.09-.88.71-1.09 2.17-.64a1.05 1.05 0 0 0 1.02-1.78l-4.26-3.84q-.43-.39.09-.64l.66-.33q2.48 1.4 3.9 3.91.27.47.8.33 1.06-.28 1.24-1.39.09-.55.46-.97l1.74-1.93Z"/><path fill="#01e4fe" d="m103.47 70.67 1.22-1.19c3.78-1.42 5.54-4.29 9.15-4.58q.51-.05.76-.48 1.14-1.96.85-4.12a1.45 1.41-72.1 0 1 2.39-1.26q.4.38 1.24-.03c2.07-1 3.49-.25 3.66 2.14a.53.53 0 0 0 .52.5l2.32.07q.45.01.65-.4.79-1.66-.39-3.09-.34-.4-.34-.93v-1.15a1.62 1.62 0 0 1 2.57-1.32q2.3 1.65 2.47 4.58.02.45-.23.82c-.88 1.3-.17 2.98-.23 4.22-.2 4.42-1.63 8.94-5.72 11.32-7.32 4.28-14.91 3.87-21.4-1.54a.88.88 0 0 1-.28-.92l.79-2.64Z"/><path fill="#034cb6" d="M174.71 54.43q1.42.28 1.73.6l2.33 2.38q.33.34-.1.56-.51.26-.9-.02-1.53-1.07-3.06-3.52Z"/><path fill="#003894" d="M75.12 55.18q.76 1.1.9 2.11l-6.76 12.7q-.2.37.22.46l1.37.31q.47.1.45.58l-.5 18.14a1.62 1.55-60.6 0 0 .21.83c1.61 2.69 3.32 6.47 5.63 6.19q.51-.07.8.36 1.34 1.96 2.79 3.79c1.18 1.49 3.12 2.2 3.95 4.59q-.72 3.28 4.25 7.07-3.51 2.19.95 3.07.44.09.55.53.74 3.16-1.39 5.32-1.2 1.23.41 1.74.08.02 1.17-.52-1.45 2.69.18 4.3-.9 2.85 2.09 4.54a1.24 1.23 7.7 0 1 .59.77q.88 3.34 3.52 5.5.44.36.46.92.1 2.23 2.33 2.5.46.06.83.36l3.55 2.98q2.72 3.72 2.39 9.5l.72 3.19q.1.24-.2.45-.42.3-.9.13c-20.4-7.17-35.54-24.78-41.16-44.99-.3-1.06-.05-2.58-.54-3.71q-.45-1.01-.53-1.42-5.7-28.88 11.67-52.29Zm4.92 71.81q-2.02-3.93-1.46-8.2.05-.4-.1-.77c-1.2-2.77-.39-10.04-.04-14.05q.42-5-5.02-6.25-.49-.11-.68-.57L71 93.09a.77.75-3.1 0 0-.5-.44c-1.36-.4-1.54-1.21-1.38-2.59.45-3.87-.79-7.02-.89-10.52q-.05-2.17-.07-4.43a.38.38 0 0 0-.75-.11q-5.24 16.79-1.38 34.03c.61 2.67 2.42 5.41 2.78 8.66q.05.51.35.94 2.24 3.16 3.57 6.84.17.46.07.94-.21.98.88 1.18 3.2.6 5.83.37a.67.67 0 0 0 .53-.97ZM180.23 55.28q3.23 2.79 3.9 7.34a2.37 2.37 0 0 0 2.2 2.02q.4.02.67 1.42-1.31.21-.36 1.86.49.86-.43 1.54-.34.25-.63-.05-1.29-1.33-3.23-1.37-.66-.02-.89-.63l-.81-2.19q-.16-.43-.58-.24-1.06.48-2.01 1.86l-.33-1.37q-.11-.43-.54-.52c-2.54-.54-1.96-3.14-1.94-5.03q.01-.56-.55-.55l-1.68.04 1.11-1.85q.34-.56.85-.15l3.62 2.88a.43.42 27.1 0 0 .67-.21l.32-1.07a.3.29-83.7 0 1 .25-.21l.35-.05q.64-.09.35-.68-.67-1.34-.31-2.79Z"/><path fill="#034cb6" d="m173.02 59.41 1.68-.04q.56-.01.55.55c-.02 1.89-.6 4.49 1.94 5.03q.43.09.54.52l.33 1.37q-1.23.67-1.38 2.73a.77.77 0 0 1-.55.68l-2.19.66q-.56.17-.45.74l.22 1.12a.72.69 60.5 0 1-.15.58q-1.76 2.1-.41 4.26.26.4.2.87-.3 2.71-2.14 4.69a1.01.97-22 0 0-.26.58l-.72 7.57q-.05.53.13 1.04 1.49 4.23.57 8.66a.81.79-68.2 0 0 .34.82l1.63 1.08q.64 2.37 2.38 3.29.43.24.63.7l.8 1.92 1.38 2.01q.28.41.79.41h.62q.25 0 .25.25 0 .14.01.3.01.23-.22.24c-6.78.19-2.49 6.36-4.79 7.93a2.43 2.26 39.3 0 0 .55 4.05q1.69.78 3.21 1.82.36.25.77.08 3.19-1.31 4.47-4.57.2-.5.67-.73l1.29-.66q.49-.24.53.3c.32 4.18-4.49 6.59-2.13 10.08q-4.34 6.72-10.23 12.23-1.29-.9-.83-2.25a.91.9 87.9 0 0-1.21-1.13c-1.16.5-5.77 1.31-6.15 1.73a.8.78 21.4 0 1-.64.27l-14.07-.74q-.52-.03-.78-.48-.36-.62-1.01-.69-.55-.06-.44-.61l.47-2.27c-.1-1.35.78-2.39.4-3.53q-.39-1.18-1.73-1.16-.51 0-.98-.18c-4.22-1.63-8.26-1.33-12.47-2.51q-2.58-.72-5.22-1.13-.48-.08-.47-.56l.02-.93c1.5-4.14-3.56-5.26-5.72-7.12q2.01-.58 4.6 1.84.25.23.35-.1.04-.14.08-.27a.06.06 0 0 1 .09-.03q1.9 1.13 2.39 3.13a3.32 3.29-.4 0 0 2.5 2.45c2.52.57 7.62 1.84 10.49.85a1.66 1.66 0 0 1 .99-.03q4.32 1.23 7.93-1.34.57-.41.98.16l.95 1.31q.23.32.53.08l1.96-1.54q.42-.33.39-.87-.11-1.61-1.62-1.94a.83.83 0 0 1-.51-.37l-4.3-7.21a3.66 3.66 0 0 1 .35-4.23c5.35-6.33 10.94-14.03 13.68-21.98q3.08-8.95 4.96-18.25.11-.56.66-.72l1-.29a.18.18 0 0 0-.04-.35l-1.52-.12q-.59-.04-.66-.64-.08-.72-.68-1.39l3.28 1.95q.39.24.75-.06 2.66-2.22.81-5.38a.72.68 29.3 0 1-.1-.32l-.32-4.21Z"/><path fill="#00d27a" d="m97.13 60.22.51 2.42a.55.54-12.3 0 0 .66.42q2.42-.6 2.19 1.87a.58.58 0 0 0 .71.62q1.47-.35 2.58.55a.8.79 30.1 0 1 .24.88l-1.07 2.92a.74.74 0 0 1-.79.47l-.96-.13q-.5-.07-.74.36-.9 1.54-.33 3.55.44 2.04-3.08 3.49.03.05.07.1c-5.49 1.72-4.1 6.08-4.14 10.51q0 .5-.51.5h-.46q-.6 0-.59-.6l.16-5.42q1.17-5.16 4.86-6.57a1.18 1.18 0 0 0 .33-2.01q-1.12-.92-.77-2.45.11-.49-.23-.87c-2.36-2.64-.04-7.85 1.36-10.61Z"/><path fill="#01bf50" d="M187 66.06q5.79 10.17 6.45 21.94-1.87 1.46-1.58 4.22a.96.96 0 0 1-1.88.32c-.76-3.17-5.37-.17-6.51 1.34-2.04 2.68-4.37 2.18-6.51 4.22q-2.33 2.23-4.07 4.82l-1.63-1.08a.81.79-68.2 0 1-.34-.82q.92-4.43-.57-8.66-.18-.51-.13-1.04l.72-7.57a1.01.97-22 0 1 .26-.58q1.84-1.98 2.14-4.69.06-.47-.2-.87-1.35-2.16.41-4.26a.72.69 60.5 0 0 .15-.58l-.22-1.12q-.11-.57.45-.74l2.19-.66a.77.77 0 0 0 .55-.68q.15-2.06 1.38-2.73.95-1.38 2.01-1.86.42-.19.58.24l.81 2.19q.23.61.89.63 1.94.04 3.23 1.37.29.3.63.05.92-.68.43-1.54-.95-1.65.36-1.86Z"/><path fill="#001378" d="M80.04 126.99a.67.67 0 0 1-.53.97q-2.63.23-5.83-.37-1.09-.2-.88-1.18.1-.48-.07-.94-1.33-3.68-3.57-6.84-.3-.43-.35-.94c-.36-3.25-2.17-5.99-2.78-8.66Q62.17 91.79 67.41 75a.38.38 0 0 1 .75.11q.02 2.26.07 4.43c.1 3.5 1.34 6.65.89 10.52-.16 1.38.02 2.19 1.38 2.59a.77.75-3.1 0 1 .5.44l1.74 4.06q.19.46.68.57 5.44 1.25 5.02 6.25c-.35 4.01-1.16 11.28.04 14.05q.15.37.1.77-.56 4.27 1.46 8.2Z"/><path fill="#034cb6" d="M84.36 80.59q-.35-.1-.6-.13a.83.83 0 0 0-.85 1.16l2.49 5.51a.86.83-44.2 0 1-.02.72q-1.15 2.22 1.27 3.51.26.14.54.14h.3q.5 0 .51.49 0 .18-.12.24-.25.11-.26.38-.04 1.15 1.04 1.15.56 0 .74.53l2.19 6.57q.18.54.73.72 2.12.7 3.55 2.41.34.41.86.56c2.15.63 7.07 3.11 5.94 6.15q-1.23-.04-1.21 1.72 0 .53-.49.73-1 .39-2.86-.76.09-1.15 1.14-1.52a.52.51-56.9 0 0-.21-1l-2.23.18a.81.81 0 0 0-.73.62q-.36 1.57-1.77 2.42-.43.25-.84-.02-1.2-.79-1.53-2.16a.92.92 0 0 0-1.54-.45q-1.13 1.1-2.41.06-3.05-2.46-2.38-5.73 1.57-4.6-3.35-5.11a.94.93 16 0 1-.75-1.34l2.76-5.55q-.63-.75-2.62-.53-.53.06-.38-.46c.85-2.84.64-7.94-2.32-9.62q-.43-.25-.24-.7.4-.97 1.49-1.66.83-1.52 4.16.77Z"/><path fill="#003894" d="M80.2 79.82q-1.09.69-1.49 1.66-.19.45.24.7c2.96 1.68 3.17 6.78 2.32 9.62q-.15.52.38.46 1.99-.22 2.62.53-1.12-.53-2.51-.13-.5.15-.66.65-.47 1.52-2.09 1.78-.53.09-.93-.27-3.35-3.03-2.79-7.65.06-.51.41-.89 2.09-2.29 2.27-5.49.04-.56.59-.66l1.64-.31Z"/><path fill="#019b2e" d="M193.45 88q1.5 12.39-1.91 24.37-.92-2.88.62-7.44a1.22 1.22 0 0 0-1.39-1.59l-.96.19a.66.66 0 0 1-.61-.2q-.45-.49-1.15-.33-.53.12-.78.6l-1.68 3.23q-.2.39-.6.59l-4.93 2.43q-.4.19-.76-.06-1.16-.84-2.59-.96l-.8-1.92q-.2-.46-.63-.7-1.74-.92-2.38-3.29 1.74-2.59 4.07-4.82c2.14-2.04 4.47-1.54 6.51-4.22 1.14-1.51 5.75-4.51 6.51-1.34a.96.96 0 0 0 1.88-.32q-.29-2.76 1.58-4.22Z"/><path fill="#039e67" d="m91.25 91.99 5.87 4.42q.14.95-1.24.74-.57-.08-1.13-.57-2.28-2-4.64-3.76a.58.58 0 0 1 .51-1.02l.63.19Z"/><path fill="#00d27a" d="M101.49 98.61q1.4.08 2 .71.45.47-.18.61l-1.1.24q-1.15.24-1.91-.77-.38-.5.24-.62l.95-.17Z"/><path fill="#003894" d="M191.54 112.37c-.51 5.94-4.04 12.62-7.43 17.97-2.36-3.49 2.45-5.9 2.13-10.08q-.04-.54-.53-.3l-1.29.66q-.47.23-.67.73-1.28 3.26-4.47 4.57-.41.17-.77-.08-1.52-1.04-3.21-1.82a2.43 2.26 39.3 0 1-.55-4.05c2.3-1.57-1.99-7.74 4.79-7.93q.23-.01.22-.24-.01-.16-.01-.3 0-.25-.25-.25h-.62q-.51 0-.79-.41l-1.38-2.01q1.43.12 2.59.96.36.25.76.06l4.93-2.43q.4-.2.6-.59l1.68-3.23q.25-.48.78-.6.7-.16 1.15.33a.66.66 0 0 0 .61.2l.96-.19a1.22 1.22 0 0 1 1.39 1.59q-1.54 4.56-.62 7.44Z"/><path fill="#047039" d="M85.61 104.79q-.67 3.27 2.38 5.73 1.28 1.04 2.41-.06a.92.92 0 0 1 1.54.45q.33 1.37 1.53 2.16.41.27.84.02 1.41-.85 1.77-2.42a.81.81 0 0 1 .73-.62l2.23-.18a.52.51-56.9 0 1 .21 1q-1.05.37-1.14 1.52.74 2.97-.57 4.46a.89.89 0 0 0 1.14 1.34l1.19-.75q.44-.28.37-.79-.25-1.88 1.68-2.4.33-.09.33.25 0 .13-.01.26a.86.86 0 0 0 .44.8q2.09 1.16 1.83 3.57-.06.54.29.95l2.75 3.32q.33.39.2.89-.27 1.11.42 1.68.34.27.35.7.06 2.01 1.81 3.11a.82.79 4.6 0 1 .31.35l1.79 4.2q.2.47.02.94-.91 2.35-3.48 2.05a.64.64 0 0 0-.7.5c-1.12 5.21-7.4.16-9.96-.95a1.67 1.66 86.2 0 1-.74-.65c-1.51-2.43-2.7-4.54-3.73-7.32q-.87-2.32-3.54-2.15-1.63-1.61-.18-4.3 2.41-1.9 1.85-5.51a.89.87-29.1 0 1 .21-.71l.66-.73a.63.63 0 0 0 .06-.76l-1.55-2.48a.62.61 63.4 0 0-.73-.25q-1.33.47-2.19.3-4.97-3.79-4.25-7.07.64-.48 1.43-.45Z"/><path fill="#068b4f" d="m102.67 110.7 6.33 3.16q.44.23.82-.1l1.21-1.03q.56-.48.95.15 1.39 2.26 3.91 2.96.45.12.66.54 1.76 3.48 6.5 2.9c2.16 1.86 7.22 2.98 5.72 7.12q-.59 1.16-.14 2a.75.74-14.3 0 0 .65.38q3.51.03 5.94 2.47a.86.85-14.5 0 0 .38.22l3.63.94a.44.44 0 0 1 .06.83q-2.45 1.08-2.58 3.73-.02.49-.38.83l-3.53 3.4a1.2 1.2 0 0 1-.87.35q-2.12-.02-2.62 1.97-.12.44-.53.63l-4.2 1.95q-.5.23-.69.74-.8 2.19-3.06 3.07-.41.16-.82 0-1.57-.61-1.58-2.34a.86.86 0 0 0-.5-.78c-2.35-1.06-4.23-2.76-6.77-2.92q-3.71-.24-7.49.45l-3.55-2.98q-.37-.3-.83-.36-2.23-.27-2.33-2.5-.02-.56-.46-.92-2.64-2.16-3.52-5.5a1.24 1.23 7.7 0 0-.59-.77q-2.99-1.69-2.09-4.54 2.67-.17 3.54 2.15c1.03 2.78 2.22 4.89 3.73 7.32a1.67 1.66 86.2 0 0 .74.65c2.56 1.11 8.84 6.16 9.96.95a.64.64 0 0 1 .7-.5q2.57.3 3.48-2.05.18-.47-.02-.94l-1.79-4.2a.82.79 4.6 0 0-.31-.35q-1.75-1.1-1.81-3.11-.01-.43-.35-.7-.69-.57-.42-1.68.13-.5-.2-.89l-2.75-3.32q-.35-.41-.29-.95.26-2.41-1.83-3.57a.86.86 0 0 1-.44-.8q.01-.13.01-.26 0-.34-.33-.25-1.93.52-1.68 2.4.07.51-.37.79l-1.19.75a.89.89 0 0 1-1.14-1.34q1.31-1.49.57-4.46 1.86 1.15 2.86.76.49-.2.49-.73-.02-1.76 1.21-1.72Z"/><path fill="#034cb6" d="M90.12 122.45q-1.09.54-1.17.52-1.61-.51-.41-1.74 2.13-2.16 1.39-5.32-.11-.44-.55-.53-4.46-.88-.95-3.07.86.17 2.19-.3a.62.61 63.4 0 1 .73.25l1.55 2.48a.63.63 0 0 1-.06.76l-.66.73a.89.87-29.1 0 0-.21.71q.56 3.61-1.85 5.51Z"/><path fill="#039e67" d="m128.77 126.4-.02.93q-.01.48.47.56 2.64.41 5.22 1.13c4.21 1.18 8.25.88 12.47 2.51q.47.18.98.18 1.34-.02 1.73 1.16c.38 1.14-.5 2.18-.4 3.53l-2.03 2.8q-.3.4-.79.47c-1.5.21-2.17.97-2.52 2.53q-.81 3.57-3.33 6.1c-1.89 1.92-4.15 1.98-6.67 1.63q-.6-.09-.99.38l-2.19 2.64q-.09.1-.69.55-.21.16-.45.22-.42.11-.72.41l-2.91 2.92a1.07 1.07 0 0 1-1.02.28q-1.06-.29-1.95.15-.51.25-1.06.15-1.37-.25-2.07 1.24-.84.24-1.51.03-.63-.19-.29-.75l.24-.41q.29-.49-.27-.59l-6.03-1.13q-.47-.09-.76-.47-1.81-2.32-5.15-1.73.33-5.78-2.39-9.5 3.78-.69 7.49-.45c2.54.16 4.42 1.86 6.77 2.92a.86.86 0 0 1 .5.78q.01 1.73 1.58 2.34.41.16.82 0 2.26-.88 3.06-3.07.19-.51.69-.74l4.2-1.95q.41-.19.53-.63.5-1.99 2.62-1.97a1.2 1.2 0 0 0 .87-.35l3.53-3.4q.36-.34.38-.83.13-2.65 2.58-3.73a.44.44 0 0 0-.06-.83l-3.63-.94a.86.85-14.5 0 1-.38-.22q-2.43-2.44-5.94-2.47a.75.74-14.3 0 1-.65-.38q-.45-.84.14-2Z"/><path fill="#017ec2" d="m149.22 136.4-.47 2.27q-.11.55.44.61.65.07 1.01.69.26.45.78.48l14.07.74a.8.78 21.4 0 0 .64-.27c.38-.42 4.99-1.23 6.15-1.73a.91.9 87.9 0 1 1.21 1.13q-.46 1.35.83 2.25l-7.65 6.5c.18-5.76-5.71-2.78-7.96-1.13q-.4.3-.88.35-5.01.53-6.35 5.26-.17.59.4.83l3.47 1.43c-12.13 5.47-23.67 5.83-36.89 4.86q.15-.78 1.81-1.8.7-1.49 2.07-1.24.55.1 1.06-.15.89-.44 1.95-.15a1.07 1.07 0 0 0 1.02-.28l2.91-2.92q.3-.3.72-.41.24-.06.45-.22.6-.45.69-.55l2.19-2.64q.39-.47.99-.38c2.52.35 4.78.29 6.67-1.63q2.52-2.53 3.33-6.1c.35-1.56 1.02-2.32 2.52-2.53q.49-.07.79-.47l2.03-2.8Z"/><path fill="#0291dd" d="M166.23 149.07q-5.35 4.17-11.32 6.74l-3.47-1.43q-.57-.24-.4-.83 1.34-4.73 6.35-5.26.48-.05.88-.35c2.25-1.65 8.14-4.63 7.96 1.13Z"/><path fill="#047039" d="M106.06 153.82q3.34-.59 5.15 1.73.29.38.76.47l6.03 1.13q.56.1.27.59l-.24.41q-.34.56.29.75.67.21 1.51-.03-1.66 1.02-1.81 1.8-6.41-1.08-11.24-3.66l-.72-3.19Z"/><path fill="#262626" d="m238.48 160.49-.06 65.2-1.53 3.58q-.98-1.16-1.97-.63-3.6 1.94-6.86 4.43c-1.81 1.39-6.02.41-7.75.41q-17.6.01-35.19-.03c-3.3-.01-7.39-.83-10.69-.61-8.96.58-17.99.54-27.15.62q-16.4.13-32.76.1-15.16.03-20.77-.22c-18.99-.86-36.92.45-55.4.2-6.35-.09-13.47-1.58-17.9-6.55q-.34-.39-.85-.27-.71.17-.76 1.61l-.72-1.52q-.37-1.83-.38-2.87-.29-27.47-.23-54.94l1.72-.01q.36.87.83 1.12l-.09 1.66q-1.13-.37-1.15.79-.28 17.09-.08 46.66c.01 1.61.96 3 1.05 4.71q.03.47.39.78c6 5.15 11.55 6.76 19.95 6.78q11.92.04 23.77 0c10.67 1.43 21.74.03 31.15.03q15.89-.01 31.78-.01c3.91 0 7.67.59 11.67.47q20.42-.59 28.25-.18 13.35.69 21.75-.26 16.11-.1 32.23.01c5.76.04 9.31-4.4 13.44-7.69q.41-.32.91-.41.89-.17 1.54-.76.42-.38.43-.95.67-29.05.12-48.93-.02-.88-.87-.52-.32-1.32-.18-1.96 1.69-2.29 1.26-5.57 1.11-.95 1.1-4.27Z"/><path fill="#575858" d="M20.06 170.11q2.21 1.64 4.2 1.39h207.49q.64 0 2.49-.46l1.88-.71q-.14.64.18 1.96-2.54 1.51-6.08 1.39.04-.14.04-.26 0-.32-.32-.33c-21.42-.32-42.83-.16-64.26-.27-46.88-.24-93.47.66-140.67.14q-.37 0-.47.17-.11.2-.03.59-2.99.33-4.54-1.95l.09-1.66Z"/><path fill="#111" d="M19.97 171.77q1.55 2.28 4.54 1.95l2.36.11q-.59 4.34 3.37 9.44c10.05 12.95 20.51 24.37 33.7 33.42q.06.04.06.12v.38q0 .33.31.44 4.43 1.61 8.3 4.35a1.34 1.33 65.9 0 0 .62.24q1.56.18 2.35 1.52.15.26.45.26h.45q.45 0 .76.31c1.33 1.34 5.43 2.73 7.22 3.23a1.11 1.1 48 0 1-.11 2.15q-10.18 1.75-20.45 1.8-11.85.04-23.77 0c-8.4-.02-13.95-1.63-19.95-6.78q-.36-.31-.39-.78c-.09-1.71-1.04-3.1-1.05-4.71q-.2-29.57.08-46.66.02-1.16 1.15-.79ZM236.3 172.29q.85-.36.87.52.55 19.88-.12 48.93-.01.57-.43.95-.65.59-1.54.76-.5.09-.91.41c-4.13 3.29-7.68 7.73-13.44 7.69q-16.12-.11-32.23-.01l-19.19-1.38a.41.41 0 0 1-.31-.64q2.35-3.42 6.5-3.57.55-.02.97-.37c2.57-2.13 5.35-2.12 7.82-3.76q19.98-13.27 35.91-33.86 4.17-5.39 5.89-9.77.18-.46.63-.67 2.26-1.1 2.22-3.75l1.28-.09q3.54.12 6.08-1.39Z"/><path fill="#f4f4f4" d="m230.22 173.68-1.28.09-8.92.01h-17.09l-19.94-.02-106.75-.01-24.49-.02-17.71.36-7.17-.26-2.36-.11q-.08-.39.03-.59.1-.17.47-.17c47.2.52 93.79-.38 140.67-.14 21.43.11 42.84-.05 64.26.27q.32.01.32.33 0 .12-.04.26Z"/><path fill="#1d1d1d" d="m26.87 173.83 7.17.26q6.39 5.53 11.57 11.86c2.08 2.53 4.12 4.01 6.77 5.66a1.74 1.73 2.8 0 1 .64.7c1.3 2.54 2.46 4.6 4.31 7.04 2.76 3.62 3.72 5.33 8.39 7.05q7.33 2.71 14.33 6.22c1.34.67 1.57 1.97.37 2.95q-.37.3-.42.77l-.19 1.72-1.82 1.85q-.58.59.25.59h7.61q.66 0 .96-.58l6.14-11.82q.17-.32.34 0l6.1 11.92a.89.89 0 0 0 .79.48h7.55q.7 0 .28-.56l-2.54-3.41q.08-1.3-.61-2.3a1.3 1.29-11.8 0 1 1.32-2.01l4.76.94q.56.11.73.66l1.04 3.21.05 2.98q.01.49.5.49h5.73q.5 0 .5-.49l.02-3.81q2.29-1.48 7.39-.37l1.51 4.24q.16.43.62.43h5.2q.48 0 .63-.45l2.92-8.68q.67-.32 1.99-.19 1.81.18 1.95.23 1.29.49 1.94 3.03l.05 5.46q.01.55.55.56l6.57.22 6.94-.02q.49 0 .78-.41l.18-.28q.15.52.53.52 4.49.05 18.75-.01.53 0 .54-.53l.08-4.61q.33-1.11-.55-1.54a1.47 1.47 0 0 1-.16-2.55c12.34-8.12 22.53-16.7 32.04-28.12 1.95-2.34 2.91-5.13 6.37-7.23a.65.65 0 0 0-.04-1.13l-.98-.49a.18.17 57.2 0 1 .07-.33l4.64-.17 8.92-.01q.04 2.65-2.22 3.75-.45.21-.63.67-1.72 4.38-5.89 9.77-15.93 20.59-35.91 33.86c-2.47 1.64-5.25 1.63-7.82 3.76q-.42.35-.97.37-4.15.15-6.5 3.57a.41.41 0 0 0 .31.64l19.19 1.38q-8.4.95-21.75.26-7.83-.41-28.25.18c-4 .12-7.76-.47-11.67-.47q-15.89 0-31.78.01c-9.41 0-20.48 1.4-31.15-.03q10.27-.05 20.45-1.8a1.11 1.1 48 0 0 .11-2.15c-1.79-.5-5.89-1.89-7.22-3.23q-.31-.31-.76-.31h-.45q-.3 0-.45-.26-.79-1.34-2.35-1.52a1.34 1.33 65.9 0 1-.62-.24q-3.87-2.74-8.3-4.35-.31-.11-.31-.44v-.38q0-.08-.06-.12c-13.19-9.05-23.65-20.47-33.7-33.42q-3.96-5.1-3.37-9.44Z"/><path fill="#262626" d="M51.75 173.73q-.67.85-.49 2.03.07.47.43.8 5.78 5.32 11.13 11.07.73.78 2 1.52c1.82 1.06 3.66 3.16 4.89 4.03q8.13 5.79 17.94 9.67 1.35.78.04 2.84-3.92 6.14-7.88 12.37l.19-1.72q.05-.47.42-.77c1.2-.98.97-2.28-.37-2.95q-7-3.51-14.33-6.22c-4.67-1.72-5.63-3.43-8.39-7.05-1.85-2.44-3.01-4.5-4.31-7.04a1.74 1.73 2.8 0 0-.64-.7c-2.65-1.65-4.69-3.13-6.77-5.66q-5.18-6.33-11.57-11.86l17.71-.36Z"/><path fill="#303030" d="m51.75 173.73 24.49.02.73.44q.26.16-.01.32l-.38.22a.9.89-41.7 0 0-.09 1.48q9.26 7.14 19.59 11.46c1.34.56 1.83 1.5 2.72 2.57l-5.07 10.07a.26.26 0 0 1-.47-.01l-5.55-12.11q-.17-.38-.59-.39l-7.4-.16q-.66-.01-.34.56l8.27 14.65q-9.81-3.88-17.94-9.67c-1.23-.87-3.07-2.97-4.89-4.03q-1.27-.74-2-1.52-5.35-5.75-11.13-11.07-.36-.33-.43-.8-.18-1.18.49-2.03Z"/><path fill="#414141" d="m76.24 173.75 106.75.01q1.09.38 1.64 1.12a1.14 1.14 0 0 1-.35 1.68q-4.69 2.67-8.77 6.46-1.74 1.6-9.1 5.14l-7.16-.32q-.49-.02-.49.47l-.02 11.63q-2.07-.83-5.08.27a2.5 2.5 0 0 0-1.6 1.93l-1.07 6.38v-20.28q0-.5-.5-.5l-9.49.01q-.57 0-.76.54l-3.39 9.69q.03-1.07-1.75-1.16-.54-.03-.99.28-2.12 1.51-4.08-.25a.91.9 58.5 0 0-.85-.21l-2.25.62-3.14-9.1q-.14-.41-.57-.41h-9.96q-.5 0-.5.5l-.02 13.04c-3.82-1.01-8.4-3.26-12.21-1.7l6.95-11.63q.2-.35-.2-.34l-6.76.19q-.52.01-.75.49l-.97 1.94c-.89-1.07-1.38-2.01-2.72-2.57q-10.33-4.32-19.59-11.46a.9.89-41.7 0 1 .09-1.48l.38-.22q.27-.16.01-.32l-.73-.44Z"/><path fill="#303030" d="m182.99 173.76 19.94.02q-.96.08.49 1.45.45.42-.07.75c-3.9 2.42-6.64 6.53-8.97 8.83q-12.13 11.97-28.02 19.09l.05-15.74q7.36-3.54 9.1-5.14 4.08-3.79 8.77-6.46a1.14 1.14 0 0 0 .35-1.68q-.55-.74-1.64-1.12Z"/><path fill="#262626" d="M202.93 173.78h17.09l-4.64.17a.18.17 57.2 0 0-.07.33l.98.49a.65.65 0 0 1 .04 1.13c-3.46 2.1-4.42 4.89-6.37 7.23-9.51 11.42-19.7 20-32.04 28.12a1.47 1.47 0 0 0 .16 2.55q.88.43.55 1.54l-11.95.07q-.6 0-.58-.6l.26-10.91q15.89-7.12 28.02-19.09c2.33-2.3 5.07-6.41 8.97-8.83q.52-.33.07-.75-1.45-1.37-.49-1.45Z"/><path fill="#f4f4f4" d="M100.53 199.59q-1.65 1.98-2.28 4.28-.14.51.13.97l7.09 11.69 2.54 3.41q.42.56-.28.56h-7.55a.89.89 0 0 1-.79-.48l-6.1-11.92q-.17-.32-.34 0l-6.14 11.82q-.3.58-.96.58h-7.61q-.83 0-.25-.59l1.82-1.85q3.96-6.23 7.88-12.37 1.31-2.06-.04-2.84l-8.27-14.65q-.32-.57.34-.56l7.4.16q.42.01.59.39l5.55 12.11a.26.26 0 0 0 .47.01l5.07-10.07.97-1.94q.23-.48.75-.49l6.76-.19q.4-.01.2.34l-6.95 11.63ZM150.99 208.52l-.16 12.16-6.57-.22q-.54-.01-.55-.56l-.05-5.46.1-18.93q0-.4.17-.75.2-.42.04-.8-.16-.38-.29.01l-5.9 17.4-2.92 8.68q-.15.45-.63.45h-5.2q-.46 0-.62-.43l-1.51-4.24-6.76-20.03q-.63-1.88-.63.1v20.3l-.02 3.81q0 .49-.5.49h-5.73q-.49 0-.5-.49l-.05-2.98.03-15.74.02-13.04q0-.5.5-.5h9.96q.43 0 .57.41l3.14 9.1 4.85 14.97q.2.61.4 0l4.67-14.25 3.39-9.69q.19-.54.76-.54l9.49-.01q.5 0 .5.5v20.28ZM166.41 188.16l-.05 15.74-.26 10.91q-.02.6.58.6l11.95-.07-.08 4.61q-.01.53-.54.53-14.26.06-18.75.01-.38 0-.53-.52l.01-20.03.02-11.63q0-.49.49-.47l7.16.32Z"/><path fill="#303030" d="M126.9 215.83q-5.1-1.11-7.39.37v-20.3q0-1.98.63-.1l6.76 20.03ZM143.66 214.44q-.65-2.54-1.94-3.03-.14-.05-1.95-.23-1.32-.13-1.99.19l5.9-17.4q.13-.39.29-.01.16.38-.04.8-.17.35-.17.75l-.1 18.93ZM136.85 197.98l-4.67 14.25q-.2.61-.4 0l-4.85-14.97 2.25-.62a.91.9 58.5 0 1 .85.21q1.96 1.76 4.08.25.45-.31.99-.28 1.78.09 1.75 1.16ZM112.74 201.29l-.03 15.74-1.04-3.21q-.17-.55-.73-.66l-4.76-.94a1.3 1.29-11.8 0 0-1.32 2.01q.69 1 .61 2.3l-7.09-11.69q-.27-.46-.13-.97.63-2.3 2.28-4.28c3.81-1.56 8.39.69 12.21 1.7Z"/><path fill="#262626" d="m158.74 199.94-.01 20.03-.18.28q-.29.41-.78.41l-6.94.02.16-12.16 1.07-6.38a2.5 2.5 0 0 1 1.6-1.93q3.01-1.1 5.08-.27Z"/><path fill="#010000" fill-opacity=".125" d="M238.42 225.69q-.27.52.09 1.21.2.38.61.29l2.25-.52q.51-.12.56.4.16 1.53 1.43 2.39.44.3.49.83.16 1.81.79 3.41c2.16 5.39-.57 13.61-7.03 13.95q-.31.02-.35.32l-.04.29q-.06.49-.55.49H18.2q-.54 0-.92-.37c-2.59-2.48-7.05-3.78-6.28-8.37a.23.21-85.4 0 0-.21-.26h-.31q-.23 0-.23-.23V235q0-.25.25-.25h.26q.11 0 .11-.1.65-7.19 7.25-7.84l.72 1.52 1.63 3.08q-.19.85-.75.89-.5.02-.7.48-.57 1.27-1.8 2.1-.41.28-.54.77c-.94 3.75.69 4.98 2.94 7.42q.84.91 2.41.29a.32.31 74.8 0 1 .43.25l.06.43a.53.52 86.3 0 0 .52.46h209.25a1.41 1.4 28.2 0 0 .77-.23q1.43-.96 3.21-.97.52 0 .88-.38c2.49-2.64 3.58-8.34-.48-10.27q-.32-.15-.06-.38.18-.15.17-.51a.33.33 0 0 0-.61-.17l-.58.87q-.5.76-.62-.14-.02-.15-.02-.35l1.94-2.7 1.53-3.58Z"/><path fill="#414141" d="M114.52 233.56q-8.06.26-16.08.41c-2.68.05-5.59 1.12-8.69 1-6.79-.25-15.45-.22-24.33-.68q-14.02-.72-28.06.16c-3.86.24-7.22-.68-11.1-1.06q-.52-.05-.77.41-.54 1.02.86 2.17l-2.52-1.37-2.77-2.41q-.05-.45-.59-.78l-1.63-3.08q.05-1.44.76-1.61.51-.12.85.27c4.43 4.97 11.55 6.46 17.9 6.55 18.48.25 36.41-1.06 55.4-.2q5.61.25 20.77.22Z"/><path fill="#575858" d="m236.89 229.27-1.94 2.7-1.13 1.46q-.23-.31-1.33.92-4.15 3.15-7.49 3.15H30.06q-1.44 0-3.71-1.53-1.4-1.15-.86-2.17.25-.46.77-.41c3.88.38 7.24 1.3 11.1 1.06q14.04-.88 28.06-.16c8.88.46 17.54.43 24.33.68 3.1.12 6.01-.95 8.69-1q8.02-.15 16.08-.41 16.36.03 32.76-.1c9.16-.08 18.19-.04 27.15-.62 3.3-.22 7.39.6 10.69.61q17.59.04 35.19.03c1.73 0 5.94.98 7.75-.41q3.26-2.49 6.86-4.43.99-.53 1.97.63Z"/><path fill-opacity=".239" d="M20.47 231.41q.54.33.59.78l-.11 1.02a.08.08 0 0 1-.1.07q-.16-.05-.27-.1-.21-.1-.32.1-2.31 4.13.43 7.84.34.47.92.38.89-.16 1.35.62.23.38.67.38 102.56.01 205.11-.01c2.56 0 5.03-1.06 7.48-1.77q.49-.14.51-.65.03-.87.65-1.52.29-.31.07-.68l-.34-.57q-.25-.43-.3-.92-.26-2.3-2.99-2.95l1.13-1.46q0 .2.02.35.12.9.62.14l.58-.87a.33.33 0 0 1 .61.17q.01.36-.17.51-.26.23.06.38c4.06 1.93 2.97 7.63.48 10.27q-.36.38-.88.38-1.78.01-3.21.97a1.41 1.4 28.2 0 1-.77.23H23.04a.53.52 86.3 0 1-.52-.46l-.06-.43a.32.31 74.8 0 0-.43-.25q-1.57.62-2.41-.29c-2.25-2.44-3.88-3.67-2.94-7.42q.13-.49.54-.77 1.23-.83 1.8-2.1.2-.46.7-.48.56-.04.75-.89Z"/><path fill-opacity=".302" d="m21.06 232.19 2.77 2.41q-.34 1.34-2.3-.26-.38-.32-.51.16-.22.79.38.75a.48.48 0 0 1 .45.7q-.73 1.44.62 1.59a.13.12 25.2 0 1 .08.21l-.31.3q-.15.15-.04.34c2.16 3.67 5.07 2.09 7.93 2.29 1.36.09 12.58-.22 12.61-.19a.34.32 69.1 0 0 .25.12l34.51.09q.21 0 .22.04.04.15.15.22.11.06.25-.01.17-.08.19-.17a.05.05 0 0 1 .05-.04l14.27-.2q.02 0 .04.03l.17.3a.09.08-64.1 0 0 .16-.06q-.03-.31.25-.31.42.01.5.25.03.09.06.19.05.14.29.05.06-.02.1-.06.13-.17.23-.17c21.66-.41 43.3.16 65-.17q.03-.01.83.33.27.12.75.06 2.69-.35 7.05-.06.11 0 .16-.09.05-.11.09-.24.02-.07.08-.04.24.14.48.24.18.08.39.08 30.53.08 61.06-.54.48-.01.76-.4.5-.72 1.36-.69a.57.57 0 0 0 .58-.69q-.17-.73.38-1.05.44-.25.23-.71l-1.14-2.44q1.1-1.23 1.33-.92 2.73.65 2.99 2.95.05.49.3.92l.34.57q.22.37-.07.68-.62.65-.65 1.52-.02.51-.51.65c-2.45.71-4.92 1.77-7.48 1.77q-102.55.02-205.11.01-.44 0-.67-.38-.46-.78-1.35-.62-.58.09-.92-.38-2.74-3.71-.43-7.84.11-.2.32-.1.11.05.27.1a.08.08 0 0 0 .1-.07l.11-1.02Z"/><path fill="#000001" fill-opacity=".349" d="m23.83 234.6 2.52 1.37q2.27 1.53 3.71 1.53H225q3.34 0 7.49-3.15l1.14 2.44q.21.46-.23.71-.55.32-.38 1.05a.57.57 0 0 1-.58.69q-.86-.03-1.36.69-.28.39-.76.4-30.53.62-61.06.54-.21 0-.39-.08-.24-.1-.48-.24-.06-.03-.08.04-.04.13-.09.24-.05.09-.16.09-4.36-.29-7.05.06-.48.06-.75-.06-.8-.34-.83-.33c-21.7.33-43.34-.24-65 .17q-.1 0-.23.17-.04.04-.1.06-.24.09-.29-.05-.03-.1-.06-.19-.08-.24-.5-.25-.28 0-.25.31a.09.08-64.1 0 1-.16.06l-.17-.3q-.02-.03-.04-.03l-14.27.2a.05.05 0 0 0-.05.04q-.02.09-.19.17-.14.07-.25.01-.11-.07-.15-.22-.01-.04-.22-.04l-34.51-.09a.34.32 69.1 0 1-.25-.12c-.03-.03-11.25.28-12.61.19-2.86-.2-5.77 1.38-7.93-2.29q-.11-.19.04-.34l.31-.3a.13.12 25.2 0 0-.08-.21q-1.35-.15-.62-1.59a.48.48 0 0 0-.45-.7q-.6.04-.38-.75.13-.48.51-.16 1.96 1.6 2.3.26Z"/></svg>